<?xml version="1.0" encoding="iso-8859-1"?>
<!-- Uploaded to: SVG Repo, www.svgrepo.com, Generator: SVG Repo Mixer Tools -->
<svg height="800px" width="800px" version="1.1" id="Layer_1" xmlns="http://www.w3.org/2000/svg" xmlns:xlink="http://www.w3.org/1999/xlink" 
	 viewBox="0 0 511.999 511.999" xml:space="preserve">
<g>
	<path style="fill:#FFC61B;" d="M237.027,451.102c-7.641,0-13.838-6.195-13.838-13.838v-16.602H195.07v16.602
		c0,7.643-6.196,13.838-13.838,13.838c-7.641,0-13.838-6.195-13.838-13.838v-30.44c0-7.643,6.196-13.838,13.838-13.838h55.795
		c7.641,0,13.838,6.195,13.838,13.838v30.44C250.864,444.907,244.668,451.102,237.027,451.102z"/>
	<path style="fill:#FFC61B;" d="M320.865,435.882h-30.089c-7.641,0-13.838-6.195-13.838-13.838s6.197-13.838,13.838-13.838h30.089
		c7.641,0,13.838,6.195,13.838,13.838S328.506,435.882,320.865,435.882z"/>
	<path style="fill:#FFC61B;" d="M127.482,435.882H97.395c-7.641,0-13.838-6.195-13.838-13.838s6.196-13.838,13.838-13.838h30.087
		c7.641,0,13.838,6.195,13.838,13.838S135.124,435.882,127.482,435.882z"/>
</g>
<path style="fill:#FEE187;" d="M297.126,254.349v-75.537c0-22.351,9.075-42.581,23.738-57.212V69.196H97.394v285.026h223.469
	v-99.873H297.126z"/>
<g>
	<path style="fill:#FFC61B;" d="M377.945,283.329L377.945,283.329c-17.708,0-28.548-10.839-28.548-28.548v-0.432h57.097v0.432
		C406.493,272.489,395.653,283.329,377.945,283.329z"/>
	<path style="fill:#FFC61B;" d="M472.599,240.559v-61.746c0-47.493-35.163-86.917-80.817-93.635V32.866
		C391.782,14.744,377.038,0,358.915,0H59.343C41.22,0,26.478,14.744,26.478,32.866V437.62c0,41.013,33.365,74.379,74.379,74.379
		h216.546c41.013,0,74.38-33.367,74.38-74.379v-77.86c0-7.643-6.196-13.838-13.838-13.838s-13.838,6.195-13.838,13.838v77.86
		c0,25.753-20.952,46.703-46.705,46.703H100.856c-25.752,0-46.703-20.952-46.703-46.703V32.866c0-2.862,2.329-5.19,5.19-5.19
		h299.572c2.862,0,5.192,2.329,5.192,5.19v52.312c-10.454,1.539-20.348,4.803-29.405,9.476V69.196
		c0-7.643-6.196-13.838-13.838-13.838H97.395c-7.641,0-13.838,6.195-13.838,13.838v285.026c0,7.643,6.196,13.838,13.838,13.838
		h223.469c7.641,0,13.838-6.195,13.838-13.838v-86.035h2.621c4.965,17.767,20.055,28.979,40.622,28.979s35.658-11.211,40.622-28.979
		h40.196h12.922c7.641,0,13.838-6.195,13.838-13.838C485.521,247.017,479.813,241.032,472.599,240.559z M307.027,340.385H111.233
		V83.034h195.794v33.082c-11.049,12.465-18.469,27.385-21.771,43.467c-0.024,0.113-0.047,0.228-0.071,0.342
		c-0.266,1.32-0.504,2.649-0.714,3.984c-0.043,0.274-0.09,0.548-0.13,0.822c-0.177,1.194-0.327,2.394-0.459,3.598
		c-0.042,0.379-0.091,0.756-0.129,1.135c-0.113,1.158-0.195,2.321-0.266,3.487c-0.025,0.401-0.061,0.798-0.082,1.201
		c-0.075,1.547-0.118,3.1-0.118,4.659v61.746c-7.212,0.473-12.922,6.458-12.922,13.792c0,7.643,6.196,13.838,13.838,13.838h12.922
		h9.901L307.027,340.385L307.027,340.385z M406.493,240.512h-57.097h-28.532h-9.901v-61.699c0-1.146,0.029-2.283,0.087-3.415
		c0.008-0.158,0.026-0.313,0.035-0.469c0.057-0.988,0.126-1.972,0.226-2.949c0.001-0.021,0.006-0.042,0.008-0.061
		c3.462-33.706,32.022-60.086,66.628-60.086c36.933,0,66.98,30.047,66.98,66.981v61.699h-38.434V240.512z"/>
</g>
</svg>