<?xml version="1.0" encoding="iso-8859-1"?>
<!-- Uploaded to: SVG Repo, www.svgrepo.com, Generator: SVG Repo Mixer Tools -->
<svg version="1.1" id="Layer_1" xmlns="http://www.w3.org/2000/svg" xmlns:xlink="http://www.w3.org/1999/xlink" 
	 viewBox="0 0 512.001 512.001" xml:space="preserve">
<path d="M148.144,112.824l-8-0.36C141.734,76.156,171.658,47.552,208,47.6h96c36.198-0.006,66.037,28.383,67.832,64.536l-8,0.408
	c-1.582-31.893-27.899-56.94-59.832-56.944h-96C175.944,55.57,149.554,80.8,148.144,112.824z"/>
<path style="fill:#CCCCCC;" d="M300,248.401v28c0,11.046-8.954,20-20,20h-48c-11.046,0-20-8.954-20-20v-28H16v184
	c0.053,17.651,14.349,31.947,32,32h416.001c17.651-0.053,31.947-14.349,32-32v-184H300z"/>
<rect x="235.996" y="200.441" width="39.999" height="71.509"/>
<path style="fill:#CCCCCC;" d="M480,109.769c-0.399-0.4-41.6-0.56-98.832-0.592h-40.168c-55.888,0-120.001,0.136-175.368,0.248
	l-40.16,0.088c-54.704,0.144-93.472,0.256-93.472,0.256c-17.652,0.053-31.948,14.349-32.001,32v50.168
	c0.053,17.651,14.349,31.947,32,32h180v-27.536c0-11.046,8.954-20,20-20h48c11.046,0,20,8.954,20,20v27.504h180
	c17.651-0.053,31.947-14.349,32-32v-50.136C511.947,124.117,497.651,109.822,480,109.769z"/>
</svg>