<svg xmlns="http://www.w3.org/2000/svg" xmlns:xlink="http://www.w3.org/1999/xlink" xmlns:serif="http://www.serif.com/" width="100%" height="100%" viewBox="0 0 1021 334" xml:space="preserve" style="fill-rule:evenodd;clip-rule:evenodd;stroke-linejoin:round;stroke-miterlimit:2;"> <g transform="matrix(1,0,0,1,-1739.82,-752.13)"> <g transform="matrix(4.16667,0,0,4.16667,0,0)"> <g transform="matrix(1,0,0,1,576.765,227.412)"> <path d="M0,-16.503C0,-18.455 0.604,-20.199 1.492,-21.738C2.379,-23.275 5.036,-24.045 6.575,-24.045C8.645,-24.045 10.36,-23.453 11.721,-22.27C13.081,-21.086 13.762,-19.4 13.762,-17.213L13.762,-11.754C10.981,-11.695 8.217,-11.533 5.466,-11.266C2.716,-11 0.26,-10.482 -1.898,-9.714C-4.058,-8.944 -5.818,-7.835 -7.178,-6.387C-8.539,-4.936 -9.218,-2.196 -9.218,0.228C-9.218,1.59 -8.952,3.283 -8.42,4.348C-7.887,5.413 -7.178,6.33 -6.29,7.099C-5.403,7.868 -4.383,8.459 -3.229,8.873C-2.076,9.286 -0.878,9.494 0.364,9.494C2.612,9.494 4.918,8.962 7.285,7.897C9.65,6.832 11.78,5.65 13.673,4.348C14.086,4.763 14.561,5.266 15.093,5.856C15.625,6.448 16.202,7.01 16.823,7.542C17.444,8.075 18.079,8.532 18.731,8.917C19.381,9.301 20.002,9.494 20.594,9.494C21.481,9.494 22.382,9.242 23.3,8.74C24.217,8.237 25.119,7.617 26.006,6.877C26.894,6.138 27.737,5.368 28.535,4.57C29.334,3.771 30.028,3.077 30.62,2.485L29.733,1.509C28.904,2.16 28.032,2.826 27.116,3.505C26.198,4.186 25.148,4.526 23.966,4.526C22.724,4.526 21.806,4.097 21.215,3.239C20.623,2.382 20.328,1.391 20.328,0.267L20.328,-16.148C20.328,-17.981 19.958,-19.534 19.219,-20.806C18.478,-22.077 17.502,-23.098 16.291,-23.867C15.078,-24.635 13.718,-25.183 12.209,-25.509C10.701,-25.833 9.177,-25.997 7.64,-25.997C6.043,-25.997 2.928,-25.922 1.508,-25.775C0.089,-25.627 -1.184,-25.272 -2.307,-24.71C-3.431,-24.147 -4.422,-23.32 -5.279,-22.226C-6.137,-21.131 -6.803,-19.667 -7.276,-17.834L0,-16.503ZM13.585,1.952C12.875,2.485 11.735,3.136 10.169,3.904C8.601,4.674 6.87,5.058 4.978,5.058C3.262,5.058 1.709,4.63 0.32,3.771C-1.071,2.914 -1.765,0.998 -1.765,-1.014C-1.765,-2.314 -1.485,-4.227 -0.922,-5.144C-0.361,-6.061 0.364,-6.815 1.251,-7.407C2.139,-7.997 3.144,-8.427 4.268,-8.693C5.391,-8.96 6.516,-9.093 7.64,-9.093C9.65,-9.093 11.633,-8.826 13.585,-8.294L13.585,1.952Z" style="fill:rgb(15,151,152);fill-rule:nonzero;"></path> </g> </g> <g transform="matrix(4.16667,0,0,4.16667,0,0)"> <g transform="matrix(1,0,0,1,547.885,180.546)"> <path d="M0,56.226C1.655,56.107 3.297,56.018 4.924,55.96C6.551,55.9 8.221,55.871 9.938,55.871C11.712,55.871 13.5,55.9 15.305,55.96C17.109,56.018 18.868,56.107 20.585,56.226L20.585,55.161C18.988,55.043 17.73,54.821 16.814,54.496C15.896,54.171 15.186,53.683 14.684,53.032C14.181,52.382 13.871,51.494 13.753,50.37C13.634,49.247 13.575,47.827 13.575,46.111L13.575,0L1.496,1.598L1.496,2.662C4.158,2.662 4.88,3.121 5.59,4.038C6.3,4.955 6.655,5.667 6.655,7.974L6.655,46.111C6.655,47.827 6.595,49.247 6.477,50.37C6.358,51.494 6.063,52.382 5.59,53.032C5.116,53.683 4.436,54.171 3.549,54.496C2.662,54.821 1.478,55.043 0,55.161" style="fill:rgb(15,151,152);fill-rule:nonzero;"></path> </g> </g> <g transform="matrix(4.16667,0,0,4.16667,0,0)"> <g transform="matrix(1,0,0,1,597.346,234.704)"> <path d="M0,-30.953C1.78,-30.609 3.415,-29.69 4.908,-28.197C6.4,-26.704 7.634,-24.953 8.611,-22.945C9.414,-21.279 10.29,-19.457 11.237,-17.477C12.184,-15.496 13.145,-13.458 14.122,-11.363C15.097,-9.267 16.059,-7.157 17.007,-5.034C17.954,-2.91 18.828,-0.871 19.633,1.08L21.786,1.08L32.894,-21.567L43.313,1.08L45.207,1.08L54.507,-18.036C55.138,-19.299 55.784,-20.663 56.445,-22.127C57.104,-23.591 57.851,-24.939 58.683,-26.174C59.515,-27.408 60.449,-28.469 61.482,-29.36C62.515,-30.249 63.721,-30.781 65.099,-30.953L65.099,-31.986C63.832,-31.976 62.472,-31.976 61.263,-31.976C60,-31.918 58.747,-31.976 57.485,-31.976C56.164,-31.976 54.818,-31.918 53.556,-31.976C52.347,-31.976 51.138,-31.976 49.771,-31.986L49.771,-30.953C51.435,-30.723 52.641,-30.249 53.388,-29.532C54.133,-28.814 54.507,-27.595 54.507,-25.872C54.507,-25.068 54.163,-23.776 53.474,-21.998C52.785,-20.218 51.98,-18.323 51.063,-16.314C50.144,-14.304 49.211,-12.382 48.264,-10.545C47.317,-8.707 46.613,-7.359 46.154,-6.498C45.81,-7.416 45.193,-8.823 44.303,-10.717C43.412,-12.612 42.495,-14.578 41.548,-16.616C40.6,-18.653 39.768,-20.577 39.05,-22.385C38.332,-24.193 37.974,-25.498 37.974,-26.303C37.974,-27.795 38.504,-28.929 39.567,-29.704C40.629,-30.479 41.906,-30.895 43.399,-30.953L43.399,-31.986C41.466,-31.976 39.804,-31.976 37.991,-31.976C36.211,-31.918 34.968,-31.976 32.702,-31.976L29.679,-31.976C28.846,-31.976 28.043,-31.947 27.412,-31.976C26.657,-31.976 26.295,-31.918 25.75,-31.976C25.204,-32.033 24.598,-31.928 24.024,-31.986L24.024,-30.953C25.058,-30.837 25.975,-30.551 26.78,-30.092C27.583,-29.632 28.287,-29.072 28.89,-28.413C29.492,-27.752 30.009,-27.02 30.44,-26.217C30.87,-25.412 31.228,-24.637 31.516,-23.892L22.819,-6.842C22.417,-7.932 21.756,-9.383 20.838,-11.191C19.919,-12.999 19,-14.864 18.083,-16.788C17.164,-18.711 16.361,-20.547 15.672,-22.299C14.983,-24.049 14.639,-25.442 14.639,-26.475C14.639,-27.795 15.14,-28.843 16.145,-29.618C17.149,-30.393 18.255,-30.809 19.461,-30.867L19.461,-31.986C17.892,-31.976 16.532,-31.976 14.869,-31.976L7.465,-31.976C6.69,-31.976 5.943,-31.947 5.198,-31.976C4.451,-32.005 3.611,-31.918 2.78,-31.976C1.873,-31.976 1.091,-31.928 0,-31.986L0,-30.953Z" style="fill:rgb(15,151,152);fill-rule:nonzero;"></path> </g> </g> <g transform="matrix(4.16667,0,0,4.16667,0,0)"> <g transform="matrix(1,0,0,1,525.137,216.197)"> <path d="M0,8.573C-0.799,6.563 -1.198,4.983 -1.198,1.906L24.533,1.906C23.882,-3.298 22.137,-8.137 19.298,-10.681C16.459,-13.223 12.702,-14.496 8.03,-14.496C5.486,-14.496 3.208,-13.993 1.198,-12.988C-0.814,-11.981 -2.529,-10.65 -3.948,-8.995C-5.368,-7.338 -6.448,-5.446 -7.187,-3.316C-7.927,-1.187 -8.296,1.002 -8.296,3.249C-8.296,5.498 -7.927,7.686 -7.187,9.815C-6.448,11.945 -5.368,13.838 -3.948,15.494C-2.529,17.15 -0.814,18.481 1.198,19.487C3.208,20.492 5.486,20.995 8.03,20.995C11.579,20.995 14.625,20.314 17.169,18.954C19.711,17.594 22.196,15.613 24.622,13.009L23.113,11.59C21.397,13.306 19.534,14.562 17.524,15.361C15.512,16.159 13.265,16.558 10.78,16.558C9.596,16.558 8.31,16.323 6.921,15.849C5.53,15.376 4.228,14.548 3.017,13.364C1.804,12.182 0.799,10.585 0,8.573M-1.02,-0.756C-1.02,-1.878 -0.829,-4.011 -0.444,-5.224C-0.06,-6.436 0.502,-7.531 1.242,-8.507C1.981,-9.483 2.868,-10.281 3.904,-10.903C4.938,-11.524 6.078,-11.834 7.32,-11.834C8.975,-11.834 10.337,-11.613 11.401,-11.169C12.466,-10.725 13.323,-10.073 13.975,-9.217C14.625,-8.359 15.098,-7.294 15.394,-6.023C15.69,-4.75 16.087,-2.353 16.265,-0.756L-1.02,-0.756ZM-27.944,-13.463C-29.087,-13.448 -30.216,-13.469 -31.416,-13.469C-32.836,-13.469 -34.288,-13.439 -35.648,-13.469C-37.008,-13.469 -38.217,-13.469 -39.739,-13.431L-39.739,-12.367C-39.148,-12.189 -38.527,-12.026 -37.876,-11.879C-37.225,-11.73 -36.664,-11.524 -36.19,-11.258C-35.717,-10.991 -35.318,-10.65 -34.992,-10.237C-34.668,-9.823 -34.504,-9.261 -34.504,-8.551C-34.504,-8.137 -34.726,-7.309 -35.169,-6.067C-35.521,-5.083 -35.948,-3.967 -36.447,-2.724L-45.353,15.534C-45.952,13.835 -46.696,12.019 -47.591,10.081C-48.687,7.716 -49.751,5.394 -50.785,3.116C-51.821,0.84 -52.724,-1.29 -53.492,-3.272C-54.261,-5.253 -54.645,-6.835 -54.645,-8.019C-54.645,-9.497 -54.055,-10.562 -52.871,-11.213C-51.688,-11.863 -50.446,-12.247 -49.144,-12.367L-49.097,-13.469C-50.911,-13.469 -52.752,-13.431 -54.538,-13.469C-56.372,-13.439 -58.203,-13.469 -59.978,-13.469L-69.906,-13.469L-69.906,-12.367C-68.545,-12.012 -67.452,-11.686 -66.623,-11.391C-65.796,-11.094 -65.086,-10.695 -64.494,-10.193C-63.903,-9.69 -63.4,-9.024 -62.986,-8.197C-62.572,-7.367 -62.069,-6.274 -61.477,-4.914C-60.827,-3.612 -60.057,-2.03 -59.17,-0.167C-58.283,1.697 -57.396,3.62 -56.508,5.601C-55.621,7.583 -54.734,9.58 -53.847,11.59C-52.959,13.601 -52.161,15.42 -51.451,17.046C-50.741,18.674 -50.18,20.004 -49.765,21.039C-49.352,22.073 -49.144,22.681 -49.144,22.858C-49.144,23.047 -49.214,23.339 -49.347,23.723L-59.362,44.259L-55.823,44.259L-32.825,-2.893L-32.685,-3.139C-31.354,-5.446 -30.963,-6.367 -29.603,-8.634C-28.71,-9.75 -27.265,-10.11 -26.048,-10.208L-23.868,-10.208L-23.957,13.364C-23.957,15.436 -23.514,17.224 -22.626,18.732C-21.739,20.241 -20.053,20.995 -17.569,20.995C-16.149,20.995 -14.833,20.773 -13.62,20.329C-12.409,19.886 -11.284,19.295 -10.249,18.555C-9.215,17.816 -8.545,17.31 -7.598,16.392L-8.696,15.405C-9.88,16.174 -11.358,16.558 -13.132,16.558C-14.02,16.558 -14.716,16.381 -15.217,16.026C-15.721,15.671 -16.105,15.198 -16.371,14.606C-16.637,14.016 -16.815,13.35 -16.903,12.61C-16.992,11.871 -17.036,11.117 -17.036,10.348L-17.036,-9.383L-6.327,-9.383L-6.327,-13.758L-17.036,-13.758L-17.036,-27.052L-19.564,-27.052C-20.046,-25.105 -22.01,-18.305 -23.975,-13.469M-23.975,-13.469L-27.487,-13.469L-27.658,-13.467C-23.246,-13.42 -24.681,-12.285 -23.975,-13.469M-27.944,-13.463C-27.849,-13.465 -27.754,-13.465 -27.658,-13.467C-27.751,-13.468 -27.842,-13.469 -27.941,-13.469L-27.944,-13.463ZM-69.561,-9.838C-71.189,-11.287 -73.11,-12.425 -75.329,-13.254C-77.547,-14.082 -79.958,-14.496 -82.56,-14.496C-84.867,-14.496 -86.982,-14.141 -88.904,-13.431C-90.827,-12.722 -92.586,-11.775 -94.183,-10.592C-94.065,-16.151 -93.992,-21.653 -93.961,-27.095C-93.932,-32.537 -93.859,-30.125 -93.739,-35.686L-107.581,-34L-107.581,-32.935C-105.334,-32.935 -103.648,-32.55 -102.523,-31.782C-101.401,-31.012 -100.838,-29.593 -100.838,-27.523L-100.838,15.405C-100.483,15.76 -99.759,16.248 -98.664,16.869C-97.57,17.49 -96.224,18.111 -94.627,18.732C-93.03,19.353 -91.286,19.886 -89.392,20.329C-87.499,20.773 -85.577,20.995 -83.625,20.995C-80.963,20.995 -78.449,20.595 -76.083,19.797C-73.718,18.999 -71.677,17.801 -69.961,16.204C-68.246,14.606 -66.886,12.641 -65.879,10.303C-64.874,7.967 -64.371,5.232 -64.371,2.096C-64.371,-0.329 -64.83,-2.562 -65.746,-4.603C-66.664,-6.644 -67.935,-8.388 -69.561,-9.838M-72.179,3.249C-72.179,5.438 -72.445,7.45 -72.977,9.283C-73.51,11.117 -74.264,12.699 -75.24,14.03C-76.216,15.361 -77.4,16.412 -78.789,17.18C-80.179,17.949 -81.732,18.333 -83.447,18.333C-85.341,18.333 -86.996,18.082 -88.416,17.579C-89.835,17.077 -91.004,16.248 -91.921,15.094C-92.838,13.941 -93.533,12.404 -94.006,10.481C-94.48,8.559 -94.715,6.148 -94.715,3.249C-94.715,0.352 -94.48,-2.074 -94.006,-4.026C-93.533,-5.978 -92.838,-7.531 -91.921,-8.685C-91.004,-9.838 -89.835,-10.65 -88.416,-11.125C-86.996,-11.597 -85.341,-11.834 -83.447,-11.834C-81.732,-11.834 -80.179,-11.449 -78.789,-10.681C-77.4,-9.911 -76.216,-8.862 -75.24,-7.531C-74.264,-6.2 -73.51,-4.617 -72.977,-2.784C-72.445,-0.95 -72.179,1.062 -72.179,3.249" style="fill:rgb(24,48,70);fill-rule:nonzero;"></path> </g> </g> </g> </svg>