<svg version="1.1" id="Layer_1" xmlns="http://www.w3.org/2000/svg" xmlns:xlink="http://www.w3.org/1999/xlink" x="0px" y="0px"
	 width="100%" viewBox="0 0 736 736" enable-background="new 0 0 736 736" xml:space="preserve">
<path fill="#000000" opacity="1.000000" stroke="none" 
	d="
M1.000000,301.449982 
	C3.761114,298.031403 7.046990,297.614166 10.998116,298.131012 
	C17.590668,298.993408 24.271517,299.160950 30.905766,299.730774 
	C36.126518,300.179199 38.212322,302.775085 37.546833,308.052826 
	C37.193565,310.854523 36.590309,313.636108 35.922569,316.383698 
	C35.140289,319.602661 37.072903,321.109161 39.518826,322.031860 
	C42.475971,323.147461 42.745171,320.327301 43.439133,318.701508 
	C49.651276,304.148071 55.827179,289.578003 61.837566,274.940491 
	C63.109787,271.842163 64.905746,270.226562 68.249832,269.551544 
	C93.080360,264.539612 117.946236,260.149475 143.453293,260.670654 
	C159.779419,261.004272 176.118500,260.645630 192.450653,260.759155 
	C210.164215,260.882263 227.562759,263.806244 244.911530,267.052765 
	C248.997742,267.817413 253.037155,269.027679 257.153961,269.379761 
	C261.516205,269.752869 263.446655,272.227600 265.046173,275.840332 
	C271.181793,289.698608 277.455719,303.496185 283.773346,317.272736 
	C284.721039,319.339264 285.070007,322.700592 288.744934,321.439087 
	C292.086487,320.292084 292.593628,317.697510 291.676331,314.543060 
	C287.381592,299.774658 292.328583,298.422852 304.216461,298.647125 
	C309.690887,298.750397 315.176941,297.969971 320.664124,297.748901 
	C325.151337,297.568176 326.446350,300.857819 327.488281,304.382324 
	C328.649261,308.309479 325.905304,309.177612 323.174011,310.309845 
	C317.173370,312.797333 311.254730,315.482330 305.262146,317.989929 
	C302.672852,319.073456 300.772797,320.698547 299.596893,323.294708 
	C297.836853,327.180450 297.929108,330.117340 302.402893,332.255951 
	C308.964081,335.392334 312.632507,341.019806 314.632477,347.900177 
	C318.833221,362.351593 321.671936,376.958984 321.399750,392.132172 
	C321.088959,409.460266 321.255737,426.796753 321.171051,444.129333 
	C321.157501,446.899536 321.592957,449.825867 318.390289,451.568817 
	C316.874695,452.393616 317.354340,454.254303 317.343597,455.712097 
	C317.301727,461.378357 317.386383,467.046082 317.297272,472.711273 
	C317.184235,479.898132 312.231598,484.906586 305.058502,484.934326 
	C288.059265,485.000122 271.059570,484.954407 254.060043,484.939362 
	C247.530472,484.933563 243.149048,481.330963 242.191010,474.803589 
	C241.709824,471.525116 241.751572,468.158905 241.710876,464.830475 
	C241.681168,462.401062 240.695511,460.709656 238.209595,461.099518 
	C228.726334,462.586792 222.227188,456.481262 215.088730,452.154755 
	C209.032242,448.484070 203.873535,449.138733 199.793137,454.743469 
	C197.770432,457.521851 195.251526,459.997803 192.037048,460.785980 
	C187.115494,461.992737 183.669449,464.648132 180.317276,468.353149 
	C175.132690,474.083466 166.742966,475.024261 160.201904,470.786072 
	C157.108215,468.781555 155.488449,469.288361 153.032135,471.572205 
	C149.323975,475.020111 144.743912,477.053436 139.671341,477.922455 
	C130.769257,479.447510 124.249886,476.419189 120.259682,468.351257 
	C118.932533,465.667816 117.558304,463.626099 114.491844,462.725952 
	C110.948837,461.685944 109.244553,458.307709 106.713692,455.400024 
	C100.691757,459.162262 94.273560,461.659790 87.048180,461.353760 
	C85.178650,461.274628 84.375458,462.435730 84.383987,464.218018 
	C84.394356,466.384277 84.352509,468.553528 84.449669,470.716217 
	C84.893394,480.594330 80.759903,484.950928 70.728371,484.970367 
	C54.062210,485.002655 37.395824,485.009460 20.729755,484.957397 
	C13.593269,484.935089 9.697542,480.995911 9.623570,473.856171 
	C9.570048,468.690277 9.665001,463.522919 9.618941,458.356842 
	C9.591666,455.297760 10.383870,452.020538 6.662205,450.088654 
	C5.249353,449.355255 5.777100,447.345856 5.795646,445.882599 
	C6.110272,421.058075 6.235367,396.228119 6.902806,371.412781 
	C7.153657,362.086121 9.243162,352.924133 13.292844,344.369263 
	C15.770200,339.135925 19.198902,334.763489 24.430323,331.934784 
	C30.222588,328.802856 30.352221,322.441467 24.310316,319.467773 
	C17.012539,315.876068 9.581089,312.454773 1.382741,310.015137 
	C1.000000,307.299988 1.000000,304.599976 1.000000,301.449982 
M104.829391,354.634735 
	C103.184700,355.131897 101.564888,355.013794 99.903427,354.611542 
	C82.746964,350.457886 65.579468,346.349762 48.427979,342.175781 
	C46.900997,341.804169 45.044601,341.797607 44.296089,339.928162 
	C44.594658,338.182007 46.015556,337.442047 47.218552,336.662079 
	C52.425064,333.286407 55.717552,328.725098 58.067890,322.865326 
	C63.272209,309.890106 69.226944,297.216461 74.832771,284.401093 
	C75.812515,282.161285 76.933029,280.266357 79.678673,279.951385 
	C82.651985,279.610260 85.604393,279.090057 88.575424,278.725525 
	C110.740685,276.005890 132.966904,274.300720 155.322433,274.697021 
	C157.234375,274.730927 159.705994,275.170563 159.832809,272.165710 
	C159.972290,268.860565 157.360580,269.158234 155.235214,269.122986 
	C128.855118,268.684692 102.671616,270.652802 76.700890,275.416931 
	C72.683434,276.153961 70.321571,278.118439 68.723297,281.907135 
	C63.481472,294.332855 57.455105,306.447632 52.663418,319.037079 
	C48.656048,329.565857 40.499500,334.783386 31.086632,338.996185 
	C26.709875,340.955078 22.740278,343.324493 21.081385,348.125183 
	C17.915977,357.285583 15.567334,366.695984 15.401847,376.395172 
	C15.057909,396.553314 15.122107,416.718567 15.053454,436.881012 
	C15.048407,438.363586 14.750134,440.530243 15.565528,441.214966 
	C19.643528,444.639435 18.129747,449.131714 18.290346,453.254272 
	C18.471811,457.912476 18.333855,462.584076 18.296732,467.249573 
	C18.262497,471.552246 20.338743,473.820282 24.662651,473.776917 
	C37.489140,473.648315 50.325714,473.706451 63.134571,473.147125 
	C66.890778,472.983093 71.487144,475.424133 74.458900,471.503693 
	C77.180145,467.913757 75.572983,463.420410 75.674339,459.345062 
	C75.890961,450.635559 75.744583,450.671936 84.784355,451.483551 
	C90.608269,452.006439 96.460510,452.456848 101.131866,447.580383 
	C100.160301,444.506897 98.802139,442.723816 95.430069,444.994476 
	C92.720726,446.818878 89.628746,446.220459 86.673882,445.934601 
	C82.698769,445.550079 78.730415,445.027893 74.788971,444.382660 
	C71.070000,443.773834 69.092430,444.673309 69.312622,448.957397 
	C69.560295,453.776154 69.222092,458.622467 69.365135,463.450043 
	C69.467072,466.890198 68.034492,468.215820 64.636139,468.186554 
	C52.639355,468.083221 40.640667,468.054260 28.644117,468.159180 
	C24.905388,468.191864 23.594040,466.565521 23.782148,463.010162 
	C24.151651,456.026367 24.407698,449.035767 24.622601,442.045258 
	C24.670965,440.471954 25.215023,438.474213 23.107815,437.724945 
	C20.547209,436.814514 20.794439,434.765381 20.820591,432.780853 
	C20.930305,424.455048 20.990894,416.135193 21.483347,407.809814 
	C21.732296,403.601044 23.014380,402.847900 26.959454,403.569702 
	C44.964977,406.864044 63.053104,409.712860 81.035988,413.120514 
	C85.162445,413.902435 86.816406,412.667206 88.806313,409.300446 
	C96.365448,396.511047 112.748512,395.769012 121.138412,407.741608 
	C123.033997,410.446686 124.966698,412.457275 128.197617,413.541351 
	C131.131210,414.525726 133.356812,416.954346 133.877075,420.060089 
	C134.386703,423.102203 135.664810,424.588898 138.688995,425.378723 
	C143.008240,426.506714 145.773621,429.682556 147.112213,433.891479 
	C147.691940,435.714325 148.216232,437.269073 150.128387,438.149139 
	C157.159897,441.385468 159.903748,447.335480 160.149673,454.673401 
	C160.297836,459.094543 163.058884,461.321747 166.722855,462.457367 
	C170.109680,463.507111 173.113556,462.124146 174.855103,459.092499 
	C176.923843,455.491241 176.171768,451.989532 173.289322,449.052216 
	C170.606216,446.318024 167.748993,443.753906 165.085678,441.001495 
	C163.957031,439.835052 161.815445,438.782471 163.639099,436.541931 
	C165.907913,436.263397 166.868103,438.119385 168.149963,439.281921 
	C171.850906,442.638184 175.409576,446.150848 179.088028,449.532562 
	C183.347565,453.448517 187.716705,453.594330 190.972855,450.030090 
	C193.991608,446.725769 193.587006,442.334198 189.773132,438.552094 
	C185.987762,434.798218 182.080460,431.167542 178.269714,427.438782 
	C177.161728,426.354553 176.115616,425.010406 177.721497,423.617493 
	C179.185913,422.347229 180.074936,423.767975 181.008698,424.677216 
	C185.543900,429.093475 190.033463,433.558411 194.641586,437.897400 
	C198.732956,441.749786 203.387665,442.043823 206.640488,438.847534 
	C209.983383,435.562775 209.646606,431.179962 205.490204,427.001648 
	C201.378647,422.868530 197.078156,418.923950 192.905243,414.850861 
	C191.878433,413.848602 190.294052,412.714508 191.704224,411.098663 
	C193.360077,409.201324 194.627808,410.831879 195.836151,411.964478 
	C199.846954,415.724030 203.801514,419.545685 207.879745,423.230499 
	C211.570236,426.565063 215.861343,426.585327 218.982956,423.472931 
	C222.203033,420.262360 222.335876,415.940521 218.699539,412.361969 
	C207.423431,401.265045 196.024078,390.290894 184.539474,379.409546 
	C180.764191,375.832581 176.456848,375.413910 171.684555,378.035919 
	C164.973831,381.722961 158.057556,385.035889 151.228363,388.507233 
	C149.582062,389.344055 147.917999,389.971313 145.986649,389.865326 
	C138.241302,389.440338 130.939117,383.589600 128.783524,375.985748 
	C126.469704,367.823730 129.462677,359.543274 136.394806,354.992706 
	C138.622803,353.530121 140.976639,352.242706 143.110611,350.656799 
	C148.100586,346.948456 154.053619,344.545929 158.453842,339.958771 
	C153.037888,333.983856 146.187180,332.927917 138.670700,336.854919 
	C127.608543,342.634430 116.618965,348.552826 104.829391,354.634735 
M220.256042,349.366272 
	C213.393143,344.079651 206.515793,338.811646 199.673080,333.499054 
	C195.942886,330.602936 191.884537,330.305603 188.027756,332.711456 
	C176.305893,340.023407 164.727081,347.564789 153.101349,355.030518 
	C151.822327,355.851868 150.843781,356.668976 151.123428,358.617676 
	C151.942505,364.325562 154.722900,367.237579 160.514328,367.775269 
	C164.849869,368.177795 169.037888,368.147064 173.073044,365.785400 
	C178.703598,362.489929 183.783066,363.657898 188.416000,368.288116 
	C200.903290,380.768097 213.666290,392.974335 226.052353,405.552643 
	C232.062698,411.656250 238.807648,414.101318 247.241272,412.569702 
	C264.432922,409.447540 281.654480,406.488617 298.873260,403.517883 
	C305.926514,402.300995 306.181305,402.553467 306.211609,409.870056 
	C306.244293,417.767029 306.219025,425.664185 306.219025,433.561279 
	C309.173401,431.113983 308.711487,427.866821 309.599609,423.667084 
	C310.437927,426.580231 310.903778,428.199127 311.369629,429.818024 
	C311.873260,425.898804 311.933472,422.072784 311.862854,418.249176 
	C311.552582,401.441010 312.869507,384.595795 310.734680,367.829376 
	C310.571747,366.549774 310.970459,364.257812 309.748474,364.257965 
	C304.929169,364.258636 306.003571,360.455353 305.313049,357.935211 
	C304.196259,353.859222 306.084045,348.852539 301.447937,345.866272 
	C301.118195,345.653870 300.927521,344.944702 300.963989,344.489899 
	C301.216095,341.345917 298.925812,340.050262 296.712128,339.007935 
	C287.402893,334.624603 278.968506,329.356323 274.281677,319.591125 
	C273.043030,317.010437 270.727448,315.907532 267.882141,316.877563 
	C268.814697,327.170563 275.522614,333.463715 282.794159,338.767548 
	C281.449738,341.133423 280.048767,341.068481 278.762665,341.378296 
	C263.733398,344.998962 248.667542,348.483582 233.717285,352.407684 
	C228.734589,353.715546 224.568573,353.523895 220.256042,349.366272 
M137.444153,437.410004 
	C134.672928,431.706573 129.575943,434.172363 125.045303,434.314270 
	C125.214851,430.494415 128.042526,427.076111 124.878311,423.578705 
	C121.793404,420.169067 117.805862,421.796265 114.014198,421.363953 
	C114.068260,420.286285 114.046539,419.477814 114.158348,418.688293 
	C115.005264,412.707703 112.340202,409.626434 106.442528,410.234802 
	C100.035194,410.895721 95.816536,414.667114 93.471588,420.516052 
	C90.848763,427.058075 93.701187,431.032745 100.662895,430.800262 
	C101.946754,430.757385 103.271774,430.059845 105.018616,431.244354 
	C104.536720,434.434509 103.219307,438.079407 106.825409,440.930054 
	C110.214096,443.608856 113.766930,441.207703 117.570877,441.537018 
	C116.916351,445.677368 114.653954,449.666809 118.322037,453.086029 
	C121.766739,456.296997 125.858078,453.270020 129.760406,453.925262 
	C129.195419,456.427734 128.472443,458.487030 128.309875,460.589661 
	C127.979187,464.867340 130.697037,467.595337 134.906555,467.556366 
	C141.082275,467.499176 148.405945,461.302887 149.591949,455.131592 
	C150.668716,449.528687 146.857620,445.669983 141.196411,446.581268 
	C139.652634,446.829773 138.154877,448.173950 136.295868,446.757996 
	C136.851929,443.959686 138.544693,441.230682 137.444153,437.410004 
M264.666748,472.691864 
	C268.821777,472.677277 272.996368,472.908630 277.126343,472.579559 
	C281.332428,472.244415 286.917786,475.093811 288.623657,467.894287 
	C280.427917,467.894287 272.119965,467.739288 263.821808,467.957397 
	C259.442719,468.072510 257.349548,466.772766 257.653137,462.021057 
	C257.959686,457.222687 257.697052,452.385895 257.628784,447.566742 
	C257.605957,445.956116 257.877808,443.606018 255.562363,443.762482 
	C248.896378,444.212891 242.187210,444.697510 235.812347,446.604584 
	C235.994904,449.729736 237.851212,450.242554 239.653183,450.476013 
	C241.785110,450.752167 243.972473,450.849609 246.117493,450.720459 
	C249.908066,450.492218 251.675827,451.938354 251.430603,455.902710 
	C251.267380,458.541565 251.445633,461.221161 251.691498,463.862030 
	C252.402695,471.501556 253.404755,472.386139 261.226501,472.692719 
	C262.056183,472.725220 262.888306,472.696259 264.666748,472.691864 
z"/>
<path fill="#000000" opacity="1.000000" stroke="none" 
	d="
M737.000000,433.533875 
	C736.670715,433.998749 736.341125,433.987885 736.012207,433.997528 
	C728.912537,434.205200 725.167480,431.444794 725.367981,426.149261 
	C725.557007,421.155090 729.271667,418.678284 736.572083,418.981995 
	C737.000000,423.689240 737.000000,428.378510 737.000000,433.533875 
z"/>
<path fill="#000000" opacity="1.000000" stroke="none" 
	d="
M489.378906,368.844788 
	C485.446259,369.220459 482.430328,371.766785 478.619598,372.530792 
	C466.678528,374.924652 457.331604,367.883759 456.585175,355.775116 
	C456.074768,347.495605 457.741150,339.921936 462.868805,333.236603 
	C471.143524,322.448273 484.229340,320.256195 496.236755,327.972626 
	C498.453613,321.879639 503.575348,323.893860 507.966034,323.944885 
	C510.249420,323.971436 510.472870,325.857025 510.168335,327.613678 
	C507.785736,341.357697 505.365051,355.095123 502.923798,368.828857 
	C502.518738,371.107544 501.075256,372.598724 498.742950,372.083588 
	C495.600830,371.389648 491.083923,374.677216 489.378906,368.844788 
M491.735504,353.033295 
	C493.200470,349.985382 493.943665,346.787140 493.635529,343.397797 
	C493.221405,338.842957 490.688202,336.073944 486.247101,335.263367 
	C476.754364,333.530762 467.081635,344.282776 469.634460,353.635895 
	C470.918030,358.338684 474.180908,360.749481 479.094818,360.845398 
	C484.678284,360.954346 488.460571,358.101929 491.735504,353.033295 
z"/>
<path fill="#000000" opacity="1.000000" stroke="none" 
	d="
M436.783325,311.796143 
	C444.736023,314.392029 450.321198,318.880035 452.684998,326.829041 
	C453.571289,329.809509 452.988586,331.304840 449.642029,331.276550 
	C444.408997,331.232300 439.576050,331.701813 435.545532,326.424896 
	C432.029724,321.821869 425.918945,322.404175 420.629456,324.060974 
	C409.067963,327.682373 405.050903,338.720428 405.608429,347.993652 
	C406.147278,356.956085 413.736908,362.047577 422.607971,360.283234 
	C426.277496,359.553406 429.919800,358.456390 432.349457,355.588226 
	C437.051727,350.037292 442.760529,352.147858 448.710480,352.336945 
	C448.476105,356.913666 445.839325,359.658020 443.363739,362.070923 
	C433.481903,371.702454 421.526001,374.764221 408.343628,371.059662 
	C395.909424,367.565369 389.964478,355.058289 392.946991,340.362915 
	C397.047882,320.157043 416.224457,307.507385 436.783325,311.796143 
z"/>
<path fill="#000000" opacity="1.000000" stroke="none" 
	d="
M659.451660,368.885864 
	C656.160095,355.101074 652.949158,341.681274 649.637207,328.286438 
	C648.914307,325.362640 649.493835,323.698669 652.814209,323.799500 
	C653.146851,323.809601 653.480347,323.790314 653.813416,323.791473 
	C664.464355,323.828156 662.667664,323.016052 664.816040,332.217804 
	C666.469543,339.300049 666.820801,346.671814 669.707458,354.946655 
	C672.885376,349.223297 675.500305,344.509979 678.119080,339.798767 
	C679.656250,337.033478 681.211853,334.278381 682.737366,331.506714 
	C687.467896,322.911713 689.210876,322.161469 699.139709,324.501099 
	C700.155701,326.125610 699.011047,327.354340 698.277832,328.583344 
	C685.911316,349.314056 673.455933,369.992065 661.169250,390.769897 
	C657.335876,397.252533 651.691467,392.854034 646.749512,393.992767 
	C649.540466,384.691376 656.233887,377.861694 659.451660,368.885864 
z"/>
<path fill="#000000" opacity="1.000000" stroke="none" 
	d="
M358.970459,389.000000 
	C358.972229,417.825287 358.977478,446.150574 358.968903,474.475861 
	C358.968140,476.974060 358.942719,479.475861 358.805420,481.969208 
	C358.710785,483.688080 358.404144,485.353027 356.039642,485.325348 
	C353.686737,485.297791 352.799988,484.004913 352.791718,481.834961 
	C352.786041,480.335571 352.741974,478.836212 352.741913,477.336853 
	C352.740265,407.023468 352.719788,336.710022 352.830719,266.396820 
	C352.834717,263.867920 350.957733,259.329987 355.782684,259.408173 
	C360.275269,259.480957 358.835907,263.871735 358.843506,266.534973 
	C358.959625,307.189758 358.950317,347.844940 358.970459,389.000000 
z"/>
<path fill="#000000" opacity="1.000000" stroke="none" 
	d="
M562.527222,372.848602 
	C556.505737,371.819061 551.379333,369.937042 548.375305,364.708832 
	C546.902283,362.145294 545.240540,359.140411 548.085876,356.539398 
	C550.330017,354.487946 558.041321,356.093781 559.590088,358.586548 
	C562.009949,362.481232 566.140686,363.745239 570.343323,361.881561 
	C571.909607,361.187042 573.450623,360.391327 573.480713,358.408417 
	C573.507202,356.657074 572.167786,355.735168 570.790283,355.122681 
	C567.596313,353.702606 564.315491,352.478882 561.110657,351.082123 
	C552.823120,347.470306 549.974304,343.305634 550.715576,336.022430 
	C551.352173,329.767548 556.551208,325.343933 564.524963,323.569519 
	C570.001831,322.350739 575.106079,323.134125 580.152283,325.114075 
	C583.024048,326.240906 585.473877,328.105621 586.786316,330.910126 
	C588.092407,333.701019 589.891113,336.945831 586.956665,339.610992 
	C584.748474,341.616455 577.739258,339.745056 576.070068,336.981628 
	C574.498840,334.380493 572.171143,333.379517 569.371460,333.441681 
	C566.765442,333.499512 564.141235,334.283508 563.597168,337.194214 
	C563.109863,339.801636 565.419800,340.869873 567.415771,341.776672 
	C571.355957,343.566681 575.469299,345.027039 579.257996,347.088654 
	C588.406799,352.066986 588.880920,363.344971 580.190491,369.115143 
	C575.006104,372.557404 569.092285,373.431427 562.527222,372.848602 
z"/>
<path fill="#000000" opacity="1.000000" stroke="none" 
	d="
M642.697083,305.252686 
	C645.537170,305.153412 648.651917,303.153778 649.974243,306.758179 
	C651.143250,309.944427 648.342346,315.441406 645.444275,316.491547 
	C644.035950,317.001831 642.578064,317.397034 641.550293,318.601013 
	C640.639771,319.667633 640.101013,320.898315 640.462402,322.281311 
	C640.838440,323.720490 642.150024,323.666687 643.313293,323.739594 
	C645.305054,323.864471 648.051086,323.762604 647.330383,326.641541 
	C646.574402,329.661530 647.867126,334.805450 642.888550,334.842468 
	C637.719604,334.880890 636.959778,337.712921 636.332764,341.587830 
	C635.006470,349.782837 633.315491,357.922974 632.161621,366.140045 
	C631.504395,370.820312 629.539124,373.022003 624.682800,372.233765 
	C622.910889,371.946198 621.031250,372.546448 618.687317,371.410553 
	C619.307922,359.742401 622.858459,348.275574 624.098999,336.233856 
	C622.316284,334.762146 618.748718,334.459686 619.824402,330.786926 
	C620.690430,327.829681 619.787537,323.854828 624.791870,323.478699 
	C626.982422,323.314117 627.113586,320.797913 627.529236,319.125214 
	C629.476990,311.287903 634.551331,306.929718 642.697083,305.252686 
z"/>
<path fill="#000000" opacity="1.000000" stroke="none" 
	d="
M532.262329,341.357178 
	C528.187317,349.430359 528.200928,358.101593 526.390259,366.343445 
	C525.291016,371.347137 518.196594,374.615173 513.899597,371.673157 
	C512.511230,370.722565 512.811707,369.409637 513.041931,368.083038 
	C515.343689,354.819916 517.689148,341.564026 519.903259,328.286285 
	C520.482544,324.812622 522.271912,323.467712 525.713867,323.737427 
	C529.274536,324.016479 533.872070,322.262665 533.656128,329.324829 
	C536.722595,326.680328 539.384888,324.715790 542.626099,323.814117 
	C547.107971,322.567352 548.159058,323.418030 547.573120,327.912079 
	C547.358093,329.560852 546.967224,331.187561 546.773804,332.838104 
	C546.423462,335.827667 544.886353,337.243164 541.800964,337.103638 
	C538.105286,336.936523 534.932922,338.188446 532.262329,341.357178 
z"/>
<path fill="#000000" opacity="1.000000" stroke="none" 
	d="
M593.863220,370.783569 
	C595.370178,355.719574 598.354553,341.233673 601.210022,326.756287 
	C602.300964,321.225220 607.952881,324.056030 611.514404,324.037445 
	C615.175293,324.018311 614.011292,327.224884 613.639526,329.384216 
	C611.553406,341.500366 609.430908,353.610687 607.229858,365.706451 
	C605.935364,372.820099 602.442749,374.211761 593.863220,370.783569 
z"/>
<path fill="#000000" opacity="1.000000" stroke="none" 
	d="
M533.912537,441.303284 
	C529.443848,441.297516 526.508911,439.898193 525.901306,435.664001 
	C528.972839,431.588745 533.316406,440.394836 535.973328,434.304199 
	C534.926941,432.765472 533.783875,433.882294 532.752441,433.909668 
	C528.145203,434.032013 524.603271,430.609924 524.879822,426.261658 
	C525.158264,421.883698 528.978577,418.619171 533.319092,419.050262 
	C541.265198,419.839447 541.297791,419.839783 541.221313,428.507355 
	C541.200928,430.812958 541.136780,433.159851 540.696899,435.410400 
	C540.034546,438.798737 538.120972,441.129425 533.912537,441.303284 
M532.749084,424.233978 
	C531.061523,424.614471 529.987061,425.520508 530.612793,427.363098 
	C531.072693,428.717407 532.174377,429.534821 533.678894,429.286438 
	C535.065247,429.057526 536.253113,428.268219 536.349365,426.776917 
	C536.472412,424.869537 535.086426,424.306274 532.749084,424.233978 
z"/>
<path fill="#000000" opacity="1.000000" stroke="none" 
	d="
M556.344849,433.950653 
	C551.573914,432.298798 549.479492,429.333801 550.577820,424.628693 
	C551.570984,420.374451 554.641602,418.750153 560.875671,419.053436 
	C562.363281,417.013733 561.383606,414.610565 561.662415,412.387909 
	C561.853455,410.865753 561.829895,409.205048 563.957031,409.257019 
	C565.630554,409.297882 566.194214,410.586395 566.206116,412.013580 
	C566.258972,418.330719 566.255493,424.648468 566.240479,430.965912 
	C566.235657,432.992310 565.166443,434.316376 563.141113,433.810089 
	C560.910095,433.252350 558.868103,434.323822 556.344849,433.950653 
M558.516846,428.908966 
	C560.143555,428.772766 561.476501,428.199402 561.442444,426.311432 
	C561.417542,424.930695 560.352722,424.363831 559.122620,424.206207 
	C557.742371,424.029297 556.368774,424.242340 555.786743,425.668518 
	C555.033630,427.513763 556.191284,428.377380 558.516846,428.908966 
z"/>
<path fill="#000000" opacity="1.000000" stroke="none" 
	d="
M399.945435,433.473328 
	C393.313568,430.231384 390.596832,425.203522 392.264099,419.862793 
	C393.983948,414.353455 399.419556,410.955444 405.026306,411.841309 
	C408.230988,412.347595 409.776611,413.898529 408.796967,417.277344 
	C400.172333,416.709229 397.251678,418.216095 397.329987,423.100433 
	C397.405640,427.817566 400.026581,429.083374 408.301544,428.399200 
	C409.411469,433.437347 407.395966,434.748840 399.945435,433.473328 
z"/>
<path fill="#000000" opacity="1.000000" stroke="none" 
	d="
M476.820374,430.516602 
	C474.652008,433.562164 471.887329,434.425659 468.715179,433.961670 
	C464.474213,433.341309 461.500336,429.397491 462.107391,425.409210 
	C462.703857,421.490967 466.750977,418.505432 470.878876,418.938660 
	C475.392548,419.412354 477.759430,422.454590 477.292053,427.185089 
	C477.194153,428.175751 477.088470,429.165649 476.820374,430.516602 
z"/>
<path fill="#000000" opacity="1.000000" stroke="none" 
	d="
M613.734497,318.138794 
	C609.562500,319.765289 605.473511,320.505798 603.344116,316.219696 
	C601.539978,312.588196 602.336792,308.716675 605.979675,306.048279 
	C609.747070,303.288574 614.272827,303.569519 616.709900,306.689880 
	C619.276062,309.975555 618.375916,313.842834 613.734497,318.138794 
z"/>
<path fill="#000000" opacity="1.000000" stroke="none" 
	d="
M625.081543,428.328979 
	C624.366699,432.759033 621.334900,434.759064 616.957031,434.017639 
	C612.424133,433.250000 609.801819,429.113403 610.831848,424.355438 
	C611.636780,420.637543 616.014038,418.160126 620.169739,419.070435 
	C624.442932,420.006531 626.317688,423.388672 625.081543,428.328979 
z"/>
<path fill="#000000" opacity="1.000000" stroke="none" 
	d="
M585.126892,427.655792 
	C585.833618,420.874573 588.541260,418.534851 594.870605,419.373779 
	C596.899841,419.642731 600.118713,417.184387 600.863220,420.640625 
	C601.721130,424.622650 602.205261,428.985687 600.631775,432.874969 
	C599.604797,435.413483 589.353516,434.282440 587.040955,431.519104 
	C586.217468,430.535126 585.803345,429.208527 585.126892,427.655792 
M592.820312,424.246124 
	C591.133057,424.637085 590.148193,425.599640 590.760010,427.381927 
	C591.220947,428.724762 592.310547,429.492645 593.816223,429.214813 
	C595.188721,428.961548 596.361633,428.235718 596.426880,426.730743 
	C596.509216,424.832703 595.109802,424.328583 592.820312,424.246124 
z"/>
<path fill="#000000" opacity="1.000000" stroke="none" 
	d="
M426.641846,422.536316 
	C429.392944,426.930664 427.993134,430.174744 424.466003,432.651733 
	C421.001099,435.085052 415.891144,434.470154 413.051270,431.512970 
	C410.416504,428.769257 410.026886,425.738739 412.225525,422.539734 
	C414.609222,419.071472 419.238892,417.918823 423.247925,419.886932 
	C424.403809,420.454346 425.357025,421.434509 426.641846,422.536316 
M416.529175,425.682220 
	C416.206512,428.656799 417.892029,429.486237 420.386627,428.994995 
	C421.989380,428.679382 423.197174,427.327789 422.317902,425.766663 
	C421.009308,423.443390 418.911041,423.760468 416.529175,425.682220 
z"/>
<path fill="#000000" opacity="1.000000" stroke="none" 
	d="
M581.053955,427.409363 
	C578.605835,427.546875 576.487610,427.631348 574.295593,428.662079 
	C576.925720,431.407654 580.180725,426.508148 582.691772,429.890167 
	C581.260315,433.840332 577.976135,434.474945 574.396484,433.845551 
	C570.529846,433.165680 568.049316,430.573608 568.005615,426.611603 
	C567.958923,422.373505 570.659119,419.804321 574.675232,419.066528 
	C578.277466,418.404755 581.346313,419.746979 582.916382,423.222015 
	C583.622070,424.783722 584.393799,426.929504 581.053955,427.409363 
z"/>
<path fill="#000000" opacity="1.000000" stroke="none" 
	d="
M659.670288,423.044495 
	C662.637939,419.152283 666.169250,417.785828 670.399658,419.611938 
	C674.049988,421.187714 676.429504,423.875549 675.446106,428.209930 
	C674.589172,431.986755 670.527527,434.508636 666.129395,434.071442 
	C662.021118,433.663055 659.315796,431.475891 658.795288,427.249603 
	C658.643250,426.015045 659.237610,424.688507 659.670288,423.044495 
M669.256042,424.825256 
	C666.978149,423.914185 664.494080,423.360748 663.719421,426.407715 
	C663.254150,428.237823 665.236511,429.376678 666.906799,429.242767 
	C669.050049,429.070923 671.364990,428.411865 669.256042,424.825256 
z"/>
<path fill="#000000" opacity="1.000000" stroke="none" 
	d="
M723.915222,426.076385 
	C723.771545,428.121094 723.573181,429.772156 723.452942,431.428864 
	C723.341064,432.969910 722.738892,434.042938 721.035583,433.909546 
	C719.422180,433.783234 718.810486,432.660980 718.736267,431.164917 
	C718.719788,430.832764 718.763367,430.487030 718.686157,430.170227 
	C718.197144,428.163177 719.929016,424.538239 716.403442,424.685516 
	C713.265442,424.816650 714.506348,428.332428 714.258911,430.461639 
	C714.052490,432.237366 713.867981,433.976532 711.592285,433.860687 
	C709.409119,433.749542 709.123962,431.965332 709.045166,430.227631 
	C708.992493,429.065979 708.849792,427.864441 709.068176,426.743164 
	C709.603882,423.991852 707.162842,419.668518 712.060852,419.054474 
	C720.476013,417.999573 722.356140,419.282074 723.915222,426.076385 
z"/>
<path fill="#000000" opacity="1.000000" stroke="none" 
	d="
M686.237671,425.146271 
	C683.498230,423.694458 682.656494,425.148315 682.403259,427.259216 
	C682.226135,428.735260 682.314758,430.241150 682.210327,431.728516 
	C682.116394,433.065826 681.414307,433.887817 679.988098,433.850677 
	C678.893555,433.822235 678.040100,433.322510 677.787720,432.215637 
	C676.927063,428.440826 676.922729,424.649994 677.787048,420.873779 
	C677.891357,420.418060 678.145508,419.917786 678.484863,419.607025 
	C681.495483,416.850494 690.851929,419.670837 691.739014,423.776428 
	C692.253967,426.159393 692.048340,428.713989 692.029358,431.190308 
	C692.018005,432.667755 691.247681,433.791107 689.635498,433.816223 
	C688.082825,433.840424 687.190002,432.860687 687.007385,431.366394 
	C686.767090,429.400543 686.643005,427.420471 686.237671,425.146271 
z"/>
<path fill="#000000" opacity="1.000000" stroke="none" 
	d="
M447.108643,419.367279 
	C449.722382,418.723694 451.957825,419.472351 454.320435,419.063660 
	C457.334961,418.542145 459.521027,420.448181 459.994202,423.434052 
	C460.405670,426.030212 460.194092,428.732361 460.172058,431.386932 
	C460.161194,432.696167 459.477448,433.640198 458.081207,433.714020 
	C456.346344,433.805725 455.998505,432.607239 455.678375,431.169525 
	C455.158447,428.834686 457.158783,424.659943 453.332397,424.650543 
	C449.582733,424.641357 451.577606,428.860352 450.909729,431.161621 
	C450.514191,432.524536 450.124359,433.792175 448.463409,433.834564 
	C446.859497,433.875519 445.874176,432.869720 445.937134,431.365417 
	C446.101379,427.441193 444.895844,423.408447 447.108643,419.367279 
z"/>
<path fill="#000000" opacity="1.000000" stroke="none" 
	d="
M521.102844,419.766541 
	C525.027710,422.837311 524.001953,426.884857 524.116882,430.605530 
	C524.166565,432.213165 523.505188,433.664490 521.625977,433.724792 
	C519.700928,433.786560 519.341675,432.295380 518.990540,430.731567 
	C518.501526,428.553589 520.277222,424.630646 516.796265,424.652466 
	C512.941711,424.676575 514.773315,428.746429 514.318787,431.092865 
	C514.050415,432.478607 513.911804,433.802490 512.118896,433.806763 
	C510.426331,433.810791 509.795135,432.670258 509.768616,431.198425 
	C509.711792,428.046997 509.723022,424.893494 509.765533,421.741638 
	C509.785431,420.265961 510.593018,418.641083 512.004211,419.083954 
	C514.953430,420.009521 517.948364,417.930359 521.102844,419.766541 
z"/>
<path fill="#000000" opacity="1.000000" stroke="none" 
	d="
M434.460785,426.773438 
	C433.592682,429.367249 436.054321,433.576965 432.061340,433.540649 
	C428.269135,433.506226 430.101746,429.418762 429.727417,427.065704 
	C429.496460,425.613892 429.687347,424.090332 429.732239,422.600281 
	C429.809052,420.051117 430.590790,418.298157 433.663239,419.284882 
	C434.126740,419.433746 434.675568,419.841522 435.033356,419.711761 
	C437.869049,418.683228 440.583954,418.358582 442.686798,421.056854 
	C445.065094,424.108398 444.080811,427.729004 444.134003,431.149170 
	C444.157135,432.635315 443.429413,433.771362 441.751526,433.682892 
	C440.020325,433.591583 439.717529,432.269653 439.673615,430.851013 
	C439.642914,429.857513 439.636383,428.863281 439.610535,427.869598 
	C439.575165,426.510895 439.471741,425.091553 437.988953,424.538269 
	C436.261688,423.893799 435.141449,424.748627 434.460785,426.773438 
z"/>
<path fill="#000000" opacity="1.000000" stroke="none" 
	d="
M640.092773,429.267212 
	C641.494690,429.067535 642.612610,429.067535 644.200684,429.067535 
	C642.996460,428.238678 642.051147,427.687897 641.222168,426.997498 
	C639.281433,425.381042 638.955078,423.326599 640.243408,421.244904 
	C641.627075,419.009277 643.875916,418.477234 646.329895,419.048004 
	C648.744446,419.609589 649.659729,420.940826 648.362793,423.390991 
	C647.531433,424.961700 649.321960,425.648193 649.797180,426.790894 
	C650.732666,429.040710 650.356873,431.093933 648.475952,432.598541 
	C646.222229,434.401398 643.623291,434.600159 641.011658,433.370636 
	C639.268555,432.550018 638.384460,431.329285 640.092773,429.267212 
z"/>
<path fill="#000000" opacity="1.000000" stroke="none" 
	d="
M608.775513,432.242065 
	C605.928284,434.978302 604.151306,433.957306 604.012634,430.849365 
	C603.740173,424.739075 603.904053,418.607147 603.972900,412.485138 
	C603.992920,410.712280 604.584778,409.067566 606.810059,409.244934 
	C608.698730,409.395538 609.144836,410.927887 609.137756,412.501251 
	C609.108582,418.948273 609.012939,425.394958 608.775513,432.242065 
z"/>
<path fill="#000000" opacity="1.000000" stroke="none" 
	d="
M497.510193,414.751160 
	C501.847687,420.398346 497.646515,425.986664 498.157990,431.464844 
	C498.277588,432.745636 497.513947,433.702576 496.123962,433.847961 
	C494.539154,434.013641 493.266724,433.157318 493.323273,431.695160 
	C493.517578,426.668091 490.928375,421.716675 493.270874,416.581818 
	C494.226593,414.486755 494.996185,413.468872 497.510193,414.751160 
z"/>
<path fill="#000000" opacity="1.000000" stroke="none" 
	d="
M478.896484,428.542603 
	C478.906464,422.440125 481.244781,419.278564 485.696289,418.927094 
	C487.651550,418.772675 489.554596,419.194366 489.998474,421.384979 
	C490.496094,423.840698 488.505585,423.870178 486.817474,424.059418 
	C485.260651,424.233978 483.606506,424.666443 483.665894,426.548553 
	C483.731140,428.616333 485.455811,429.194214 487.234619,429.203888 
	C488.904785,429.212952 490.397949,429.368317 490.089966,431.541382 
	C489.837280,433.324402 488.380707,434.019623 486.806549,433.993256 
	C483.211700,433.933105 480.370758,432.518372 478.896484,428.542603 
z"/>
<path fill="#000000" opacity="1.000000" stroke="none" 
	d="
M693.656250,424.937805 
	C693.692261,420.459595 693.711060,416.471649 693.778687,412.484528 
	C693.805176,410.919403 694.065613,409.315063 696.076050,409.291962 
	C698.164917,409.267944 698.298157,410.939087 698.303040,412.475769 
	C698.322571,418.623596 698.317078,424.771698 698.276794,430.919403 
	C698.268005,432.263092 698.163757,433.745483 696.330017,433.829163 
	C694.374512,433.918304 693.789368,432.583832 693.738708,430.910706 
	C693.683411,429.084137 693.682983,427.255920 693.656250,424.937805 
z"/>
<path fill="#000000" opacity="1.000000" stroke="none" 
	d="
M635.255310,424.397308 
	C632.853821,425.899017 633.495544,428.035645 633.330566,429.943939 
	C633.194885,431.514038 633.645996,433.639709 631.242615,433.698029 
	C628.616638,433.761749 628.780029,431.568756 628.714905,429.759888 
	C628.667542,428.443024 628.687073,427.123474 628.687805,425.805145 
	C628.691772,418.932648 630.174683,417.690338 636.687012,419.011292 
	C637.817017,419.240479 638.483582,419.812103 638.547607,420.937683 
	C638.663818,422.981750 637.418152,423.883270 635.255310,424.397308 
z"/>
<path fill="#000000" opacity="1.000000" stroke="none" 
	d="
M504.996490,419.258667 
	C507.243591,423.368988 506.038666,427.509094 506.207733,431.551270 
	C506.251160,432.589661 505.784363,433.489960 504.629669,433.742859 
	C503.576538,433.973480 502.699677,433.659027 502.076874,432.740845 
	C501.206818,431.458069 501.276093,420.850098 502.354309,419.697662 
	C502.807953,419.212738 503.837006,419.266144 504.996490,419.258667 
z"/>
<path fill="#000000" opacity="1.000000" stroke="none" 
	d="
M704.543213,419.047455 
	C708.000610,423.304840 706.159058,427.977051 705.962708,432.411072 
	C705.878906,434.303223 703.841797,434.275574 702.540955,433.012146 
	C700.617432,431.143921 701.858032,420.960388 704.543213,419.047455 
z"/>
<path fill="#000000" opacity="1.000000" stroke="none" 
	d="
M702.659180,412.145874 
	C705.274963,410.954132 706.536743,411.990143 706.596130,414.281128 
	C706.632568,415.686371 705.664246,417.045227 704.060669,416.638885 
	C701.835022,416.074982 701.311829,414.452179 702.659180,412.145874 
z"/>
<path fill="#000000" opacity="1.000000" stroke="none" 
	d="
M501.524323,414.761688 
	C501.557556,412.238098 502.454132,410.786011 504.817474,411.812164 
	C506.408661,412.503052 506.728821,414.152924 505.723358,415.542664 
	C504.260712,417.564209 502.772308,417.243744 501.524323,414.761688 
z"/>
</svg>