<svg version="1.1" id="Layer_1" xmlns="http://www.w3.org/2000/svg" xmlns:xlink="http://www.w3.org/1999/xlink" x="0px" y="0px"
	 width="100%" viewBox="0 0 1422 416" enable-background="new 0 0 1422 416" xml:space="preserve">
<path fill="#FEFFFF" opacity="1.000000" stroke="none" 
	d="
M1423.000000,251.000015 
	C1423.000000,306.327057 1423.000000,361.654114 1423.000000,416.985901 
	C949.060059,416.990601 475.120148,416.990601 1.090109,416.990601 
	C1.090109,278.409210 1.090109,139.818314 1.090109,1.113714 
	C474.999969,1.113714 949.000000,1.113714 1423.000000,1.112425 
	C1423.000000,81.102127 1423.000000,161.093109 1422.682129,241.333008 
	C1420.992065,231.518005 1415.583252,224.425690 1406.382568,220.300308 
	C1402.161865,218.407822 1397.838379,216.691345 1393.445923,215.246643 
	C1385.416382,212.605652 1377.223877,210.438568 1369.284302,207.563019 
	C1367.644043,206.968979 1365.711548,204.025925 1365.887939,202.376724 
	C1366.104004,200.356125 1368.070435,198.091385 1369.896484,196.811737 
	C1371.342407,195.798569 1373.715942,195.890259 1375.680908,195.873093 
	C1386.057739,195.782440 1395.588013,199.079422 1404.939819,203.205643 
	C1406.258667,203.787552 1409.101196,203.800720 1409.523804,203.076431 
	C1413.190186,196.793976 1416.464233,190.282654 1419.941895,183.674316 
	C1418.695312,182.905777 1417.887451,182.343399 1417.022583,181.889542 
	C1415.701782,181.196426 1414.367798,180.515686 1412.993896,179.937927 
	C1397.145996,173.273453 1380.725708,171.136978 1363.723267,173.844055 
	C1347.636841,176.405273 1331.969116,189.025864 1334.245972,209.100189 
	C1335.114624,216.757706 1338.078003,223.353943 1344.176880,227.796982 
	C1348.500610,230.946762 1353.667725,233.201782 1358.766357,234.966492 
	C1367.544556,238.004822 1376.573975,240.313141 1385.474487,243.005417 
	C1388.655762,243.967728 1391.472046,245.718414 1391.069824,249.500000 
	C1390.641724,253.525299 1388.264404,256.169128 1383.879272,256.094391 
	C1378.774048,256.007416 1373.474609,256.542480 1368.613525,255.356354 
	C1360.952637,253.487000 1353.557251,250.490005 1346.110229,247.801788 
	C1342.599487,246.534515 1339.822998,246.196472 1337.818359,250.281586 
	C1335.294678,255.423950 1332.348999,260.359192 1329.347290,265.817047 
	C1330.497681,266.567139 1331.920288,267.645325 1333.472534,268.483917 
	C1351.640625,278.299377 1371.032715,281.699097 1391.354614,278.495544 
	C1406.815796,276.058258 1418.480835,268.576355 1422.017456,251.999191 
	C1422.099731,251.613800 1422.661865,251.330795 1423.000000,251.000015 
M360.652802,277.436523 
	C371.518341,277.336945 382.383881,277.237366 393.924225,277.269897 
	C394.607635,277.237183 395.291016,277.204468 396.620300,277.215240 
	C396.761383,276.422516 397.025604,275.629883 397.025970,274.837097 
	C397.046997,229.173141 397.048126,183.509186 397.036774,137.845230 
	C397.036469,136.544312 396.880585,135.243408 396.741699,133.075470 
	C388.803436,133.075470 381.034515,133.019562 373.267029,133.100845 
	C369.784821,133.137268 366.250427,133.155746 362.854797,133.794250 
	C361.671478,134.016754 359.933502,136.113220 359.979095,137.294815 
	C360.395233,148.078339 361.425201,158.842041 361.689636,169.625916 
	C361.824280,175.115891 360.632660,180.627319 360.287048,186.144485 
	C360.092468,189.250534 360.205536,192.408142 360.527710,195.506363 
	C360.964569,199.707077 361.910980,203.859833 362.228119,208.064163 
	C362.300354,209.021759 360.876129,210.555298 359.800049,211.000473 
	C358.811127,211.409637 356.941467,211.137375 356.204559,210.410385 
	C354.615875,208.843140 353.521484,206.779556 352.196777,204.939255 
	C336.126740,182.614288 319.940704,160.371155 304.088593,137.892563 
	C301.497345,134.218124 298.591248,133.023743 294.526733,133.042023 
	C285.528503,133.082474 276.528168,132.927246 267.532410,133.077286 
	C265.001190,133.119507 262.483002,133.944351 260.305145,134.346298 
	C260.872284,150.201431 261.614136,165.286118 261.879456,180.379181 
	C262.051910,190.188324 261.326050,200.010437 261.363403,209.825363 
	C261.431885,227.809692 261.825806,245.792679 261.925079,263.777100 
	C261.939209,266.331848 260.993805,268.881500 260.618500,271.451904 
	C260.285461,273.733124 258.701721,276.667328 263.924713,277.223236 
	C273.797394,277.249481 283.670441,277.320984 293.542389,277.247375 
	C294.845093,277.237671 296.142273,276.487488 297.702545,275.299103 
	C297.702545,249.528381 297.702545,223.757645 297.702545,197.986923 
	C298.204132,197.707565 298.705688,197.428223 299.207275,197.148865 
	C302.133667,200.338150 305.289062,203.351501 307.915985,206.770859 
	C310.127167,209.649048 311.539703,213.127930 313.626862,216.116684 
	C319.906952,225.109497 326.251709,234.060486 332.742706,242.901886 
	C341.095184,254.278763 349.614014,265.533539 358.670105,277.015747 
	C359.091064,277.022919 359.511993,277.030090 360.652802,277.436523 
M516.936035,234.160797 
	C517.465881,233.353760 518.456177,232.540985 518.446228,231.740646 
	C518.402039,228.182861 518.071472,224.628647 517.899658,220.243118 
	C516.254456,213.516556 515.578186,206.350906 512.768982,200.151794 
	C506.248718,185.763107 494.335785,177.088516 479.061035,173.996338 
	C455.652679,169.257614 434.943573,177.108673 421.392853,196.499039 
	C416.594116,203.365723 412.158356,210.867706 412.437866,219.862885 
	C412.686249,227.857117 410.734711,236.049759 415.148438,243.669739 
	C417.919006,248.452927 419.255432,254.268646 422.676361,258.438995 
	C439.094391,278.453644 460.326874,283.620667 484.729797,276.681427 
	C494.197205,273.989258 502.763550,269.321136 509.920776,261.811523 
	C504.688843,257.028778 499.913666,252.437622 494.826721,248.222809 
	C493.916870,247.468933 491.497772,247.802582 490.148926,248.432999 
	C482.006592,252.238571 474.098633,256.023163 464.505219,254.065323 
	C453.528625,251.825256 445.652283,244.412155 445.620880,234.362457 
	C446.007355,234.283295 446.393799,234.204132 447.564362,234.434540 
	C468.792450,234.482330 490.020569,234.541412 511.248657,234.555603 
	C512.877136,234.556686 514.505920,234.241013 516.936035,234.160797 
M648.947510,277.161041 
	C659.610474,277.064178 670.273438,276.967346 681.667480,276.454224 
	C681.764648,274.633545 681.952026,272.812592 681.945557,270.992279 
	C681.854065,245.036621 681.687439,219.081131 681.641663,193.125427 
	C681.609680,174.979004 681.543640,156.828293 681.925415,138.688599 
	C682.018616,134.261871 680.310547,133.059235 676.590698,133.044250 
	C668.596924,133.012039 660.597168,132.845322 652.612854,133.116287 
	C650.377380,133.192139 648.187195,134.601807 646.086487,135.359802 
	C646.589905,137.425522 647.187988,138.689377 647.157288,139.937759 
	C646.839783,152.856491 645.912781,165.783096 646.176208,178.686661 
	C646.428223,191.028488 645.189697,203.309616 647.802979,215.803238 
	C649.607727,224.431564 648.421204,233.861847 646.554871,243.154114 
	C644.496216,253.404007 645.975159,264.371887 646.057983,275.025879 
	C646.062927,275.665833 647.349304,276.295807 648.947510,277.161041 
M633.320251,233.620956 
	C633.325378,233.440506 633.330566,233.260040 633.641235,232.321808 
	C632.722656,223.944397 632.977112,215.223984 630.648315,207.258881 
	C625.318420,189.029022 612.545166,177.809464 593.931335,173.994797 
	C573.789795,169.867020 556.471802,175.611404 541.761536,189.989685 
	C534.343628,197.240204 530.572144,206.495499 529.549133,216.049057 
	C528.474976,226.080124 526.235352,236.760010 531.894043,246.565582 
	C534.352661,250.826111 535.668945,255.965546 538.802612,259.579987 
	C554.965515,278.222565 575.395691,283.388672 598.886108,277.004059 
	C608.916260,274.277954 617.836609,269.370270 625.267517,261.867004 
	C620.859863,257.825684 616.645630,254.317078 612.865662,250.390457 
	C609.453552,246.846054 606.338074,246.701263 602.401855,249.472290 
	C591.851379,256.899567 580.824158,256.177643 570.042053,250.243668 
	C564.373352,247.123917 560.444336,242.331070 560.853882,234.579239 
	C563.036987,234.579239 564.829712,234.579224 566.622498,234.579239 
	C586.937256,234.579346 607.252075,234.594482 627.566772,234.553329 
	C629.348694,234.549728 631.129822,234.177185 633.320251,233.620956 
M1163.921509,277.236237 
	C1173.970093,277.236237 1184.018677,277.236237 1193.965820,277.236237 
	C1193.965820,252.741806 1193.965820,228.880936 1194.085205,204.197479 
	C1191.289429,184.518585 1179.851196,175.573288 1160.201050,173.172546 
	C1141.840576,170.929352 1124.620605,176.111496 1107.918213,183.177109 
	C1102.932007,185.286453 1102.174683,189.612839 1105.327393,194.557083 
	C1106.967896,197.129684 1109.046143,199.880692 1109.377319,202.731125 
	C1109.984985,207.961197 1112.193237,207.312653 1115.690674,205.708267 
	C1124.108887,201.846619 1132.900024,199.488541 1142.270752,199.933914 
	C1148.779297,200.243240 1154.655762,201.958298 1158.359375,207.868454 
	C1159.774902,210.127365 1160.846191,212.602020 1162.585083,215.966751 
	C1159.688110,216.699997 1157.134766,217.844788 1154.554443,217.909409 
	C1145.401245,218.138657 1136.233032,217.794495 1127.081055,218.048004 
	C1113.621460,218.420822 1101.670288,222.032043 1094.903564,235.080963 
	C1093.680786,237.438995 1093.630127,240.480362 1092.183594,242.631531 
	C1088.963257,247.420609 1088.917969,249.475693 1092.556152,253.901672 
	C1093.961548,255.611374 1095.345703,257.720917 1095.715942,259.828186 
	C1096.873413,266.415314 1100.288574,271.566254 1105.763550,274.871002 
	C1112.439819,278.900757 1119.955688,280.146759 1127.827026,279.438782 
	C1139.205688,278.415253 1148.922119,273.844391 1156.733154,266.533539 
	C1162.699219,267.766144 1162.813721,271.668365 1162.084595,276.031006 
	C1162.042358,276.283112 1162.692261,276.650909 1163.921509,277.236237 
M1084.763794,244.255692 
	C1082.501587,243.824448 1080.232910,243.001663 1077.978638,243.039703 
	C1072.505615,243.132095 1067.042236,243.840866 1061.569824,243.911682 
	C1049.747314,244.064697 1037.920410,244.065552 1026.097656,243.929520 
	C1022.187561,243.884537 1018.284607,243.229019 1014.027222,242.818802 
	C1014.027222,240.405289 1014.026978,238.604187 1014.027222,236.803085 
	C1014.031372,203.993607 1013.964539,171.183762 1014.134094,138.375137 
	C1014.154236,134.473297 1013.032898,132.946945 1009.184387,132.984131 
	C1000.693054,133.066193 992.197510,132.830536 983.708435,132.986206 
	C977.251465,133.104614 976.206116,134.298935 976.343750,140.621735 
	C976.871460,164.864471 977.742188,189.103912 977.923157,213.348770 
	C978.074890,233.668945 977.408020,253.994705 977.281799,274.319122 
	C977.276306,275.215576 979.046082,276.123077 980.905579,277.249207 
	C1015.492981,277.249207 1050.080322,277.249207 1084.970703,277.249207 
	C1084.970703,266.240509 1084.970703,255.633743 1084.763794,244.255692 
M1243.986694,275.145203 
	C1243.986694,272.208130 1243.986694,269.271057 1243.986694,264.700134 
	C1249.298340,268.438354 1253.468140,271.399445 1257.672119,274.311371 
	C1258.620728,274.968475 1259.654175,275.527985 1260.705566,276.007843 
	C1278.129150,283.959625 1299.848755,278.713501 1310.732056,262.906830 
	C1325.199585,241.894150 1325.704468,219.122910 1315.479736,196.438965 
	C1308.427490,180.793564 1295.628296,172.710648 1277.846436,172.649841 
	C1264.926025,172.605667 1255.942627,181.950684 1243.993774,184.932678 
	C1243.993774,168.154587 1243.993774,151.100540 1243.993774,133.262177 
	C1233.401611,133.262177 1223.293945,133.190399 1213.188110,133.301361 
	C1209.680298,133.339859 1209.722656,135.960953 1209.726318,138.637177 
	C1209.785889,183.466629 1209.779907,228.296173 1209.858398,273.125580 
	C1209.860596,274.376099 1210.636597,275.625275 1211.966553,277.071472 
	C1221.844482,277.150696 1231.722290,277.257507 1241.600220,277.253632 
	C1242.344238,277.253357 1243.088013,276.464386 1243.986694,275.145203 
M91.768745,132.368942 
	C75.696373,123.246773 59.624004,114.124603 42.632153,104.480568 
	C56.681065,95.777985 69.634491,87.753998 82.829384,79.580437 
	C77.658928,69.942551 72.714775,60.574783 67.620544,51.289360 
	C64.707779,45.980179 63.688992,45.893993 58.522163,49.173981 
	C53.526501,52.345310 48.446220,55.385586 43.363876,58.417664 
	C31.622036,65.422722 19.844902,72.368652 8.109182,79.383904 
	C5.420213,80.991287 3.948540,83.075661 4.114732,86.635437 
	C4.463777,94.111870 4.162600,101.616585 4.232808,109.108711 
	C4.296498,115.905197 2.331739,123.907021 5.253599,129.154434 
	C8.135511,134.330109 15.900582,136.935257 21.746044,140.278687 
	C31.352165,145.773087 41.138145,150.953018 50.975224,156.986816 
	C50.230099,158.152756 49.761845,159.804916 48.697807,160.410782 
	C35.354271,168.008804 21.980541,175.558945 8.475471,182.864258 
	C5.305880,184.578781 3.936143,186.452652 4.008988,190.162766 
	C4.247367,202.303696 4.409692,214.462967 3.974520,226.592697 
	C3.778457,232.057648 6.027845,235.368484 10.332980,237.761948 
	C23.182743,244.905853 36.087276,251.951233 48.864864,259.766266 
	C47.806553,261.060120 47.005264,262.804962 45.649818,263.577484 
	C33.299408,270.616577 20.884880,277.545563 8.410813,284.363525 
	C5.314428,286.055908 4.008869,288.105194 4.114156,291.800018 
	C4.403349,301.948608 4.251277,312.110901 4.190598,322.267273 
	C4.180911,323.888855 3.791049,325.517059 3.490319,327.126038 
	C2.949853,330.017731 2.343718,332.897156 1.490813,337.148499 
	C4.566965,335.850800 6.110093,335.376251 7.478638,334.595642 
	C24.247728,325.030304 40.962696,315.369812 57.751041,305.838562 
	C69.745438,299.028992 81.829399,292.377228 94.456192,286.147888 
	C98.092796,288.080750 101.744286,289.986176 105.363213,291.951569 
	C116.119926,297.793488 126.874596,303.639282 137.606216,309.527069 
	C140.831879,311.296844 141.221497,314.382233 138.393753,316.125092 
	C128.969025,321.933929 119.504173,327.678589 110.009384,333.372284 
	C106.356361,335.562836 105.971977,338.048492 108.435722,341.695435 
	C113.635529,349.392334 119.110901,356.968445 123.501793,365.117554 
	C125.547607,368.914368 126.961716,369.208527 130.195938,367.401031 
	C147.470184,357.746765 164.819580,348.225433 182.005402,338.417053 
	C183.573059,337.522369 185.043488,334.936401 185.073959,333.111053 
	C185.307251,319.133911 185.305954,305.147736 185.002716,291.172485 
	C184.959000,289.157410 183.399185,286.440826 181.702484,285.332642 
	C176.445267,281.898895 170.783661,279.084259 165.278656,276.029907 
	C156.173141,270.977844 147.067368,265.926331 138.055222,260.184082 
	C151.784012,252.188431 165.480804,244.136826 179.270370,236.247406 
	C181.826508,234.784988 183.078613,233.261154 183.033371,230.092072 
	C182.836563,216.304565 182.856888,202.511581 183.019867,188.723190 
	C183.056442,185.628189 182.019531,183.949448 179.308365,182.521545 
	C172.865082,179.128036 166.564972,175.455032 160.279877,171.770706 
	C152.069702,166.957901 143.929825,162.025208 136.207611,156.580353 
	C150.321167,148.431778 164.386597,140.197739 178.584320,132.198563 
	C181.870193,130.347275 183.181320,128.258606 183.080872,124.365250 
	C182.780411,112.721077 182.982986,101.064163 182.961868,89.412277 
	C182.958710,87.673187 182.808685,85.934372 182.683624,83.285164 
	C180.809967,84.275352 179.710266,84.807999 178.657135,85.420692 
	C169.392059,90.810966 160.161804,96.261642 150.869583,101.604622 
	C138.001480,109.003708 125.183571,116.499031 112.154518,123.605446 
	C105.725296,127.112114 98.870827,129.839127 91.768745,132.368942 
M846.644104,276.788605 
	C852.184265,268.063354 857.724426,259.338135 863.512390,250.222641 
	C866.407776,253.249451 869.173645,255.510864 871.142395,258.329132 
	C875.340271,264.338257 879.124634,270.636200 883.869995,277.040131 
	C895.745667,277.144897 907.621338,277.266968 919.497192,277.295898 
	C920.010742,277.297150 920.526367,276.441528 920.773132,275.360138 
	C909.674744,259.872467 898.634827,244.342224 887.421143,228.938492 
	C885.519897,226.326874 885.601868,224.513367 887.464905,221.942871 
	C896.748535,209.133636 905.850952,196.192917 914.999817,183.286179 
	C916.778992,180.776199 918.481201,178.211624 920.606750,175.105469 
	C908.086487,175.105469 896.477783,175.065933 884.870483,175.178833 
	C883.919739,175.188065 882.666382,176.016312 882.089905,176.839554 
	C879.991638,179.836136 878.255432,183.087845 876.134827,186.066910 
	C872.603638,191.027527 871.390564,198.092194 863.518860,199.503754 
	C859.496521,193.152664 854.802734,186.677185 851.158386,179.656891 
	C848.742981,175.004028 845.146240,174.351196 840.952698,174.377548 
	C821.808289,174.497849 802.664795,174.752304 783.520813,174.949463 
	C780.691223,174.978607 777.861023,174.965591 775.031128,174.960526 
	C772.324463,174.955704 771.197754,175.875839 770.718750,178.974564 
	C769.928284,184.088898 768.190857,189.088058 766.540039,194.031448 
	C763.538452,203.019974 759.436829,211.747742 757.491211,220.943344 
	C756.277771,226.678757 755.407715,231.406097 749.103821,233.704483 
	C742.759766,215.967392 736.204346,198.227295 730.146851,180.318771 
	C728.486938,175.411606 725.710754,173.887955 721.029846,174.150665 
	C714.559937,174.513824 708.073547,174.610458 701.610352,175.055115 
	C698.874268,175.243347 696.179199,176.026047 693.465515,176.538544 
	C694.219177,178.551147 694.975037,180.562943 695.726196,182.576477 
	C698.630981,190.362381 701.432861,198.188568 704.464539,205.924713 
	C707.989746,214.920319 711.672913,223.855072 715.376160,232.779465 
	C716.847168,236.324402 718.577698,239.760895 720.151184,243.264252 
	C722.192993,247.810287 724.959839,252.202316 726.030334,256.971375 
	C727.507019,263.549835 730.200867,269.343079 733.643066,275.010132 
	C735.869568,278.675690 737.415405,282.787872 733.644470,286.531494 
	C728.932312,291.209412 723.603455,294.920532 716.529175,293.899414 
	C711.453674,293.166870 706.443298,291.919403 701.448364,290.716980 
	C698.458801,289.997345 697.031738,290.641785 696.099731,293.896301 
	C694.760559,298.572723 692.730408,303.077942 690.698364,307.520447 
	C689.205322,310.784637 690.104492,313.851196 693.478882,314.976349 
	C696.469055,315.973389 699.488892,316.901611 702.537964,317.698730 
	C732.824158,325.616425 753.820435,315.619385 764.839111,287.482513 
	C775.883484,259.279968 786.441467,230.887039 797.244141,202.589584 
	C800.530640,193.980499 803.921692,185.411301 807.570374,176.039261 
	C812.151184,182.915298 818.276184,186.764267 821.816956,193.950851 
	C826.656738,203.774033 835.132019,211.752258 841.405457,220.959763 
	C843.021667,223.331879 843.407410,227.846878 842.279785,230.491180 
	C840.390259,234.922623 836.845276,238.652313 833.971619,242.659164 
	C825.995605,253.780350 818.006653,264.892212 810.358765,276.821228 
	C822.236572,276.876984 834.114441,276.932739 846.644104,276.788605 
z"/>
<path fill="#507DC5" opacity="1.000000" stroke="none" 
	d="
M1423.000000,250.550034 
	C1422.661865,251.330795 1422.099731,251.613800 1422.017456,251.999191 
	C1418.480835,268.576355 1406.815796,276.058258 1391.354614,278.495544 
	C1371.032715,281.699097 1351.640625,278.299377 1333.472534,268.483917 
	C1331.920288,267.645325 1330.497681,266.567139 1329.347290,265.817047 
	C1332.348999,260.359192 1335.294678,255.423950 1337.818359,250.281586 
	C1339.822998,246.196472 1342.599487,246.534515 1346.110229,247.801788 
	C1353.557251,250.490005 1360.952637,253.487000 1368.613525,255.356354 
	C1373.474609,256.542480 1378.774048,256.007416 1383.879272,256.094391 
	C1388.264404,256.169128 1390.641724,253.525299 1391.069824,249.500000 
	C1391.472046,245.718414 1388.655762,243.967728 1385.474487,243.005417 
	C1376.573975,240.313141 1367.544556,238.004822 1358.766357,234.966492 
	C1353.667725,233.201782 1348.500610,230.946762 1344.176880,227.796982 
	C1338.078003,223.353943 1335.114624,216.757706 1334.245972,209.100189 
	C1331.969116,189.025864 1347.636841,176.405273 1363.723267,173.844055 
	C1380.725708,171.136978 1397.145996,173.273453 1412.993896,179.937927 
	C1414.367798,180.515686 1415.701782,181.196426 1417.022583,181.889542 
	C1417.887451,182.343399 1418.695312,182.905777 1419.941895,183.674316 
	C1416.464233,190.282654 1413.190186,196.793976 1409.523804,203.076431 
	C1409.101196,203.800720 1406.258667,203.787552 1404.939819,203.205643 
	C1395.588013,199.079422 1386.057739,195.782440 1375.680908,195.873093 
	C1373.715942,195.890259 1371.342407,195.798569 1369.896484,196.811737 
	C1368.070435,198.091385 1366.104004,200.356125 1365.887939,202.376724 
	C1365.711548,204.025925 1367.644043,206.968979 1369.284302,207.563019 
	C1377.223877,210.438568 1385.416382,212.605652 1393.445923,215.246643 
	C1397.838379,216.691345 1402.161865,218.407822 1406.382568,220.300308 
	C1415.583252,224.425690 1420.992065,231.518005 1422.682129,241.790955 
	C1423.000000,244.700012 1423.000000,247.400024 1423.000000,250.550034 
z"/>
<path fill="#517EC5" opacity="1.000000" stroke="none" 
	d="
M810.022827,276.007751 
	C818.006653,264.892212 825.995605,253.780350 833.971619,242.659164 
	C836.845276,238.652313 840.390259,234.922623 842.279785,230.491180 
	C843.407410,227.846878 843.021667,223.331879 841.405457,220.959763 
	C835.132019,211.752258 826.656738,203.774033 821.816956,193.950851 
	C818.276184,186.764267 812.151184,182.915298 807.570374,176.039261 
	C803.921692,185.411301 800.530640,193.980499 797.244141,202.589584 
	C786.441467,230.887039 775.883484,259.279968 764.839111,287.482513 
	C753.820435,315.619385 732.824158,325.616425 702.537964,317.698730 
	C699.488892,316.901611 696.469055,315.973389 693.478882,314.976349 
	C690.104492,313.851196 689.205322,310.784637 690.698364,307.520447 
	C692.730408,303.077942 694.760559,298.572723 696.099731,293.896301 
	C697.031738,290.641785 698.458801,289.997345 701.448364,290.716980 
	C706.443298,291.919403 711.453674,293.166870 716.529175,293.899414 
	C723.603455,294.920532 728.932312,291.209412 733.644470,286.531494 
	C737.415405,282.787872 735.869568,278.675690 733.643066,275.010132 
	C730.200867,269.343079 727.507019,263.549835 726.030334,256.971375 
	C724.959839,252.202316 722.192993,247.810287 720.151184,243.264252 
	C718.577698,239.760895 716.847168,236.324402 715.376160,232.779465 
	C711.672913,223.855072 707.989746,214.920319 704.464539,205.924713 
	C701.432861,198.188568 698.630981,190.362381 695.726196,182.576477 
	C694.975037,180.562943 694.219177,178.551147 693.465454,176.538559 
	C696.179199,176.026047 698.874268,175.243347 701.610352,175.055115 
	C708.073547,174.610458 714.559937,174.513824 721.029846,174.150665 
	C725.710754,173.887955 728.486938,175.411606 730.146851,180.318771 
	C736.204346,198.227295 742.759766,215.967392 749.103821,233.704483 
	C755.407715,231.406097 756.277771,226.678757 757.491211,220.943344 
	C759.436829,211.747742 763.538452,203.019974 766.540039,194.031448 
	C768.190857,189.088058 769.928284,184.088898 770.718750,178.974564 
	C771.197754,175.875839 772.324463,174.955704 775.031128,174.960526 
	C777.861023,174.965591 780.691223,174.978607 783.520813,174.949463 
	C802.664795,174.752304 821.808289,174.497849 840.952698,174.377548 
	C845.146240,174.351196 848.742981,175.004028 851.158386,179.656891 
	C854.802734,186.677185 859.496521,193.152664 863.518860,199.503754 
	C871.390564,198.092194 872.603638,191.027527 876.134827,186.066910 
	C878.255432,183.087845 879.991638,179.836136 882.089905,176.839554 
	C882.666382,176.016312 883.919739,175.188065 884.870483,175.178833 
	C896.477783,175.065933 908.086487,175.105469 920.606750,175.105469 
	C918.481201,178.211624 916.778992,180.776199 914.999817,183.286179 
	C905.850952,196.192917 896.748535,209.133636 887.464905,221.942871 
	C885.601868,224.513367 885.519897,226.326874 887.421143,228.938492 
	C898.634827,244.342224 909.674744,259.872467 920.435547,275.681213 
	C910.330811,276.001129 900.563110,275.944397 890.796875,276.036224 
	C888.221863,276.060425 885.651184,276.543457 883.078491,276.815796 
	C879.124634,270.636200 875.340271,264.338257 871.142395,258.329132 
	C869.173645,255.510864 866.407776,253.249451 863.512390,250.222641 
	C857.724426,259.338135 852.184265,268.063354 846.040283,276.575134 
	C833.631897,276.243713 821.827332,276.125763 810.022827,276.007751 
z"/>
<path fill="#517EC5" opacity="1.000000" stroke="none" 
	d="
M358.061157,276.840912 
	C349.614014,265.533539 341.095184,254.278763 332.742706,242.901886 
	C326.251709,234.060486 319.906952,225.109497 313.626862,216.116684 
	C311.539703,213.127930 310.127167,209.649048 307.915985,206.770859 
	C305.289062,203.351501 302.133667,200.338150 299.207275,197.148865 
	C298.705688,197.428223 298.204132,197.707565 297.702545,197.986923 
	C297.702545,223.757645 297.702545,249.528381 297.071594,275.656189 
	C287.018555,276.009216 277.596039,275.957672 268.174774,276.044281 
	C266.454590,276.060089 264.739563,276.639221 263.022156,276.958313 
	C258.701721,276.667328 260.285461,273.733124 260.618500,271.451904 
	C260.993805,268.881500 261.939209,266.331848 261.925079,263.777100 
	C261.825806,245.792679 261.431885,227.809692 261.363403,209.825363 
	C261.326050,200.010437 262.051910,190.188324 261.879456,180.379181 
	C261.614136,165.286118 260.872284,150.201431 260.305145,134.346298 
	C262.483002,133.944351 265.001190,133.119507 267.532410,133.077286 
	C276.528168,132.927246 285.528503,133.082474 294.526733,133.042023 
	C298.591248,133.023743 301.497345,134.218124 304.088593,137.892563 
	C319.940704,160.371155 336.126740,182.614288 352.196777,204.939255 
	C353.521484,206.779556 354.615875,208.843140 356.204559,210.410385 
	C356.941467,211.137375 358.811127,211.409637 359.800049,211.000473 
	C360.876129,210.555298 362.300354,209.021759 362.228119,208.064163 
	C361.910980,203.859833 360.964569,199.707077 360.527710,195.506363 
	C360.205536,192.408142 360.092468,189.250534 360.287048,186.144485 
	C360.632660,180.627319 361.824280,175.115891 361.689636,169.625916 
	C361.425201,158.842041 360.395233,148.078339 359.979095,137.294815 
	C359.933502,136.113220 361.671478,134.016754 362.854797,133.794250 
	C366.250427,133.155746 369.784821,133.137268 373.267029,133.100845 
	C381.034515,133.019562 388.803436,133.075470 396.741699,133.075470 
	C396.880585,135.243408 397.036469,136.544312 397.036774,137.845230 
	C397.048126,183.509186 397.046997,229.173141 397.025970,274.837097 
	C397.025604,275.629883 396.761383,276.422516 396.064941,276.837891 
	C385.100677,276.307465 374.692108,276.104614 364.282654,276.043396 
	C362.210449,276.031189 360.135071,276.561035 358.061157,276.840912 
z"/>
<path fill="#507DC4" opacity="1.000000" stroke="none" 
	d="
M135.759705,157.144104 
	C143.929825,162.025208 152.069702,166.957901 160.279877,171.770706 
	C166.564972,175.455032 172.865082,179.128036 179.308365,182.521545 
	C182.019531,183.949448 183.056442,185.628189 183.019867,188.723190 
	C182.856888,202.511581 182.836563,216.304565 183.033371,230.092072 
	C183.078613,233.261154 181.826508,234.784988 179.270370,236.247406 
	C165.480804,244.136826 151.784012,252.188431 137.637939,260.531830 
	C122.771553,269.138062 108.322472,277.396545 93.873383,285.655029 
	C81.829399,292.377228 69.745438,299.028992 57.751041,305.838562 
	C40.962696,315.369812 24.247728,325.030304 7.478638,334.595642 
	C6.110093,335.376251 4.566965,335.850800 1.490813,337.148499 
	C2.343718,332.897156 2.949853,330.017731 3.490319,327.126038 
	C3.791049,325.517059 4.180911,323.888855 4.190598,322.267273 
	C4.251277,312.110901 4.403349,301.948608 4.114156,291.800018 
	C4.008869,288.105194 5.314428,286.055908 8.410813,284.363525 
	C20.884880,277.545563 33.299408,270.616577 45.649818,263.577484 
	C47.005264,262.804962 47.806553,261.060120 49.249462,259.281860 
	C57.281841,254.583450 64.982155,250.461319 72.561081,246.126953 
	C78.810974,242.552643 84.917152,238.727005 91.481415,234.985703 
	C94.898140,234.161148 98.194252,233.886597 100.894104,232.473145 
	C111.095261,227.132507 121.114433,221.442917 131.176010,215.837784 
	C134.363953,214.061829 137.471649,212.141815 141.897614,209.532089 
	C124.718399,199.821365 108.884621,190.871170 93.238014,181.644684 
	C107.536690,173.293640 121.648201,165.218872 135.759705,157.144104 
z"/>
<path fill="#80D4D3" opacity="1.000000" stroke="none" 
	d="
M91.087021,235.012756 
	C84.917152,238.727005 78.810974,242.552643 72.561081,246.126953 
	C64.982155,250.461319 57.281841,254.583450 49.302238,258.916260 
	C36.087276,251.951233 23.182743,244.905853 10.332980,237.761948 
	C6.027845,235.368484 3.778457,232.057648 3.974520,226.592697 
	C4.409692,214.462967 4.247367,202.303696 4.008988,190.162766 
	C3.936143,186.452652 5.305880,184.578781 8.475471,182.864258 
	C21.980541,175.558945 35.354271,168.008804 48.697807,160.410782 
	C49.761845,159.804916 50.230099,158.152756 51.229691,156.439972 
	C65.059029,148.235046 78.633896,140.576981 92.208771,132.918915 
	C98.870827,129.839127 105.725296,127.112114 112.154518,123.605446 
	C125.183571,116.499031 138.001480,109.003708 150.869583,101.604622 
	C160.161804,96.261642 169.392059,90.810966 178.657135,85.420692 
	C179.710266,84.807999 180.809967,84.275352 182.683624,83.285164 
	C182.808685,85.934372 182.958710,87.673187 182.961868,89.412277 
	C182.982986,101.064163 182.780411,112.721077 183.080872,124.365250 
	C183.181320,128.258606 181.870193,130.347275 178.584320,132.198563 
	C164.386597,140.197739 150.321167,148.431778 135.983658,156.862228 
	C121.648201,165.218872 107.536690,173.293640 92.882462,181.710419 
	C77.145798,190.752533 61.951847,199.452621 45.557621,208.839996 
	C61.520344,218.016220 76.303680,226.514481 91.087021,235.012756 
z"/>
<path fill="#507DC4" opacity="1.000000" stroke="none" 
	d="
M1211.051880,276.875061 
	C1210.636597,275.625275 1209.860596,274.376099 1209.858398,273.125580 
	C1209.779907,228.296173 1209.785889,183.466629 1209.726318,138.637177 
	C1209.722656,135.960953 1209.680298,133.339859 1213.188110,133.301361 
	C1223.293945,133.190399 1233.401611,133.262177 1243.993774,133.262177 
	C1243.993774,151.100540 1243.993774,168.154587 1243.993774,184.932678 
	C1255.942627,181.950684 1264.926025,172.605667 1277.846436,172.649841 
	C1295.628296,172.710648 1308.427490,180.793564 1315.479736,196.438965 
	C1325.704468,219.122910 1325.199585,241.894150 1310.732056,262.906830 
	C1299.848755,278.713501 1278.129150,283.959625 1260.705566,276.007843 
	C1259.654175,275.527985 1258.620728,274.968475 1257.672119,274.311371 
	C1253.468140,271.399445 1249.298340,268.438354 1243.986694,264.700134 
	C1243.986694,269.271057 1243.986694,272.208130 1243.452393,275.576538 
	C1235.836060,276.005280 1228.752319,275.909088 1221.672729,276.039459 
	C1218.128540,276.104706 1214.591919,276.583344 1211.051880,276.875061 
M1276.830322,246.437500 
	C1282.439819,243.482986 1285.958496,238.523636 1287.604370,232.790222 
	C1291.606201,218.851044 1282.757324,206.024658 1268.128540,203.058334 
	C1259.216187,201.251175 1251.701172,204.135452 1245.932739,211.225113 
	C1245.124146,212.219009 1244.194214,213.507660 1244.166870,214.679626 
	C1243.995972,222.002396 1243.986328,229.332413 1244.136963,236.655609 
	C1244.160767,237.818085 1245.111206,239.077011 1245.893677,240.090179 
	C1252.506958,248.653061 1262.368530,252.741272 1276.830322,246.437500 
z"/>
<path fill="#517EC5" opacity="1.000000" stroke="none" 
	d="
M979.988892,277.025452 
	C979.046082,276.123077 977.276306,275.215576 977.281799,274.319122 
	C977.408020,253.994705 978.074890,233.668945 977.923157,213.348770 
	C977.742188,189.103912 976.871460,164.864471 976.343750,140.621735 
	C976.206116,134.298935 977.251465,133.104614 983.708435,132.986206 
	C992.197510,132.830536 1000.693054,133.066193 1009.184387,132.984131 
	C1013.032898,132.946945 1014.154236,134.473297 1014.134094,138.375137 
	C1013.964539,171.183762 1014.031372,203.993607 1014.027222,236.803085 
	C1014.026978,238.604187 1014.027222,240.405289 1014.027222,242.818802 
	C1018.284607,243.229019 1022.187561,243.884537 1026.097656,243.929520 
	C1037.920410,244.065552 1049.747314,244.064697 1061.569824,243.911682 
	C1067.042236,243.840866 1072.505615,243.132095 1077.978638,243.039703 
	C1080.232910,243.001663 1082.501587,243.824448 1084.578491,244.937714 
	C1084.271729,253.926102 1083.874512,262.241302 1084.139893,270.535278 
	C1084.282104,274.977081 1082.955078,276.128815 1078.551392,276.101624 
	C1047.583862,275.910248 1016.614380,275.982117 985.645752,276.043823 
	C983.759460,276.047577 981.874512,276.683594 979.988892,277.025452 
z"/>
<path fill="#517DC5" opacity="1.000000" stroke="none" 
	d="
M1163.020142,276.964905 
	C1162.692261,276.650909 1162.042358,276.283112 1162.084595,276.031006 
	C1162.813721,271.668365 1162.699219,267.766144 1156.733154,266.533539 
	C1148.922119,273.844391 1139.205688,278.415253 1127.827026,279.438782 
	C1119.955688,280.146759 1112.439819,278.900757 1105.763550,274.871002 
	C1100.288574,271.566254 1096.873413,266.415314 1095.715942,259.828186 
	C1095.345703,257.720917 1093.961548,255.611374 1092.556152,253.901672 
	C1088.917969,249.475693 1088.963257,247.420609 1092.183594,242.631531 
	C1093.630127,240.480362 1093.680786,237.438995 1094.903564,235.080963 
	C1101.670288,222.032043 1113.621460,218.420822 1127.081055,218.048004 
	C1136.233032,217.794495 1145.401245,218.138657 1154.554443,217.909409 
	C1157.134766,217.844788 1159.688110,216.699997 1162.585083,215.966751 
	C1160.846191,212.602020 1159.774902,210.127365 1158.359375,207.868454 
	C1154.655762,201.958298 1148.779297,200.243240 1142.270752,199.933914 
	C1132.900024,199.488541 1124.108887,201.846619 1115.690674,205.708267 
	C1112.193237,207.312653 1109.984985,207.961197 1109.377319,202.731125 
	C1109.046143,199.880692 1106.967896,197.129684 1105.327393,194.557083 
	C1102.174683,189.612839 1102.932007,185.286453 1107.918213,183.177109 
	C1124.620605,176.111496 1141.840576,170.929352 1160.201050,173.172546 
	C1179.851196,175.573288 1191.289429,184.518585 1193.725342,204.897491 
	C1193.248657,207.242477 1193.031616,208.887329 1193.029785,210.532410 
	C1193.007446,230.330963 1193.024536,250.129578 1193.006348,269.928162 
	C1193.004517,271.843353 1192.837280,273.758453 1192.731323,276.000000 
	C1185.308594,276.000000 1178.502075,275.906616 1171.700195,276.043976 
	C1168.801880,276.102478 1165.913208,276.643280 1163.020142,276.964905 
M1144.423096,258.910187 
	C1145.254150,258.897461 1146.092529,258.951630 1146.915161,258.861816 
	C1156.534546,257.811920 1161.768921,255.249451 1160.956665,244.049591 
	C1160.688232,240.348541 1160.914429,236.611618 1160.914429,231.769684 
	C1151.540527,229.516098 1141.135620,228.813004 1131.075928,233.265366 
	C1126.442871,235.315964 1124.400879,242.249039 1125.900635,247.162720 
	C1128.606201,256.026917 1132.849365,258.858521 1144.423096,258.910187 
z"/>
<path fill="#517EC5" opacity="1.000000" stroke="none" 
	d="
M632.911316,233.976013 
	C631.129822,234.177185 629.348694,234.549728 627.566772,234.553329 
	C607.252075,234.594482 586.937256,234.579346 566.622498,234.579239 
	C564.829712,234.579224 563.036987,234.579239 560.853882,234.579239 
	C560.444336,242.331070 564.373352,247.123917 570.042053,250.243668 
	C580.824158,256.177643 591.851379,256.899567 602.401855,249.472290 
	C606.338074,246.701263 609.453552,246.846054 612.865662,250.390457 
	C616.645630,254.317078 620.859863,257.825684 625.267517,261.867004 
	C617.836609,269.370270 608.916260,274.277954 598.886108,277.004059 
	C575.395691,283.388672 554.965515,278.222565 538.802612,259.579987 
	C535.668945,255.965546 534.352661,250.826111 531.894043,246.565582 
	C526.235352,236.760010 528.474976,226.080124 529.549133,216.049057 
	C530.572144,206.495499 534.343628,197.240204 541.761536,189.989685 
	C556.471802,175.611404 573.789795,169.867020 593.931335,173.994797 
	C612.545166,177.809464 625.318420,189.029022 630.648315,207.258881 
	C632.977112,215.223984 632.722656,223.944397 632.996948,232.664886 
	C608.970520,233.007950 585.588318,233.007950 562.206116,233.007950 
	C562.207275,233.330643 562.208435,233.653336 562.209595,233.976028 
	C585.776855,233.976028 609.344055,233.976028 632.911316,233.976013 
M563.846558,206.508591 
	C562.612793,209.955139 561.378967,213.401703 560.124939,216.904587 
	C571.692505,220.210785 598.856262,219.607315 602.863892,216.317688 
	C599.295593,208.836227 597.113770,200.305969 587.237610,198.059845 
	C577.844177,195.923538 570.153198,198.115295 563.846558,206.508591 
z"/>
<path fill="#517DC5" opacity="1.000000" stroke="none" 
	d="
M445.043518,234.498505 
	C445.652283,244.412155 453.528625,251.825256 464.505219,254.065323 
	C474.098633,256.023163 482.006592,252.238571 490.148926,248.432999 
	C491.497772,247.802582 493.916870,247.468933 494.826721,248.222809 
	C499.913666,252.437622 504.688843,257.028778 509.920776,261.811523 
	C502.763550,269.321136 494.197205,273.989258 484.729797,276.681427 
	C460.326874,283.620667 439.094391,278.453644 422.676361,258.438995 
	C419.255432,254.268646 417.919006,248.452927 415.148438,243.669739 
	C410.734711,236.049759 412.686249,227.857117 412.437866,219.862885 
	C412.158356,210.867706 416.594116,203.365723 421.392853,196.499039 
	C434.943573,177.108673 455.652679,169.257614 479.061035,173.996338 
	C494.335785,177.088516 506.248718,185.763107 512.768982,200.151794 
	C515.578186,206.350906 516.254456,213.516556 517.614380,220.970245 
	C517.120789,225.277039 516.912476,228.856689 516.671570,232.995834 
	C514.570129,232.995834 512.793274,232.995834 511.016449,232.995834 
	C490.792267,232.995850 470.567932,232.958542 450.344269,233.061157 
	C448.574951,233.070114 446.810333,233.997635 445.043518,234.498505 
M457.597443,198.848236 
	C449.827301,202.485306 446.081573,208.801285 444.872650,217.897995 
	C449.425934,218.176376 453.499176,218.540405 457.579102,218.645721 
	C462.687256,218.777542 467.804504,218.819260 472.911072,218.669296 
	C477.020142,218.548645 481.153137,218.289169 485.196228,217.615448 
	C486.091003,217.466354 487.447296,215.130753 487.213013,214.121994 
	C486.593048,211.452515 485.834290,208.363586 484.034821,206.499557 
	C477.025452,199.238846 468.835144,194.870132 457.597443,198.848236 
z"/>
<path fill="#80D4D3" opacity="1.000000" stroke="none" 
	d="
M94.164787,285.901459 
	C108.322472,277.396545 122.771553,269.138062 137.591171,260.877075 
	C147.067368,265.926331 156.173141,270.977844 165.278656,276.029907 
	C170.783661,279.084259 176.445267,281.898895 181.702484,285.332642 
	C183.399185,286.440826 184.959000,289.157410 185.002716,291.172485 
	C185.305954,305.147736 185.307251,319.133911 185.073959,333.111053 
	C185.043488,334.936401 183.573059,337.522369 182.005402,338.417053 
	C164.819580,348.225433 147.470184,357.746765 130.195938,367.401031 
	C126.961716,369.208527 125.547607,368.914368 123.501793,365.117554 
	C119.110901,356.968445 113.635529,349.392334 108.435722,341.695435 
	C105.971977,338.048492 106.356361,335.562836 110.009384,333.372284 
	C119.504173,327.678589 128.969025,321.933929 138.393753,316.125092 
	C141.221497,314.382233 140.831879,311.296844 137.606216,309.527069 
	C126.874596,303.639282 116.119926,297.793488 105.363213,291.951569 
	C101.744286,289.986176 98.092796,288.080750 94.164787,285.901459 
z"/>
<path fill="#517DC5" opacity="1.000000" stroke="none" 
	d="
M91.988754,132.643921 
	C78.633896,140.576981 65.059029,148.235046 51.166222,156.079315 
	C41.138145,150.953018 31.352165,145.773087 21.746044,140.278687 
	C15.900582,136.935257 8.135511,134.330109 5.253599,129.154434 
	C2.331739,123.907021 4.296498,115.905197 4.232808,109.108711 
	C4.162600,101.616585 4.463777,94.111870 4.114732,86.635437 
	C3.948540,83.075661 5.420213,80.991287 8.109182,79.383904 
	C19.844902,72.368652 31.622036,65.422722 43.363876,58.417664 
	C48.446220,55.385586 53.526501,52.345310 58.522163,49.173981 
	C63.688992,45.893993 64.707779,45.980179 67.620544,51.289360 
	C72.714775,60.574783 77.658928,69.942551 82.829384,79.580437 
	C69.634491,87.753998 56.681065,95.777985 42.632153,104.480568 
	C59.624004,114.124603 75.696373,123.246773 91.988754,132.643921 
z"/>
<path fill="#537FC5" opacity="1.000000" stroke="none" 
	d="
M648.039368,276.930450 
	C647.349304,276.295807 646.062927,275.665833 646.057983,275.025879 
	C645.975159,264.371887 644.496216,253.404007 646.554871,243.154114 
	C648.421204,233.861847 649.607727,224.431564 647.802979,215.803238 
	C645.189697,203.309616 646.428223,191.028488 646.176208,178.686661 
	C645.912781,165.783096 646.839783,152.856491 647.157288,139.937759 
	C647.187988,138.689377 646.589905,137.425522 646.086487,135.359802 
	C648.187195,134.601807 650.377380,133.192139 652.612854,133.116287 
	C660.597168,132.845322 668.596924,133.012039 676.590698,133.044250 
	C680.310547,133.059235 682.018616,134.261871 681.925415,138.688599 
	C681.543640,156.828293 681.609680,174.979004 681.641663,193.125427 
	C681.687439,219.081131 681.854065,245.036621 681.945557,270.992279 
	C681.952026,272.812592 681.764648,274.633545 681.002502,276.381256 
	C671.948059,276.205933 663.558472,276.030396 655.169250,276.047821 
	C652.791992,276.052765 650.415955,276.620697 648.039368,276.930450 
z"/>
<path fill="#216BBF" opacity="1.000000" stroke="none" 
	d="
M980.447266,277.137329 
	C981.874512,276.683594 983.759460,276.047577 985.645752,276.043823 
	C1016.614380,275.982117 1047.583862,275.910248 1078.551392,276.101624 
	C1082.955078,276.128815 1084.282104,274.977081 1084.139893,270.535278 
	C1083.874512,262.241302 1084.271729,253.926102 1084.681885,245.323349 
	C1084.970703,255.633743 1084.970703,266.240509 1084.970703,277.249207 
	C1050.080322,277.249207 1015.492981,277.249207 980.447266,277.137329 
z"/>
<path fill="#216BBF" opacity="1.000000" stroke="none" 
	d="
M1163.470825,277.100586 
	C1165.913208,276.643280 1168.801880,276.102478 1171.700195,276.043976 
	C1178.502075,275.906616 1185.308594,276.000000 1192.731323,276.000000 
	C1192.837280,273.758453 1193.004517,271.843353 1193.006348,269.928162 
	C1193.024536,250.129578 1193.007446,230.330963 1193.029785,210.532410 
	C1193.031616,208.887329 1193.248657,207.242477 1193.665771,205.308777 
	C1193.965820,228.880936 1193.965820,252.741806 1193.965820,277.236237 
	C1184.018677,277.236237 1173.970093,277.236237 1163.470825,277.100586 
z"/>
<path fill="#216BBF" opacity="1.000000" stroke="none" 
	d="
M445.332214,234.430481 
	C446.810333,233.997635 448.574951,233.070114 450.344269,233.061157 
	C470.567932,232.958542 490.792267,232.995850 511.016449,232.995834 
	C512.793274,232.995834 514.570129,232.995834 516.671570,232.995834 
	C516.912476,228.856689 517.120789,225.277039 517.586792,221.385254 
	C518.071472,224.628647 518.402039,228.182861 518.446228,231.740646 
	C518.456177,232.540985 517.465881,233.353760 516.059692,234.047577 
	C492.382294,233.997910 469.581268,234.061447 446.780273,234.124985 
	C446.393799,234.204132 446.007355,234.283295 445.332214,234.430481 
z"/>
<path fill="#216BBF" opacity="1.000000" stroke="none" 
	d="
M883.474243,276.927979 
	C885.651184,276.543457 888.221863,276.060425 890.796875,276.036224 
	C900.563110,275.944397 910.330811,276.001129 920.569458,275.993652 
	C920.526367,276.441528 920.010742,277.297150 919.497192,277.295898 
	C907.621338,277.266968 895.745667,277.144897 883.474243,276.927979 
z"/>
<path fill="#216BBF" opacity="1.000000" stroke="none" 
	d="
M633.115784,233.798492 
	C609.344055,233.976028 585.776855,233.976028 562.209595,233.976028 
	C562.208435,233.653336 562.207275,233.330643 562.206116,233.007950 
	C585.588318,233.007950 608.970520,233.007950 632.844238,233.043762 
	C633.330566,233.260040 633.325378,233.440506 633.115784,233.798492 
z"/>
<path fill="#517DC5" opacity="1.000000" stroke="none" 
	d="
M447.172302,234.279770 
	C469.581268,234.061447 492.382294,233.997910 515.658936,234.003479 
	C514.505920,234.241013 512.877136,234.556686 511.248657,234.555603 
	C490.020569,234.541412 468.792450,234.482330 447.172302,234.279770 
z"/>
<path fill="#216BBF" opacity="1.000000" stroke="none" 
	d="
M358.365631,276.928345 
	C360.135071,276.561035 362.210449,276.031189 364.282654,276.043396 
	C374.692108,276.104614 385.100677,276.307465 395.742004,276.816162 
	C395.291016,277.204468 394.607635,277.237183 393.103516,277.113281 
	C381.499512,276.983521 370.716217,277.010376 359.932953,277.037231 
	C359.511993,277.030090 359.091064,277.022919 358.365631,276.928345 
z"/>
<path fill="#216BBF" opacity="1.000000" stroke="none" 
	d="
M810.190796,276.414490 
	C821.827332,276.125763 833.631897,276.243713 845.714355,276.675110 
	C834.114441,276.932739 822.236572,276.876984 810.190796,276.414490 
z"/>
<path fill="#216BBF" opacity="1.000000" stroke="none" 
	d="
M263.473450,277.090759 
	C264.739563,276.639221 266.454590,276.060089 268.174774,276.044281 
	C277.596039,275.957672 287.018555,276.009216 296.941345,276.046753 
	C296.142273,276.487488 294.845093,277.237671 293.542389,277.247375 
	C283.670441,277.320984 273.797394,277.249481 263.473450,277.090759 
z"/>
<path fill="#216BBF" opacity="1.000000" stroke="none" 
	d="
M648.493408,277.045746 
	C650.415955,276.620697 652.791992,276.052765 655.169250,276.047821 
	C663.558472,276.030396 671.948059,276.205933 680.636963,276.589417 
	C670.273438,276.967346 659.610474,277.064178 648.493408,277.045746 
z"/>
<path fill="#216BBF" opacity="1.000000" stroke="none" 
	d="
M1211.509277,276.973267 
	C1214.591919,276.583344 1218.128540,276.104706 1221.672729,276.039459 
	C1228.752319,275.909088 1235.836060,276.005280 1243.375000,276.024963 
	C1243.088013,276.464386 1242.344238,277.253357 1241.600220,277.253632 
	C1231.722290,277.257507 1221.844482,277.150696 1211.509277,276.973267 
z"/>
<path fill="#517EC5" opacity="1.000000" stroke="none" 
	d="
M360.292877,277.236877 
	C370.716217,277.010376 381.499512,276.983521 392.766113,277.047241 
	C382.383881,277.237366 371.518341,277.336945 360.292877,277.236877 
z"/>
<path fill="#FDFEFE" opacity="1.000000" stroke="none" 
	d="
M91.481422,234.985703 
	C76.303680,226.514481 61.520344,218.016220 45.557621,208.839996 
	C61.951847,199.452621 77.145798,190.752533 92.695297,181.986710 
	C108.884621,190.871170 124.718399,199.821365 141.897614,209.532089 
	C137.471649,212.141815 134.363953,214.061829 131.176010,215.837784 
	C121.114433,221.442917 111.095261,227.132507 100.894104,232.473145 
	C98.194252,233.886597 94.898140,234.161148 91.481422,234.985703 
z"/>
<path fill="#FCFDFE" opacity="1.000000" stroke="none" 
	d="
M1276.490479,246.621796 
	C1262.368530,252.741272 1252.506958,248.653061 1245.893677,240.090179 
	C1245.111206,239.077011 1244.160767,237.818085 1244.136963,236.655609 
	C1243.986328,229.332413 1243.995972,222.002396 1244.166870,214.679626 
	C1244.194214,213.507660 1245.124146,212.219009 1245.932739,211.225113 
	C1251.701172,204.135452 1259.216187,201.251175 1268.128540,203.058334 
	C1282.757324,206.024658 1291.606201,218.851044 1287.604370,232.790222 
	C1285.958496,238.523636 1282.439819,243.482986 1276.490479,246.621796 
z"/>
<path fill="#FAFBFD" opacity="1.000000" stroke="none" 
	d="
M1143.965698,258.911407 
	C1132.849365,258.858521 1128.606201,256.026917 1125.900635,247.162720 
	C1124.400879,242.249039 1126.442871,235.315964 1131.075928,233.265366 
	C1141.135620,228.813004 1151.540527,229.516098 1160.914429,231.769684 
	C1160.914429,236.611618 1160.688232,240.348541 1160.956665,244.049591 
	C1161.768921,255.249451 1156.534546,257.811920 1146.915161,258.861816 
	C1146.092529,258.951630 1145.254150,258.897461 1143.965698,258.911407 
z"/>
<path fill="#FAFBFD" opacity="1.000000" stroke="none" 
	d="
M564.044250,206.195251 
	C570.153198,198.115295 577.844177,195.923538 587.237610,198.059845 
	C597.113770,200.305969 599.295593,208.836227 602.864563,216.317108 
	C598.856262,219.607315 571.692505,220.210785 560.124939,216.904587 
	C561.378967,213.401703 562.612793,209.955139 564.044250,206.195251 
z"/>
<path fill="#FAFBFD" opacity="1.000000" stroke="none" 
	d="
M457.954834,198.688080 
	C468.835144,194.870132 477.025452,199.238846 484.034821,206.499557 
	C485.834290,208.363586 486.593048,211.452515 487.213013,214.121994 
	C487.447296,215.130753 486.091003,217.466354 485.196228,217.615448 
	C481.153137,218.289169 477.020142,218.548645 472.911072,218.669296 
	C467.804504,218.819260 462.687256,218.777542 457.579102,218.645721 
	C453.499176,218.540405 449.425934,218.176376 444.872650,217.897995 
	C446.081573,208.801285 449.827301,202.485306 457.954834,198.688080 
z"/>
</svg>