<svg version="1.1" id="Layer_1" xmlns="http://www.w3.org/2000/svg" xmlns:xlink="http://www.w3.org/1999/xlink" x="0px" y="0px"
	 width="100%" viewBox="0 0 407 407" enable-background="new 0 0 407 407" xml:space="preserve">
<path fill="#FFFEFE" opacity="1.000000" stroke="none" 
	d="
M221.000000,408.000000 
	C147.333328,408.000000 74.166664,408.000000 1.000000,408.000000 
	C1.000000,272.333344 1.000000,136.666672 1.000000,1.000000 
	C136.666672,1.000000 272.333344,1.000000 408.000000,1.000000 
	C408.000000,136.666672 408.000000,272.333344 408.000000,408.000000 
	C345.833344,408.000000 283.666656,408.000000 221.000000,408.000000 
M132.377762,286.022278 
	C137.633621,286.831085 142.875641,288.230103 148.147583,288.353851 
	C185.102310,289.221344 216.715027,261.174988 220.612595,222.762375 
	C222.777603,201.425079 222.778061,179.855423 223.427399,158.380630 
	C224.097198,136.229309 224.114716,114.057152 224.878967,91.910027 
	C225.954727,60.737152 258.421722,42.714787 284.063416,58.823879 
	C299.068390,68.250587 306.072205,86.633957 301.530396,104.670898 
	C297.001984,122.654633 282.163391,135.169540 264.084137,136.055206 
	C254.770309,136.511475 245.438599,136.605560 236.125793,137.077087 
	C234.596405,137.154526 231.875351,138.254776 231.823608,139.024734 
	C231.450653,144.572937 231.623795,150.157837 231.623795,156.487259 
	C241.242630,156.487259 250.395172,156.356766 259.542969,156.509766 
	C299.862457,157.184082 328.786957,125.807854 325.013458,85.516907 
	C322.238983,55.892570 297.291473,26.986980 259.436157,28.881746 
	C229.531876,30.378540 203.119110,56.577194 202.455338,88.545647 
	C201.930038,113.845238 203.491287,139.181122 203.489136,164.500824 
	C203.487411,184.956299 204.182495,205.618896 201.640320,225.821152 
	C197.234451,260.833710 161.075119,283.672760 129.125839,273.389374 
	C102.889618,264.944763 84.558052,237.755661 87.096268,211.051666 
	C89.960701,180.915619 110.410507,159.266388 140.265961,156.644302 
	C156.475693,155.220688 172.891739,156.151138 189.214569,156.002533 
	C190.980759,155.986450 192.745895,155.855606 194.543137,155.776611 
	C194.543137,150.191895 194.543137,145.137177 194.543137,139.171524 
	C178.168030,140.415558 162.280869,141.879257 146.361740,142.775085 
	C118.593933,144.337662 93.495049,163.169846 84.577713,193.672714 
	C72.902695,233.608505 93.668648,274.420837 132.377762,286.022278 
M53.777206,345.006348 
	C57.548290,332.095673 52.907505,322.272095 40.372963,319.729309 
	C32.004936,318.031799 23.171011,318.543549 14.539564,318.374817 
	C13.728312,318.358978 12.156710,320.552032 12.146748,321.729767 
	C11.994572,339.720703 12.005735,357.713623 12.142570,375.704865 
	C12.150572,376.756836 13.469669,378.612457 14.323106,378.700958 
	C17.694473,379.050598 21.123478,378.844452 24.990314,378.844452 
	C24.990314,371.233582 24.990314,364.459015 24.990314,357.399567 
	C36.365292,357.364258 47.556347,357.711395 53.777206,345.006348 
M71.120110,378.592224 
	C83.747238,382.123047 93.819771,378.798889 99.007202,369.173920 
	C94.633377,367.691742 91.237930,364.051178 85.816010,368.816986 
	C80.100937,373.840454 71.019363,369.121033 69.891472,360.980469 
	C80.169922,360.980469 90.392387,360.980469 100.474541,360.980469 
	C102.573120,351.256531 97.723862,341.282898 89.508667,337.588409 
	C78.298325,332.547028 64.705566,337.131989 59.794270,347.971100 
	C55.485352,357.480835 56.779663,372.740967 71.120110,378.592224 
M297.726044,368.196228 
	C290.220245,373.124725 281.578064,369.788361 280.527649,360.786682 
	C290.921906,360.786682 301.257080,360.786682 311.481537,360.786682 
	C312.611206,347.845947 306.409729,338.366791 295.916748,336.081451 
	C284.510773,333.597321 273.258881,340.006836 269.437775,350.286224 
	C264.890015,362.520416 272.085022,374.342743 279.849579,377.827972 
	C291.084442,382.870941 303.779449,379.359100 309.982483,368.870453 
	C305.770966,368.978149 302.816254,363.381348 297.726044,368.196228 
M332.046478,350.934479 
	C334.266663,346.700653 337.852173,345.559723 342.152161,346.935822 
	C346.334290,348.274200 347.930267,351.583130 347.916351,355.826324 
	C347.891449,363.404419 347.909332,370.982697 347.909332,378.546600 
	C352.220062,378.546600 355.778900,378.546600 359.768646,378.546600 
	C359.768646,369.577576 359.822601,360.958008 359.750336,352.339478 
	C359.699219,346.240692 358.306183,340.413483 352.414856,337.508453 
	C346.429962,334.557312 340.233521,334.838104 334.517395,338.917358 
	C333.710938,339.492920 331.658844,339.867737 331.541992,339.639587 
	C328.427490,333.559052 323.333130,338.490997 319.228546,336.511444 
	C319.228546,351.066711 319.228546,364.771240 319.228546,378.477997 
	C323.233246,378.477997 326.922180,378.477997 330.889587,378.477997 
	C330.889587,376.041504 330.829163,374.056061 330.900574,372.075348 
	C331.145355,365.286499 331.436401,358.499298 332.046478,350.934479 
M142.206619,367.732361 
	C136.956680,370.142334 136.733856,371.455078 140.929367,375.257568 
	C147.812836,381.496338 160.940979,381.645508 167.669083,375.561523 
	C174.558609,369.331543 173.502518,359.460785 165.231140,355.400879 
	C161.868607,353.750366 157.847961,353.445831 154.473053,351.813080 
	C152.900894,351.052490 152.153824,348.586426 151.032761,346.893402 
	C152.934021,346.399963 155.049820,345.141663 156.684097,345.600067 
	C158.898010,346.221039 160.742737,348.158173 162.790390,349.561249 
	C165.770569,347.965363 168.671539,346.411926 171.503296,344.895538 
	C168.825027,336.821960 156.513535,334.166351 149.090332,336.609070 
	C142.084839,338.914368 138.747314,343.248535 138.950928,350.094635 
	C139.125320,355.958252 143.045471,360.105957 149.996384,361.772644 
	C151.449249,362.121033 153.056396,362.170288 154.328049,362.851227 
	C156.357010,363.937561 158.260635,365.330902 159.969238,366.869843 
	C160.249985,367.122681 159.285614,369.641541 158.855911,369.653564 
	C156.393234,369.722351 153.911240,369.405151 151.452469,369.089081 
	C150.851562,369.011841 150.129639,368.579742 149.776306,368.086548 
	C147.716431,365.211365 145.363159,365.751801 142.206619,367.732361 
M198.857025,347.940247 
	C198.948441,355.629150 202.004608,359.659576 209.272858,361.649902 
	C211.994873,362.395294 214.885132,362.778564 217.383560,363.981445 
	C218.630325,364.581726 220.151337,367.040222 219.788101,367.972076 
	C219.278305,369.279907 217.207428,370.509735 215.658005,370.726257 
	C214.231476,370.925629 212.033493,370.189880 211.179001,369.087830 
	C207.832108,364.771332 204.407135,366.656342 200.686859,368.236847 
	C197.069214,369.773712 197.140472,371.445404 199.683990,374.051361 
	C205.148483,379.650116 214.711227,381.690704 222.364059,378.673187 
	C228.381836,376.300354 232.100082,371.185944 232.005905,365.410980 
	C231.917206,359.971436 228.667450,356.242737 221.862228,354.030579 
	C219.344528,353.212219 216.448853,353.176727 214.248672,351.889862 
	C212.682846,350.974030 211.992035,348.562103 210.910721,346.817841 
	C212.826294,346.351105 214.944061,345.148376 216.606003,345.604950 
	C218.659027,346.168915 220.333221,348.111847 222.433777,349.651459 
	C225.269180,348.087158 228.255157,346.439789 231.610397,344.588684 
	C226.812576,337.041534 220.083939,335.378998 212.396591,335.925903 
	C205.593323,336.409943 201.215759,340.122345 198.857025,347.940247 
M236.203506,337.098083 
	C235.915344,339.964966 235.627182,342.831848 235.305923,346.027985 
	C240.911743,345.566925 242.254242,347.638672 241.407608,353.095825 
	C240.586716,358.386993 241.370895,364.027740 242.082138,369.431793 
	C243.081055,377.021545 249.536728,380.858246 258.596161,379.792511 
	C264.493805,379.098724 264.900696,378.402954 264.301575,369.906677 
	C264.281647,369.624390 263.987640,369.361389 263.813446,369.094299 
	C254.073959,368.930389 253.407333,368.258026 253.398285,358.645782 
	C253.395630,355.819824 253.469879,352.988525 253.322327,350.169403 
	C253.167786,347.217438 254.230835,345.849609 257.350616,346.135132 
	C259.587952,346.339905 261.859131,346.174957 264.189453,346.174957 
	C264.189453,342.792328 264.189453,340.026031 264.189453,337.651123 
	C260.472382,336.819183 255.671753,337.131165 254.072098,335.018951 
	C252.266418,332.634674 253.339157,328.070435 253.136597,323.980560 
	C251.126083,323.980560 249.339020,323.981445 247.551941,323.980408 
	C240.833420,323.976532 239.561981,325.108002 241.373154,331.372162 
	C242.748840,336.130066 240.957062,337.075684 236.203506,337.098083 
M392.076904,336.887360 
	C390.746033,336.862732 389.384827,336.644836 388.089661,336.847900 
	C383.257233,337.605652 381.861572,335.439331 382.443939,330.921692 
	C382.725800,328.734985 382.277435,326.454132 382.149628,324.024384 
	C379.610046,324.024384 377.605377,324.200989 375.643188,323.987244 
	C371.673828,323.554901 369.815002,324.412750 370.778229,329.086212 
	C371.701050,333.563904 371.531891,338.144196 364.623932,337.012238 
	C364.623932,340.297699 364.623932,343.034210 364.623932,346.337219 
	C370.968719,344.804749 371.126770,348.559814 370.926453,352.926270 
	C370.728394,357.244629 370.690094,361.592987 370.972717,365.902557 
	C371.153320,368.656189 371.582855,371.573669 372.711914,374.047546 
	C375.096100,379.271729 384.450012,381.864929 390.930664,379.065186 
	C395.995880,376.876953 392.488678,372.562286 393.287079,369.216980 
	C382.790955,368.692902 382.521576,368.397705 382.511963,357.928772 
	C382.511200,357.096497 382.511902,356.264191 382.511627,355.431915 
	C382.508698,346.488647 382.509033,346.496674 391.199829,346.147644 
	C391.818207,346.122772 392.426819,345.854828 393.590240,345.560822 
	C393.352966,342.724518 393.122986,339.975098 392.076904,336.887360 
M108.336090,342.756897 
	C108.336090,354.679504 108.336090,366.602112 108.336090,378.627869 
	C112.604309,378.627869 116.184807,378.627869 120.283768,378.627869 
	C120.283768,373.538788 120.270348,368.743378 120.286385,363.948059 
	C120.327530,351.651215 122.691681,348.853668 134.395355,347.309540 
	C134.395355,343.456726 134.395355,339.599945 134.395355,333.945831 
	C129.244308,336.836029 125.186440,339.112823 120.874603,341.532135 
	C120.527565,340.285522 120.071068,338.645721 119.634880,337.078857 
	C115.843811,337.078857 112.259033,337.078857 108.334686,337.078857 
	C108.334686,338.880493 108.334686,340.355469 108.336090,342.756897 
M190.978271,375.235291 
	C190.978271,362.530609 190.978271,349.825897 190.978271,337.175720 
	C186.643539,337.175720 183.066574,337.175720 179.253525,337.175720 
	C179.253525,351.173096 179.253525,364.833527 179.253525,378.884521 
	C182.488541,378.884521 185.463425,379.103424 188.371933,378.760071 
	C189.327896,378.647217 190.111908,377.077881 190.978271,375.235291 
M183.866943,316.950165 
	C180.210754,318.128723 177.415314,320.487640 178.139938,324.425354 
	C178.538712,326.592346 180.671722,329.392548 182.643311,330.051849 
	C184.643661,330.720795 188.119431,329.815430 189.637619,328.292358 
	C191.162750,326.762299 192.258438,322.996704 191.388992,321.342834 
	C190.291946,319.256104 187.013809,318.316010 183.866943,316.950165 
z"/>
<path fill="#FC630D" opacity="1.000000" stroke="none" 
	d="
M131.984985,285.931030 
	C93.668648,274.420837 72.902695,233.608505 84.577713,193.672714 
	C93.495049,163.169846 118.593933,144.337662 146.361740,142.775085 
	C162.280869,141.879257 178.168030,140.415558 194.543137,139.171524 
	C194.543137,145.137177 194.543137,150.191895 194.543137,155.776611 
	C192.745895,155.855606 190.980759,155.986450 189.214569,156.002533 
	C172.891739,156.151138 156.475693,155.220688 140.265961,156.644302 
	C110.410507,159.266388 89.960701,180.915619 87.096268,211.051666 
	C84.558052,237.755661 102.889618,264.944763 129.125839,273.389374 
	C161.075119,283.672760 197.234451,260.833710 201.640320,225.821152 
	C204.182495,205.618896 203.487411,184.956299 203.489136,164.500824 
	C203.491287,139.181122 201.930038,113.845238 202.455338,88.545647 
	C203.119110,56.577194 229.531876,30.378540 259.436157,28.881746 
	C297.291473,26.986980 322.238983,55.892570 325.013458,85.516907 
	C328.786957,125.807854 299.862457,157.184082 259.542969,156.509766 
	C250.395172,156.356766 241.242630,156.487259 231.623795,156.487259 
	C231.623795,150.157837 231.450653,144.572937 231.823608,139.024734 
	C231.875351,138.254776 234.596405,137.154526 236.125793,137.077087 
	C245.438599,136.605560 254.770309,136.511475 264.084137,136.055206 
	C282.163391,135.169540 297.001984,122.654633 301.530396,104.670898 
	C306.072205,86.633957 299.068390,68.250587 284.063416,58.823879 
	C258.421722,42.714787 225.954727,60.737152 224.878967,91.910027 
	C224.114716,114.057152 224.097198,136.229309 223.427399,158.380630 
	C222.778061,179.855423 222.777603,201.425079 220.612595,222.762375 
	C216.715027,261.174988 185.102310,289.221344 148.147583,288.353851 
	C142.875641,288.230103 137.633621,286.831085 131.984985,285.931030 
z"/>
<path fill="#535353" opacity="1.000000" stroke="none" 
	d="
M53.625832,345.367859 
	C47.556347,357.711395 36.365292,357.364258 24.990314,357.399567 
	C24.990314,364.459015 24.990314,371.233582 24.990314,378.844452 
	C21.123478,378.844452 17.694473,379.050598 14.323106,378.700958 
	C13.469669,378.612457 12.150572,376.756836 12.142570,375.704865 
	C12.005735,357.713623 11.994572,339.720703 12.146748,321.729767 
	C12.156710,320.552032 13.728312,318.358978 14.539564,318.374817 
	C23.171011,318.543549 32.004936,318.031799 40.372963,319.729309 
	C52.907505,322.272095 57.548290,332.095673 53.625832,345.367859 
M40.703808,332.762787 
	C36.128700,328.413025 30.663885,329.606323 24.775578,329.948853 
	C24.775578,333.238068 24.856579,336.198730 24.760582,339.153656 
	C24.457306,348.489105 25.901756,346.965820 33.380737,346.701447 
	C41.762909,346.405182 44.692616,340.863953 40.703808,332.762787 
z"/>
<path fill="#545454" opacity="1.000000" stroke="none" 
	d="
M70.765366,378.428284 
	C56.779663,372.740967 55.485352,357.480835 59.794270,347.971100 
	C64.705566,337.131989 78.298325,332.547028 89.508667,337.588409 
	C97.723862,341.282898 102.573120,351.256531 100.474541,360.980469 
	C90.392387,360.980469 80.169922,360.980469 69.891472,360.980469 
	C71.019363,369.121033 80.100937,373.840454 85.816010,368.816986 
	C91.237930,364.051178 94.633377,367.691742 99.007202,369.173920 
	C93.819771,378.798889 83.747238,382.123047 70.765366,378.428284 
M69.789093,350.732391 
	C70.435539,351.705353 71.049362,353.495270 71.733574,353.522552 
	C77.418816,353.749573 83.117058,353.651276 89.094604,353.651276 
	C89.099411,348.661987 86.215332,346.486298 82.428955,345.192902 
	C77.599648,343.543213 73.713226,345.129181 69.789093,350.732391 
z"/>
<path fill="#535353" opacity="1.000000" stroke="none" 
	d="
M297.951721,367.875366 
	C302.816254,363.381348 305.770966,368.978149 309.982483,368.870453 
	C303.779449,379.359100 291.084442,382.870941 279.849579,377.827972 
	C272.085022,374.342743 264.890015,362.520416 269.437775,350.286224 
	C273.258881,340.006836 284.510773,333.597321 295.916748,336.081451 
	C306.409729,338.366791 312.611206,347.845947 311.481537,360.786682 
	C301.257080,360.786682 290.921906,360.786682 280.527649,360.786682 
	C281.578064,369.788361 290.220245,373.124725 297.951721,367.875366 
M287.078949,344.963684 
	C285.309692,346.118927 283.321228,347.053833 281.854309,348.513000 
	C280.990753,349.371979 280.954987,351.063110 280.546875,352.379944 
	C281.883789,352.695221 283.210052,353.217224 284.559631,353.286682 
	C288.499023,353.489410 292.447632,353.562408 296.392822,353.569672 
	C297.424042,353.571564 298.986847,353.458160 299.347321,352.839478 
	C299.756775,352.136658 299.341675,350.670502 298.850739,349.774017 
	C296.469025,345.424896 292.533203,344.279846 287.078949,344.963684 
z"/>
<path fill="#525252" opacity="1.000000" stroke="none" 
	d="
M331.878113,351.322998 
	C331.436401,358.499298 331.145355,365.286499 330.900574,372.075348 
	C330.829163,374.056061 330.889587,376.041504 330.889587,378.477997 
	C326.922180,378.477997 323.233246,378.477997 319.228546,378.477997 
	C319.228546,364.771240 319.228546,351.066711 319.228546,336.511444 
	C323.333130,338.490997 328.427490,333.559052 331.541992,339.639587 
	C331.658844,339.867737 333.710938,339.492920 334.517395,338.917358 
	C340.233521,334.838104 346.429962,334.557312 352.414856,337.508453 
	C358.306183,340.413483 359.699219,346.240692 359.750336,352.339478 
	C359.822601,360.958008 359.768646,369.577576 359.768646,378.546600 
	C355.778900,378.546600 352.220062,378.546600 347.909332,378.546600 
	C347.909332,370.982697 347.891449,363.404419 347.916351,355.826324 
	C347.930267,351.583130 346.334290,348.274200 342.152161,346.935822 
	C337.852173,345.559723 334.266663,346.700653 331.878113,351.322998 
z"/>
<path fill="#535353" opacity="1.000000" stroke="none" 
	d="
M142.535370,367.538269 
	C145.363159,365.751801 147.716431,365.211365 149.776306,368.086548 
	C150.129639,368.579742 150.851562,369.011841 151.452469,369.089081 
	C153.911240,369.405151 156.393234,369.722351 158.855911,369.653564 
	C159.285614,369.641541 160.249985,367.122681 159.969238,366.869843 
	C158.260635,365.330902 156.357010,363.937561 154.328049,362.851227 
	C153.056396,362.170288 151.449249,362.121033 149.996384,361.772644 
	C143.045471,360.105957 139.125320,355.958252 138.950928,350.094635 
	C138.747314,343.248535 142.084839,338.914368 149.090332,336.609070 
	C156.513535,334.166351 168.825027,336.821960 171.503296,344.895538 
	C168.671539,346.411926 165.770569,347.965363 162.790390,349.561249 
	C160.742737,348.158173 158.898010,346.221039 156.684097,345.600067 
	C155.049820,345.141663 152.934021,346.399963 151.032761,346.893402 
	C152.153824,348.586426 152.900894,351.052490 154.473053,351.813080 
	C157.847961,353.445831 161.868607,353.750366 165.231140,355.400879 
	C173.502518,359.460785 174.558609,369.331543 167.669083,375.561523 
	C160.940979,381.645508 147.812836,381.496338 140.929367,375.257568 
	C136.733856,371.455078 136.956680,370.142334 142.535370,367.538269 
z"/>
<path fill="#535353" opacity="1.000000" stroke="none" 
	d="
M198.899567,347.569427 
	C201.215759,340.122345 205.593323,336.409943 212.396591,335.925903 
	C220.083939,335.378998 226.812576,337.041534 231.610397,344.588684 
	C228.255157,346.439789 225.269180,348.087158 222.433777,349.651459 
	C220.333221,348.111847 218.659027,346.168915 216.606003,345.604950 
	C214.944061,345.148376 212.826294,346.351105 210.910721,346.817871 
	C211.992035,348.562103 212.682846,350.974030 214.248672,351.889862 
	C216.448853,353.176727 219.344528,353.212219 221.862228,354.030579 
	C228.667450,356.242737 231.917206,359.971436 232.005905,365.410980 
	C232.100082,371.185944 228.381836,376.300354 222.364059,378.673187 
	C214.711227,381.690704 205.148483,379.650116 199.683990,374.051361 
	C197.140472,371.445404 197.069214,369.773712 200.686859,368.236847 
	C204.407135,366.656342 207.832108,364.771332 211.179001,369.087830 
	C212.033493,370.189880 214.231476,370.925629 215.658005,370.726257 
	C217.207428,370.509735 219.278305,369.279907 219.788101,367.972076 
	C220.151337,367.040222 218.630325,364.581726 217.383560,363.981445 
	C214.885132,362.778564 211.994873,362.395294 209.272858,361.649902 
	C202.004608,359.659576 198.948441,355.629150 198.899567,347.569427 
z"/>
<path fill="#515151" opacity="1.000000" stroke="none" 
	d="
M236.573761,336.974548 
	C240.957062,337.075684 242.748840,336.130066 241.373154,331.372162 
	C239.561981,325.108002 240.833420,323.976532 247.551941,323.980408 
	C249.339020,323.981445 251.126083,323.980560 253.136597,323.980560 
	C253.339157,328.070435 252.266418,332.634674 254.072098,335.018951 
	C255.671753,337.131165 260.472382,336.819183 264.189453,337.651123 
	C264.189453,340.026031 264.189453,342.792328 264.189453,346.174957 
	C261.859131,346.174957 259.587952,346.339905 257.350616,346.135132 
	C254.230835,345.849609 253.167786,347.217438 253.322327,350.169403 
	C253.469879,352.988525 253.395630,355.819824 253.398285,358.645782 
	C253.407333,368.258026 254.073959,368.930389 263.817444,369.091858 
	C263.987640,369.361389 264.281647,369.624390 264.301575,369.906677 
	C264.900696,378.402954 264.493805,379.098724 258.596161,379.792511 
	C249.536728,380.858246 243.081055,377.021545 242.082138,369.431793 
	C241.370895,364.027740 240.586716,358.386993 241.407608,353.095825 
	C242.254242,347.638672 240.911743,345.566925 235.305923,346.027985 
	C235.627182,342.831848 235.915344,339.964966 236.573761,336.974548 
z"/>
<path fill="#515151" opacity="1.000000" stroke="none" 
	d="
M392.484924,337.056519 
	C393.122986,339.975098 393.352966,342.724518 393.590240,345.560822 
	C392.426819,345.854828 391.818207,346.122772 391.199829,346.147644 
	C382.509033,346.496674 382.508698,346.488647 382.511627,355.431915 
	C382.511902,356.264191 382.511200,357.096497 382.511963,357.928772 
	C382.521576,368.397705 382.790955,368.692902 393.287079,369.216980 
	C392.488678,372.562286 395.995880,376.876953 390.930664,379.065186 
	C384.450012,381.864929 375.096100,379.271729 372.711914,374.047546 
	C371.582855,371.573669 371.153320,368.656189 370.972717,365.902557 
	C370.690094,361.592987 370.728394,357.244629 370.926453,352.926270 
	C371.126770,348.559814 370.968719,344.804749 364.623932,346.337219 
	C364.623932,343.034210 364.623932,340.297699 364.623932,337.012238 
	C371.531891,338.144196 371.701050,333.563904 370.778229,329.086212 
	C369.815002,324.412750 371.673828,323.554901 375.643188,323.987244 
	C377.605377,324.200989 379.610046,324.024384 382.149628,324.024384 
	C382.277435,326.454132 382.725800,328.734985 382.443939,330.921692 
	C381.861572,335.439331 383.257233,337.605652 388.089661,336.847900 
	C389.384827,336.644836 390.746033,336.862732 392.484924,337.056519 
z"/>
<path fill="#575757" opacity="1.000000" stroke="none" 
	d="
M108.335388,342.293701 
	C108.334686,340.355469 108.334686,338.880493 108.334686,337.078857 
	C112.259033,337.078857 115.843811,337.078857 119.634880,337.078857 
	C120.071068,338.645721 120.527565,340.285522 120.874603,341.532135 
	C125.186440,339.112823 129.244308,336.836029 134.395355,333.945831 
	C134.395355,339.599945 134.395355,343.456726 134.395355,347.309540 
	C122.691681,348.853668 120.327530,351.651215 120.286385,363.948059 
	C120.270348,368.743378 120.283768,373.538788 120.283768,378.627869 
	C116.184807,378.627869 112.604309,378.627869 108.336090,378.627869 
	C108.336090,366.602112 108.336090,354.679504 108.335388,342.293701 
z"/>
<path fill="#515151" opacity="1.000000" stroke="none" 
	d="
M190.976410,375.704926 
	C190.111908,377.077881 189.327896,378.647217 188.371933,378.760071 
	C185.463425,379.103424 182.488541,378.884521 179.253525,378.884521 
	C179.253525,364.833527 179.253525,351.173096 179.253525,337.175720 
	C183.066574,337.175720 186.643539,337.175720 190.978271,337.175720 
	C190.978271,349.825897 190.978271,362.530609 190.976410,375.704926 
z"/>
<path fill="#565656" opacity="1.000000" stroke="none" 
	d="
M184.271774,316.915710 
	C187.013809,318.316010 190.291946,319.256104 191.388992,321.342834 
	C192.258438,322.996704 191.162750,326.762299 189.637619,328.292358 
	C188.119431,329.815430 184.643661,330.720795 182.643311,330.051849 
	C180.671722,329.392548 178.538712,326.592346 178.139938,324.425354 
	C177.415314,320.487640 180.210754,318.128723 184.271774,316.915710 
z"/>
<path fill="#FBFBFB" opacity="1.000000" stroke="none" 
	d="
M40.930878,333.079895 
	C44.692616,340.863953 41.762909,346.405182 33.380737,346.701447 
	C25.901756,346.965820 24.457306,348.489105 24.760582,339.153656 
	C24.856579,336.198730 24.775578,333.238068 24.775578,329.948853 
	C30.663885,329.606323 36.128700,328.413025 40.930878,333.079895 
z"/>
<path fill="#F7F7F7" opacity="1.000000" stroke="none" 
	d="
M69.931351,350.358551 
	C73.713226,345.129181 77.599648,343.543213 82.428955,345.192902 
	C86.215332,346.486298 89.099411,348.661987 89.094604,353.651276 
	C83.117058,353.651276 77.418816,353.749573 71.733574,353.522552 
	C71.049362,353.495270 70.435539,351.705353 69.931351,350.358551 
z"/>
<path fill="#F7F7F7" opacity="1.000000" stroke="none" 
	d="
M287.484436,344.877014 
	C292.533203,344.279846 296.469025,345.424896 298.850739,349.774017 
	C299.341675,350.670502 299.756775,352.136658 299.347321,352.839478 
	C298.986847,353.458160 297.424042,353.571564 296.392822,353.569672 
	C292.447632,353.562408 288.499023,353.489410 284.559631,353.286682 
	C283.210052,353.217224 281.883789,352.695221 280.546875,352.379944 
	C280.954987,351.063110 280.990753,349.371979 281.854309,348.513000 
	C283.321228,347.053833 285.309692,346.118927 287.484436,344.877014 
z"/>
</svg>