<svg width="330px" height="284px" viewBox="0 0 330 284" version="1.1" xmlns="http://www.w3.org/2000/svg" xmlns:xlink="http://www.w3.org/1999/xlink">
    <!-- Generator: Sketch 59.1 (86144) - https://sketch.com -->
    <title>Final LOGO@1x</title>
    <desc>Created with Sketch.</desc>
    <g id="Final-LOGO" stroke="none" stroke-width="1" fill="none" fill-rule="evenodd">
        <g id="SSH-Logo">
            <path d="M38.41,268.78 C37.5512133,267.622108 37.0820283,266.221556 37.07,264.78 C37.0266995,262.831797 37.3947054,260.896358 38.15,259.1 L38.15,259.1 C38.8966761,257.184699 40.1059972,255.484091 41.67,254.15 C43.2566693,252.798138 45.2755447,252.060131 47.36,252.07 C47.8904459,252.065012 48.419969,252.115283 48.94,252.22 L45.6,258.22 L45.6,258.22 C44.34,260.48 43.13,262.48 41.99,264.22 C40.9420164,265.848697 39.7434228,267.375398 38.41,268.78 L38.41,268.78 Z M61.47,240 C60.7905461,241.254357 60.2313842,242.570229 59.8,243.93 C59.0426374,246.264146 58.4413111,248.646066 58,251.06 C57.63,253.06 57.31,255.32 57.06,257.91 C56.6513037,256.791144 56.1320688,255.715825 55.51,254.7 C54.6830737,253.271748 53.5061006,252.077567 52.09,251.23 C53.3585356,248.616952 54.8861953,246.137855 56.65,243.83 L56.65,243.83 C57.8891097,242.148983 59.5524862,240.827255 61.47,240 L61.47,240 Z M49.25,263 L49.25,263 C48.9655481,264.174873 48.4999765,265.298317 47.87,266.33 L47.87,266.33 C47.218337,267.40998 46.3248929,268.323963 45.26,269 C44.0828753,269.726028 42.7228629,270.100725 41.34,270.08 L41.15,270.08 C42.4911136,268.676535 43.6748091,267.13069 44.68,265.47 C45.95,263.47 47.09,261.38 48.12,259.31 L48.12,259.31 C48.52,258.44 49.12,257.15 49.97,255.44 L49.97,255.44 L51.08,253.16 C52.5153121,254.144608 53.6532203,255.503872 54.37,257.09 C55.2140627,258.920112 55.7996651,260.858658 56.11,262.85 L56.11,262.85 C56.3773637,264.363987 56.5443943,265.893987 56.61,267.43 L56.61,268 L56.61,268 C56.5983495,268.872561 56.7580329,269.738929 57.08,270.55 C57.2875836,271.137655 57.8369224,271.535727 58.46,271.55 C58.6874454,271.555914 58.907561,271.469311 59.07,271.31 C59.2702951,271.148746 59.3725208,270.895075 59.34,270.64 C59.286147,268.658739 59.3362157,266.676017 59.49,264.7 C59.66,262.37 59.91,260.09 60.25,257.84 L60.25,257.84 C60.5633333,255.573333 60.9466667,253.326667 61.4,251.1 C61.8277964,248.997649 62.361814,246.918318 63,244.87 L63,244.87 C63.6,242.936667 64.1,241.446667 64.5,240.4 C64.88,239.4 65.1,238.85 65.16,238.73 C65.1993193,238.670725 65.2203249,238.60113 65.2203249,238.53 C65.2269484,238.257298 65.1221891,237.993593 64.93,237.8 L64.93,237.8 C64.7376899,237.660868 64.507327,237.584081 64.27,237.58 L64.27,237.58 C62.2989383,237.615373 60.3888831,238.269549 58.81,239.45 C57.0200127,240.792871 55.4423411,242.397511 54.13,244.21 L54.13,244.21 C52.6832283,246.232335 51.3479091,248.332124 50.13,250.5 L49.41,250.32 L48.99,250.23 L48.99,250.23 C48.4341676,250.105773 47.8688151,250.028832 47.3,250 L47.3,250 C44.780734,249.994214 42.3391549,250.871767 40.4,252.48 C38.5570827,254.032709 37.1393158,256.028595 36.28,258.28 C35.4593677,260.322211 35.0613487,262.509614 35.11,264.71 L35.11,264.71 L35.11,265 L35.11,265 C35.1704792,266.831422 35.8389627,268.59059 37.01,270 C36.2148823,270.698983 35.3221744,271.278401 34.36,271.72 L34.36,271.72 C33.3737241,272.203313 32.288287,272.449847 31.19,272.44 C29.5499154,272.518431 27.9424227,271.963506 26.7,270.89 C25.6755602,269.902995 25.004375,268.606307 24.79,267.2 C24.7285985,266.812722 24.6918578,266.421936 24.68,266.03 C24.6545543,264.879583 24.8097753,263.732297 25.14,262.63 C25.596142,261.204915 26.4003971,259.916045 27.48,258.88 C28.5270102,257.877867 29.9206901,257.318962 31.37,257.32 C31.4351543,257.321558 31.4988113,257.300339 31.55,257.26 C31.6061866,257.222774 31.6511376,257.170907 31.68,257.11 C31.6911894,257.043803 31.6911894,256.976197 31.68,256.91 C31.6278302,256.627764 31.5262736,256.356947 31.38,256.11 C31.0799362,255.569212 30.5084415,255.235521 29.89,255.24 L29.84,255.24 C28.0592283,255.217822 26.3507372,255.943296 25.13,257.24 C23.894232,258.563949 23.067698,260.217016 22.75,262 C22.5418815,262.985739 22.4545723,263.993154 22.49,265 C22.5179497,265.9092 22.6521959,266.812006 22.89,267.69 C23.3355125,269.55595 24.3656048,271.230726 25.83,272.47 C27.5431873,273.837636 29.6892242,274.547069 31.88,274.47 L31.88,274.47 C33.3288434,274.473187 34.7648285,274.198211 36.11,273.66 L36.11,273.66 C37.3634189,273.146897 38.5330287,272.449176 39.58,271.59 L39.58,271.59 C39.8354621,271.663461 40.0962474,271.716955 40.36,271.75 C40.6910307,271.801639 41.0250685,271.831703 41.36,271.84 L41.36,271.84 C43.0307878,271.849412 44.6666902,271.362122 46.06,270.44 C47.3486136,269.608089 48.4158746,268.475626 49.17,267.14 C49.9255875,265.905584 50.4697374,264.553659 50.78,263.14 L50.78,263.14 C50.7846122,263.093447 50.7846122,263.046553 50.78,263 C50.7790231,262.80928 50.6810473,262.63217 50.52,262.53 C50.3758263,262.441419 50.2091709,262.396283 50.04,262.4 L50,262.4 C49.6501325,262.426054 49.3522184,262.664385 49.25,263 L49.25,263 Z M88.54,240 C87.16028,240.036954 85.7901947,240.241795 84.46,240.61 C82.8230979,241.022367 81.2266519,241.58129 79.69,242.28 L79.69,242.28 C78.2084719,242.9206 76.8537276,243.821505 75.69,244.94 C74.6247804,245.846047 74.007655,247.171588 74,248.57 L74,248.57 L74,248.57 C74.0107736,249.238067 74.2670658,249.878797 74.72,250.37 C75.0980164,250.76654 75.62215,250.990652 76.17,250.99 L76.17,250.99 C76.5165704,250.970037 76.8469201,250.836492 77.11,250.61 L77.11,250.61 C77.226317,250.470659 77.2993167,250.300327 77.32,250.12 C77.3046665,249.925714 77.1448373,249.774525 76.95,249.77 C76.8352396,249.775597 76.7243912,249.727563 76.65,249.64 C76.5570483,249.478411 76.5055174,249.296335 76.5,249.11 C76.5164348,247.690661 77.1475412,246.348192 78.23,245.43 C79.4864203,244.325071 80.9287246,243.451563 82.49,242.85 C83.7025253,242.368335 84.9582047,242.003351 86.24,241.76 C85.3671312,243.234218 84.6945484,244.818151 84.24,246.47 C83.4061035,249.321174 82.7975634,252.233473 82.42,255.18 L82.42,255.18 C81.9898665,258.632293 81.8260495,262.112568 81.93,265.59 C81.9169247,266.441928 82.0453361,267.29012 82.31,268.1 C82.4391788,268.69449 82.9717953,269.113873 83.58,269.1 C83.7854929,269.099139 83.9865567,269.040207 84.16,268.93 C84.3781894,268.771792 84.4931119,268.50747 84.46,268.24 C84.5521886,267.404137 84.7161265,266.577756 84.95,265.77 L84.95,265.77 C85.19,264.776667 85.67,262.996667 86.39,260.43 C87.22,257.73 87.96,255.54 88.61,253.84 L88.61,253.84 C89.4114523,251.628148 90.3328178,249.461604 91.37,247.35 C92.2089224,245.588748 93.2746299,243.944802 94.54,242.46 L94.54,242.46 C95.2825972,241.433772 96.4217443,240.766246 97.68,240.62 C98.0696006,240.602052 98.4505381,240.738614 98.74,241 C99.0159389,241.301549 99.175469,241.691511 99.19,242.1 L99.19,242.1 C99.200277,242.236473 99.200277,242.373527 99.19,242.51 C99.1738797,243.698271 98.8793278,244.866204 98.33,245.92 L98.33,245.92 C97.6319097,247.437969 96.6075741,248.783263 95.33,249.86 C93.9815203,250.959725 92.2999356,251.569607 90.56,251.59 L90.5,251.59 C90.13,251.67 89.95,251.96 89.97,252.45 C89.99,252.94 90.18,253.28 90.55,253.36 L90.63,253.36 C92.2019032,253.373699 93.7601646,253.067491 95.21,252.46 C96.5507478,252.56126 97.7158309,253.419538 98.21,254.67 C98.5235798,255.470576 98.6928619,256.320372 98.71,257.18 C98.7281506,257.974427 98.6644817,258.768612 98.52,259.55 C98.1050152,261.620755 97.3044458,263.59504 96.16,265.37 C94.9582873,267.296044 93.3551419,268.940121 91.46,270.19 C89.4768228,271.495558 87.1543364,272.190914 84.78,272.19 C82.51,272.19 80.91,271.74 79.97,270.95 L79.97,270.95 C79.1128379,270.322891 78.5664905,269.357678 78.47,268.3 L78.47,268 C78.4130727,267.118535 78.6409433,266.242109 79.12,265.5 L79.12,265.5 C79.4362287,264.838101 80.0791503,264.393002 80.81,264.33 L80.81,264.33 C80.9884639,264.299924 81.1471698,264.198929 81.25,264.05 C81.349469,263.91037 81.3988071,263.741211 81.39,263.57 C81.3949165,263.530151 81.3949165,263.489849 81.39,263.45 C81.384293,263.27933 81.3247929,263.11483 81.22,262.98 C81.1078338,262.846869 80.9517839,262.758204 80.78,262.73 L80.7,262.73 C79.3972145,262.784302 78.2093583,263.491001 77.54,264.61 C76.8324988,265.658249 76.4818182,266.906672 76.54,268.17 L76.54,268.17 L76.54,268.55 L76.54,268.55 C76.7024841,270.149892 77.5390223,271.604741 78.84,272.55 C80.25,273.68 82.46,274.28 85.45,274.36 L85.45,274.36 C88.430486,274.406504 91.3712475,273.672175 93.98,272.23 L93.98,272.23 C96.1623038,270.95577 97.9965072,269.162784 99.32,267.01 C100.537787,265.042332 101.290241,262.822593 101.52,260.52 C101.579424,259.935341 101.59947,259.347348 101.58,258.76 C101.542359,257.321906 101.222996,255.90516 100.64,254.59 L100.64,254.59 C99.9571216,253.093267 98.7466852,251.900631 97.24,251.24 C98.5215495,250.406332 99.6204275,249.321062 100.47,248.05 C101.368627,246.805359 101.961311,245.366473 102.2,243.85 C102.253797,243.482603 102.273881,243.111055 102.26,242.74 C102.24968,241.840691 101.959585,240.966913 101.43,240.24 C100.524957,239.158324 99.1571455,238.574774 97.75,238.67 L97.75,238.67 C96.1301085,238.742061 94.5974845,239.424418 93.46,240.58 C92.0557884,241.971978 90.8631199,243.562203 89.92,245.3 L89.92,245.3 C88.8267044,247.335627 87.8744652,249.443918 87.07,251.61 C86.57,252.97 86.07,254.27 85.72,255.51 L85.87,254.65 L85.87,254.65 C86.07,253.38 86.31,252.16 86.58,251.01 L86.58,251.01 C87.0671107,248.563042 87.6812751,246.1431 88.42,243.76 C88.9,242.27 89.2,241.41 89.32,241.17 C89.3437158,241.105442 89.3437158,241.034558 89.32,240.97 C89.329602,240.698751 89.2285335,240.435251 89.04,240.24 C88.8978557,240.116633 88.7251645,240.033741 88.54,240 L88.54,240 Z M113.37,252.25 C113.461551,252.247158 113.548083,252.207497 113.61,252.14 C113.678657,252.07612 113.712186,251.982983 113.7,251.89 C113.666938,251.658625 113.577667,251.43888 113.44,251.25 C113.133887,250.82918 112.640193,250.586073 112.12,250.6 L112.07,250.6 C110.497525,250.678262 109.037152,251.437656 108.07,252.68 L108.07,252.68 C106.905044,254.092591 106.028495,255.719983 105.49,257.47 C104.844944,259.289828 104.526713,261.209371 104.55,263.14 L104.55,263.14 L104.55,263.43 L104.55,263.43 C104.55663,265.04136 104.991478,266.621998 105.81,268.01 C106.700263,269.405318 108.266376,270.220763 109.92,270.15 L109.92,270.15 C111.743007,269.976656 113.373895,268.943884 114.31,267.37 C115.631919,265.424981 116.590719,263.256669 117.14,260.97 C117.767611,258.600934 118.086914,256.160788 118.09,253.71 L118.66,253.85 C119.047999,253.93151 119.443535,253.971734 119.84,253.97 L120,253.97 C120.83,253.87 121.33,253.56 121.48,253.03 C121.585179,252.784909 121.652611,252.525296 121.680009,252.26 C121.680496,252.179401 121.659805,252.100086 121.62,252.03 C121.587348,251.977161 121.542839,251.932652 121.49,251.9 C121.428127,251.880764 121.361873,251.880764 121.3,251.9 C121.23179,251.898547 121.165005,251.919637 121.11,251.96 L120.84,252.07 L120.84,252.07 C120.594369,252.163507 120.332715,252.207682 120.07,252.2 C119.683319,252.203482 119.299612,252.132174 118.94,251.99 C118.616526,251.861554 118.30527,251.704253 118.01,251.52 C117.803611,250.504514 117.467523,249.519775 117.01,248.59 L117.01,248.59 C116.43,247.59 115.82,247.07 115.17,247.03 L115,247.03 C114.526035,247.062501 114.085652,247.286302 113.78,247.65 C113.44767,247.940399 113.25489,248.358694 113.25,248.8 C113.337768,249.537511 113.640297,250.23298 114.12,250.8 C114.648695,251.591672 115.328328,252.271305 116.12,252.8 L116.12,253 C116.181751,255.44559 115.909233,257.888157 115.31,260.26 C114.832656,262.246972 114.053613,264.149053 113,265.9 C112.08,267.28 111.17,267.99 110.29,268.03 C109.904988,268.020663 109.533254,267.8874 109.23,267.65 C108.894282,267.3438 108.639984,266.958917 108.49,266.53 C108.180204,265.687051 108.014555,264.797956 108,263.9 C108,263.5 108,263.07 108,262.63 L108,262.63 C108.073367,260.999842 108.359112,259.386223 108.85,257.83 C109.257634,256.400717 109.899693,255.049013 110.75,253.83 C111.324833,252.917611 112.29528,252.328676 113.37,252.24 L113.37,252.25 Z M135.26,272 L135.26,272 C135.1,272 134.96,271.83 134.82,271.49 L134.82,271.49 C134.505033,270.522396 134.362864,269.506899 134.4,268.49 C134.319877,265.611174 134.568146,262.732595 135.14,259.91 C135.568355,257.800475 136.149896,255.724977 136.88,253.7 L136.88,253.7 C137.38,252.36 137.68,251.58 137.79,251.37 C137.829319,251.310725 137.850198,251.24113 137.85,251.17 C137.858704,250.865846 137.767365,250.567238 137.59,250.32 C137.361424,250.05485 137.018509,249.916939 136.67,249.95 C135.89097,249.988709 135.177395,250.397528 134.75,251.05 C134.097645,251.869224 133.587238,252.792012 133.24,253.78 C133.04,254.29 132.61,255.21 131.96,256.55 L131.96,256.55 L131.49,257.55 C130.65,259.2 129.83,260.73 129.01,262.13 L129.01,262.13 C128.282444,263.476762 127.449866,264.764082 126.52,265.98 L126.52,265.98 C125.8,266.98 125.24,267.45 124.83,267.5 C124.65,267.5 124.52,267.37 124.42,267.14 C124.275087,266.725317 124.200723,266.289273 124.2,265.85 C124.216182,264.4571 124.377046,263.069651 124.68,261.71 L124.68,261.71 C124.98,260.28 125.38,258.71 125.9,256.89 C126.29,255.53 126.71,254.21 127.14,252.89 L127.14,252.89 L127.3,252.42 L127.3,252.42 C127.51,251.78 127.64,251.42 127.68,251.32 C127.7206,251.261707 127.738392,251.19054 127.73,251.12 C127.733834,250.827089 127.654047,250.539161 127.5,250.29 C127.302334,250.011664 126.969303,249.862375 126.63,249.9 L126.63,249.9 C125.77,249.9 124.94,250.65 124.13,252.03 C123.280303,253.533398 122.60909,255.130885 122.13,256.79 L122.13,256.79 C121.560417,258.644696 121.19492,260.556008 121.04,262.49 C120.981001,263.108127 120.960962,263.729355 120.98,264.35 C120.992733,265.369644 121.16135,266.381342 121.48,267.35 L121.48,267.35 C121.69733,267.993093 122.105453,268.554698 122.65,268.96 C123.195949,269.349245 123.8495,269.55894 124.52,269.56 L124.52,269.56 C125.457588,269.420635 126.315216,268.952838 126.94,268.24 C127.885691,267.288982 128.727127,266.2397 129.45,265.11 C130.08,264.11 130.74,263.04 131.45,261.82 C131.313658,263.195518 131.26356,264.578222 131.3,265.96 C131.3,266.3 131.3,266.64 131.35,266.96 C131.398762,268.651111 131.75807,270.31884 132.41,271.88 L132.41,271.88 C132.843786,273.086879 133.950499,273.9228 135.23,274.01 L135.23,274.01 C135.869884,273.952476 136.453468,273.620562 136.83,273.1 L136.83,273.1 C137.198866,272.61385 137.510895,272.087091 137.76,271.53 C137.901073,271.233883 138.005188,270.921538 138.07,270.6 L138.07,270.4 C138.060183,270.213573 137.943166,270.049749 137.77,269.98 C137.635788,269.916457 137.48843,269.885615 137.34,269.89 C137.205952,269.890258 137.073324,269.917463 136.95,269.97 C136.826963,270.016672 136.724291,270.105182 136.66,270.22 C136.597328,270.30845 136.559359,270.412002 136.55,270.52 L136.55,270.52 L136.55,270.52 L136.42,270.83 L136.42,270.83 C136.318175,271.096943 136.165329,271.341497 135.97,271.55 L135.97,271.55 C135.821157,271.742153 135.593028,271.856217 135.35,271.86 L135.26,272 Z M158,242.52 C157.200886,242.61 156.524286,243.150503 156.26,243.91 C155.969356,244.581244 155.83268,245.309044 155.86,246.04 L155.86,246.04 L155.86,246.33 C155.99,247.22 156.36,247.71 156.99,247.82 L157.05,247.82 C157.135056,247.818946 157.216817,247.786952 157.28,247.73 C157.47774,247.475747 157.658148,247.208477 157.82,246.93 C158.147814,246.423291 158.441787,245.895474 158.7,245.35 C158.960494,244.872016 159.130031,244.349843 159.2,243.81 L159.2,243.81 C159.20005,243.491565 159.094549,243.182094 158.9,242.93 C158.69044,242.661841 158.358885,242.518669 158.02,242.55 L158,242.52 Z M172.76,252.2 C172.720948,252.039273 172.660403,251.884546 172.58,251.74 L172.47,251.5 L172.47,251.5 C172.206874,251.057969 171.868438,250.665383 171.47,250.34 C170.894843,249.907759 170.189051,249.685434 169.47,249.71 L169.47,249.71 C167.643783,249.761834 165.907369,250.513683 164.62,251.81 L164.62,251.81 C163.188802,253.234784 162.062606,254.935988 161.31,256.81 C160.496916,258.670463 159.967687,260.64243 159.74,262.66 C159.669793,263.324212 159.643069,263.992302 159.66,264.66 C159.680926,265.685749 159.877086,266.700369 160.24,267.66 L160.24,267.66 C160.484745,268.307566 160.911992,268.870282 161.47,269.28 C162.032254,269.675512 162.702572,269.888478 163.39,269.89 L163.39,269.89 C164.349681,269.735304 165.222303,269.242237 165.85,268.5 L165.85,268.5 C166.799636,267.472475 167.672013,266.376154 168.46,265.22 C168.95,264.51 169.61,263.42 170.46,261.96 C170.24,263.56 170.09,265.04 169.98,266.39 C169.8,268.263333 169.7,269.973333 169.68,271.52 C169.61,272.92 169.6,274.19 169.68,275.32 C169.710585,276.595875 169.847729,277.866964 170.09,279.12 C170.274975,280.166558 170.673226,281.163887 171.26,282.05 L171.26,282.05 C171.792827,282.809338 172.652772,283.27267 173.58,283.3 L173.63,283.3 C174.090806,283.261703 174.527993,283.079833 174.88,282.78 C175.170232,282.518643 175.419668,282.215275 175.62,281.88 L175.82,281.57 C175.88192,281.473757 175.919659,281.363973 175.93,281.25 L175.93,281 C175.934183,280.833793 175.855475,280.676378 175.72,280.58 C175.593316,280.493751 175.443249,280.448382 175.29,280.45 L175.21,280.45 C174.925465,280.529911 174.675651,280.702318 174.5,280.94 C174.310861,281.082272 174.085729,281.168861 173.85,281.19 C173.5,281.19 173.22,280.81 173.02,280.19 C172.766999,279.175409 172.62946,278.135478 172.61,277.09 C172.49029,273.019336 172.73796,268.94617 173.35,264.92 C173.824752,261.976847 174.448892,259.059745 175.22,256.18 L175.45,255.46 L175.45,255.46 C175.93,253.92 176.2,253.07 176.26,252.92 C176.276089,252.857688 176.276089,252.792312 176.26,252.73 C176.253117,252.412757 176.155993,252.10404 175.98,251.84 L175.98,251.84 C175.745417,251.577305 175.400932,251.440251 175.05,251.47 C174.438049,251.477626 173.863272,251.765015 173.49,252.25 C172.999053,252.785359 172.609399,253.405417 172.34,254.08 C172.34,254.08 172.34,254.08 172.34,254.08 C172.290074,254.203069 172.233319,254.323256 172.17,254.44 L172.17,254.44 L171.66,255.44 L171.66,255.44 C171.27,256.27 170.66,257.44 169.89,258.85 L169.89,258.85 C169.38,259.85 168.62,261.2 167.59,262.92 C166.898917,264.099476 166.130573,265.231948 165.29,266.31 C164.62,267.15 164.1,267.59 163.72,267.64 C163.34,267.69 163.17,267.11 163.08,266.2 C163.08,265.98 163.08,265.74 163.08,265.5 C163.065038,264.351227 163.152046,263.203392 163.34,262.07 C163.617721,260.391556 164.04612,258.741551 164.62,257.14 L164.62,257.14 C165.092989,255.667293 165.798574,254.279754 166.71,253.03 L166.71,253.03 C167.260942,252.11106 168.213881,251.506667 169.28,251.4 C169.672417,251.394445 170.043927,251.576485 170.28,251.89 L170.28,251.89 C170.422529,252.057556 170.543474,252.242333 170.64,252.44 L170.64,252.5 C170.694893,252.598152 170.762104,252.688887 170.84,252.77 C170.942521,252.905499 171.086484,253.003815 171.25,253.05 L171.73,253.14 L171.81,253.14 C172.145884,253.107925 172.442944,252.908631 172.6,252.61 L172.67,252.44 C172.716197,252.365988 172.749977,252.284918 172.77,252.2 L172.76,252.2 Z M192.76,272.03 L192.76,272.03 C192.61,272.03 192.47,271.86 192.33,271.52 L192.33,271.52 C192.015033,270.552396 191.872864,269.536899 191.91,268.52 C191.829877,265.641174 192.078146,262.762595 192.65,259.94 C193.078355,257.830475 193.659896,255.754977 194.39,253.73 L194.39,253.73 C194.89,252.39 195.19,251.61 195.3,251.4 C195.339319,251.340725 195.360198,251.27113 195.36,251.2 C195.368704,250.895846 195.277365,250.597238 195.1,250.35 C194.869469,250.087597 194.528017,249.950274 194.18,249.98 C193.398313,250.018776 192.681722,250.427195 192.25,251.08 C191.604864,251.902371 191.09821,252.824482 190.75,253.81 C190.54,254.32 190.12,255.24 189.47,256.58 L189.47,256.58 L188.99,257.58 C188.16,259.23 187.33,260.76 186.52,262.16 L186.52,262.16 C185.782378,263.504331 184.939759,264.788321 184,266 L184,266 C183.28,267 182.71,267.47 182.3,267.52 C182.13,267.52 182,267.39 181.89,267.16 C181.750036,266.744055 181.67581,266.308824 181.67,265.87 C181.694881,264.477114 181.859031,263.090209 182.16,261.73 L182.16,261.73 C182.446667,260.303333 182.853333,258.696667 183.38,256.91 C183.77,255.55 184.18,254.23 184.62,252.91 L184.62,252.91 L184.77,252.44 L184.77,252.44 L185.15,251.34 C185.193304,251.282669 185.214594,251.211701 185.21,251.14 C185.21557,250.845456 185.131906,250.556117 184.97,250.31 C184.778491,250.029798 184.446964,249.879455 184.11,249.92 L184.11,249.92 C183.26,249.92 182.43,250.67 181.61,252.05 C180.760385,253.553438 180.089176,255.150916 179.61,256.81 L179.61,256.81 C179.035666,258.663513 178.670068,260.575355 178.52,262.51 C178.461001,263.128127 178.440962,263.749355 178.46,264.37 C178.472733,265.389644 178.64135,266.401342 178.96,267.37 L178.96,267.37 C179.17733,268.013093 179.585453,268.574698 180.13,268.98 C180.672866,269.367869 181.322812,269.577528 181.99,269.58 L181.99,269.58 C182.927588,269.440635 183.785216,268.972838 184.41,268.26 C185.355239,267.311186 186.193583,266.261579 186.91,265.13 C187.55,264.13 188.21,263.06 188.91,261.84 C188.776681,263.215706 188.729922,264.59843 188.77,265.98 C188.77,266.32 188.77,266.66 188.82,266.98 C188.862772,268.706164 189.229112,270.408969 189.9,272 L189.9,272 C190.333786,273.206879 191.440499,274.0428 192.72,274.13 L192.72,274.13 C193.357096,274.07226 193.93751,273.740074 194.31,273.22 L194.31,273.22 C194.682417,272.736247 194.994703,272.209054 195.24,271.65 C195.387032,271.355393 195.494624,271.042704 195.56,270.72 L195.56,270.52 C195.550183,270.333573 195.433166,270.169749 195.26,270.1 C195.125788,270.036457 194.97843,270.005615 194.83,270.01 C194.695952,270.010258 194.563324,270.037463 194.44,270.09 C194.315055,270.133416 194.211352,270.222816 194.15,270.34 C194.088959,270.430243 194.048035,270.532555 194.03,270.64 L194.03,270.64 L194.03,270.64 L193.89,270.95 L193.89,270.95 C193.784733,271.217521 193.628506,271.462049 193.43,271.67 L193.43,271.67 C193.278028,271.863711 193.0462,271.977785 192.8,271.98 L192.76,272.03 Z M201.62,260.62 C201.528449,260.622842 201.441917,260.662503 201.38,260.73 C201.315186,260.796351 201.28235,260.887561 201.29,260.98 C201.29,261.12 201.44,261.33 201.72,261.61 C202.142379,261.961896 202.680753,262.143731 203.23,262.12 L203.23,262.12 C204.955973,262.083573 206.609357,261.418664 207.88,260.25 L207.88,260.25 C209.047276,259.128703 209.902053,257.722458 210.36,256.17 C210.592661,255.409041 210.700723,254.615462 210.68,253.82 C210.664586,253.215338 210.549716,252.617339 210.34,252.05 L210.34,252.05 C209.833608,250.794832 208.59231,249.993995 207.24,250.05 L207.24,250.05 C205.264239,250.080319 203.376407,250.871991 201.97,252.26 C200.42127,253.704087 199.200454,255.463698 198.39,257.42 L198.39,257.42 C197.56931,259.373344 197.118338,261.462057 197.06,263.58 L197.06,264.27 C197.065622,265.896465 197.556578,267.484236 198.47,268.83 C199.577481,270.368547 201.398096,271.229751 203.29,271.11 L203.29,271.11 C204.541514,271.073471 205.746475,270.627319 206.72,269.84 C207.539657,269.190919 208.245918,268.410316 208.81,267.53 C209.124404,267.112818 209.367684,266.646532 209.53,266.15 L209.53,266 C209.524028,265.940721 209.507073,265.883073 209.48,265.83 C209.29969,265.573004 208.991119,265.438005 208.68,265.48 C208.403282,265.469044 208.13021,265.546064 207.9,265.7 C207.784985,265.769926 207.691543,265.87029 207.63,265.99 L207.63,265.99 C207.63,266.05 207.5,266.25 207.24,266.59 L207.24,266.59 L207.15,266.74 L207.15,266.74 C206.761353,267.310674 206.285566,267.81683 205.74,268.24 C205.117242,268.71178 204.361126,268.97432 203.58,268.99 C202.499375,268.992131 201.529189,268.32811 201.14,267.32 C200.752185,266.366542 200.545325,265.349198 200.53,264.32 C200.53,263.92 200.53,263.51 200.53,263.08 C200.668078,261.299564 201.037866,259.544753 201.63,257.86 C202.173567,256.278443 202.970629,254.795771 203.99,253.47 C204.689191,252.482697 205.785261,251.85063 206.99,251.74 C207.248868,251.743703 207.496211,251.847659 207.68,252.03 C207.870167,252.276145 207.97228,252.578961 207.97,252.89 C207.943888,253.982142 207.684773,255.056106 207.21,256.04 C206.647082,257.244093 205.855779,258.327464 204.88,259.23 C204.000565,260.06526 202.851305,260.558306 201.64,260.62 L201.62,260.62 Z M247.22,239.88 L247.22,239.88 C245.841227,239.919887 244.471883,240.121261 243.14,240.48 L243.14,240.48 C241.504299,240.896355 239.908201,241.455157 238.37,242.15 L238.37,242.15 C236.899881,242.794144 235.547887,243.6797 234.37,244.77 C233.314928,245.687992 232.700387,247.011618 232.68,248.41 L232.68,248.41 L232.68,248.41 C232.692947,249.080606 232.948778,249.723736 233.4,250.22 C233.779721,250.612858 234.303635,250.833264 234.85,250.83 L234.85,250.83 C235.198121,250.817113 235.530722,250.682657 235.79,250.45 L235.79,250.45 C235.901415,250.311507 235.973903,250.14582 236,249.97 C235.995584,249.875914 235.956383,249.786821 235.89,249.72 C235.821925,249.649463 235.728029,249.609738 235.63,249.61 C235.48,249.61 235.39,249.61 235.34,249.51 C235.240715,249.339634 235.185706,249.147103 235.18,248.95 C235.169281,247.61969 235.730087,246.348771 236.72,245.46 C237.863741,244.392435 239.187518,243.535873 240.63,242.93 C241.756478,242.449219 242.920349,242.061263 244.11,241.77 C243.24529,243.099385 242.634945,244.577776 242.31,246.13 C241.76,248.2 241.24,250.64 240.78,253.45 C240.24,253.45 239.85,253.51 239.62,253.51 L239.62,253.51 C239.286906,253.527876 238.953094,253.527876 238.62,253.51 C238.460867,253.522841 238.300803,253.502407 238.15,253.45 L238.15,253.45 C238.119856,253.395227 238.074773,253.350144 238.02,253.32 C237.963476,253.283822 237.897009,253.266331 237.83,253.27 L237.78,253.27 C237.372946,253.311773 237.06737,253.661003 237.08,254.07 C237.060331,254.169033 237.060331,254.270967 237.08,254.37 C237.143481,255.24186 237.875927,255.912904 238.75,255.9 L238.75,255.9 C239.314728,255.897281 239.878892,255.863899 240.44,255.8 C240.03,258.23 239.44,260.8 238.74,263.47 C238.167901,265.736747 237.177599,267.876749 235.82,269.78 C234.698835,271.333772 232.896016,272.250081 230.98,272.24 C229.622156,272.31231 228.293426,271.828479 227.3,270.9 C226.443758,270.002479 225.91224,268.844404 225.79,267.61 L225.79,267.61 C225.738559,267.31272 225.711801,267.011693 225.71,266.71 C225.674829,265.665545 225.837696,264.623873 226.19,263.64 L226.19,263.64 C226.601215,262.351589 227.342435,261.193217 228.34,260.28 C229.325723,259.394522 230.604969,258.906342 231.93,258.91 C231.993422,258.90995 232.055638,258.892667 232.11,258.86 C232.16287,258.826118 232.204603,258.77743 232.23,258.72 C232.246192,258.650936 232.246192,258.579064 232.23,258.51 C232.181358,258.223662 232.07961,257.948942 231.93,257.7 C231.634041,257.149915 231.06453,256.802093 230.44,256.79 L230.38,256.79 C228.813253,256.802244 227.327265,257.486964 226.3,258.67 C225.197197,259.894036 224.429079,261.382051 224.07,262.99 C223.648962,264.666704 223.611364,266.41676 223.96,268.11 C224.258815,269.792798 225.106215,271.32937 226.37,272.48 C227.801335,273.757225 229.67324,274.427812 231.59,274.35 L231.59,274.35 C233.566887,274.383395 235.49976,273.764875 237.09,272.59 C238.621294,271.379293 239.844579,269.823629 240.66,268.05 C241.594202,266.093573 242.302114,264.036937 242.77,261.92 C243.299656,259.759752 243.716883,257.573481 244.02,255.37 L246.14,255.1 L248.7,254.78 L248.7,254.78 L250.63,254.54 L250.63,254.54 L252.46,254.32 C252.22,256.086667 252.013333,258.223333 251.84,260.73 C251.682764,263.126643 251.646051,265.529672 251.73,267.93 C251.706088,268.803556 251.866223,269.672371 252.2,270.48 C252.401424,271.067906 252.948674,271.467359 253.57,271.48 C253.797445,271.485914 254.017561,271.399311 254.18,271.24 C254.378707,271.077573 254.480563,270.824819 254.45,270.57 C254.396017,268.585408 254.446086,266.599351 254.6,264.62 C254.77,262.29 255.02,260.01 255.36,257.76 L255.36,257.76 C255.666667,255.493333 256.05,253.243333 256.51,251.01 C256.938901,248.911196 257.472906,246.835249 258.11,244.79 L258.11,244.79 C258.71,242.863333 259.21,241.373333 259.61,240.32 C259.99,239.32 260.21,238.77 260.27,238.65 C260.309319,238.590725 260.330325,238.52113 260.330325,238.45 C260.336948,238.177298 260.232189,237.913593 260.04,237.72 L259.99,237.72 C259.791229,237.578724 259.553854,237.501926 259.31,237.5 L259.31,237.5 C258.44,237.5 257.59,238.27 256.74,239.67 C255.786843,241.390209 255.02881,243.2115 254.48,245.1 L254.48,245.1 C253.756272,247.58419 253.195085,250.112874 252.8,252.67 L252.38,252.67 C250.86,252.76 249.65,252.85 248.74,252.94 L247.98,253 C246.43,253.11 245.22,253.21 244.33,253.29 C244.496667,252.05 244.736667,250.42 245.05,248.4 L245.05,248.4 L245.2,247.4 L245.2,247.4 C245.4047,245.84022 245.78029,244.307677 246.32,242.83 C246.74,241.83 247.32,241.31 247.97,241.28 C248.05994,241.270798 248.144316,241.232125 248.21,241.17 C248.269919,241.100685 248.301989,241.011602 248.3,240.92 C248.291777,240.766463 248.250865,240.616452 248.18,240.48 C248.09,240.11 247.77,239.94 247.24,239.88 L247.22,239.88 Z M276.22,252.08 C276.622824,252.49267 277.184171,252.711376 277.76,252.68 L278.42,252.68 L278.61,252.68 C277.986626,254.947139 277.508984,257.251849 277.18,259.58 C276.791674,262.036832 276.621012,264.523151 276.67,267.01 C276.633274,269.123376 277.092204,271.215962 278.01,273.12 C278.782822,274.61018 280.331537,275.535538 282.01,275.51 L282.01,275.51 C282.869782,275.47991 283.685502,275.122138 284.29,274.51 C284.854791,273.975081 285.321809,273.345622 285.67,272.65 C285.895921,272.278547 286.086746,271.886855 286.24,271.48 L286.24,271.48 C286.24528,271.426797 286.24528,271.373203 286.24,271.32 C286.238469,271.139941 286.143894,270.973489 285.99,270.88 C285.869469,270.797635 285.72592,270.75562 285.58,270.76 L285.46,270.76 C285.151978,270.755266 284.871566,270.936942 284.75,271.22 L284.75,271.22 C284.497846,271.763573 284.160234,272.263238 283.75,272.7 C283.315631,273.179853 282.715043,273.476572 282.07,273.53 C281.34,273.53 280.8,273 280.47,272.05 L280.47,272.05 C280.03874,270.760235 279.815942,269.409943 279.81,268.05 C279.760345,266.238469 279.857328,264.42589 280.1,262.63 C280.36,260.63 280.69,258.79 281.1,256.99 C281.36,255.82 281.77,254.21 282.33,252.18 L283.33,251.99 L283.33,251.99 L285.16,251.67 L285.16,251.67 L285.74,251.57 L285.74,251.57 C286.162831,251.485321 286.590214,251.42522 287.02,251.39 L287.02,251.39 C287.686667,251.343333 288.046667,251.093333 288.1,250.64 C288.108846,250.563589 288.108846,250.486411 288.1,250.41 C288.09988,250.235593 288.027465,250.06904 287.9,249.95 C287.787371,249.836727 287.63893,249.766041 287.48,249.75 L287.42,249.75 C286.91,249.75 286.2,249.75 285.31,249.87 L283.31,250.07 L282.85,250.07 C282.99,249.58 283.16,249 283.37,248.34 L283.37,248.34 L283.58,247.66 L283.98,246.56 C283.985545,246.516844 283.985545,246.473156 283.98,246.43 C283.988965,246.137859 283.88919,245.852787 283.7,245.63 L283.7,245.63 C283.49358,245.438884 283.221264,245.334974 282.94,245.339826 L282.94,245.339826 C282.063187,245.492119 281.316238,246.063535 280.94,246.87 C280.264985,247.962234 279.721224,249.130312 279.32,250.35 L279.12,250.35 L279.12,250.35 L277.73,250.4 C277.49048,250.414893 277.2502,250.387819 277.02,250.32 L276.87,250.22 C276.803336,250.154663 276.713334,250.118663 276.62,250.12 L276.55,250.12 C276.18142,250.182684 275.892684,250.47142 275.83,250.84 L275.83,250.84 C275.810328,250.94912 275.810328,251.06088 275.83,251.17 C275.835516,251.413481 275.904452,251.651311 276.03,251.86 L276.03,251.86 C275.973476,251.823822 275.907009,251.806331 275.84,251.81 C275.771997,251.809946 275.705638,251.830901 275.65,251.87 L275.39,251.98 L275.39,251.98 C275.147497,252.072218 274.889367,252.116372 274.63,252.11 C274.240218,252.111825 273.853546,252.040596 273.49,251.9 C273.166393,251.767865 272.855169,251.607233 272.56,251.42 C272.353752,250.407678 272.01764,249.426229 271.56,248.5 L271.56,248.5 C270.98,247.5 270.37,246.98 269.73,246.94 L269.67,246.94 C269.191535,246.966306 268.745735,247.191019 268.44,247.56 C268.117078,247.853162 267.926005,248.264148 267.91,248.7 C268.00914,249.434385 268.310337,250.126793 268.78,250.7 C269.327091,251.496807 270.027375,252.176694 270.84,252.7 L270.84,253 C270.894651,255.445876 270.618826,257.887933 270.02,260.26 C269.539341,262.238042 268.756831,264.130233 267.7,265.87 C266.77,267.25 265.87,267.96 264.99,268 C264.125482,267.944758 263.394807,267.339227 263.18,266.5 C262.869055,265.657704 262.706645,264.767834 262.7,263.87 C262.7,263.46 262.7,263.04 262.7,262.6 L262.7,262.6 C262.779858,260.970566 263.065457,259.357771 263.55,257.8 C263.965833,256.373823 264.607281,255.023406 265.45,253.8 C266.009023,252.900116 266.955558,252.312229 268.01,252.21 C268.100576,252.203195 268.185718,252.164172 268.25,252.1 C268.309919,252.030685 268.341989,251.941602 268.34,251.85 C268.297333,251.619654 268.205216,251.401302 268.07,251.21 C267.76743,250.784994 267.271351,250.540713 266.75,250.56 L266.75,250.56 C265.176946,250.64464 263.717826,251.40703 262.75,252.65 L262.75,252.65 C261.587753,254.068147 260.711576,255.698243 260.17,257.45 C259.523302,259.269404 259.205022,261.189242 259.23,263.12 L259.23,263.12 L259.23,263.41 L259.23,263.41 C259.235294,265.022885 259.673922,266.604712 260.5,267.99 C261.383101,269.389106 262.946948,270.209172 264.6,270.14 L264.6,270.14 C266.435997,269.950184 268.070927,268.894911 269,267.3 C270.321231,265.353364 271.283087,263.185802 271.84,260.9 C272.483182,258.532875 272.819272,256.092862 272.84,253.64 L273.4,253.77 C273.790204,253.859806 274.18961,253.903439 274.59,253.9 L274.59,253.9 C275.43,253.8 275.92,253.48 276.07,252.96 C276.180128,252.71663 276.247772,252.456201 276.27,252.19 C276.268944,252.152532 276.2622,252.115442 276.25,252.08 L276.22,252.08 Z M151.09,251.38 L151.09,251.38 C151.74,251.32 152.09,251.08 152.17,250.63 C152.184345,250.554004 152.184345,250.475996 152.17,250.4 C152.172484,250.227089 152.103782,250.060758 151.98,249.94 C151.863019,249.825524 151.712207,249.751871 151.55,249.73 L151.55,249.73 C151.03,249.73 150.33,249.73 149.43,249.85 C149.02,249.85 148.35,249.95 147.43,250.05 L146.97,250.1 C147.1,249.65 147.26,249.1 147.45,248.52 L147.45,248.52 L147.7,247.69 L148.1,246.59 C148.104789,246.546799 148.104789,246.503201 148.1,246.46 C148.109933,246.167711 148.010039,245.882299 147.82,245.66 L147.82,245.66 C147.612245,245.464568 147.33506,245.360174 147.05,245.37 L147.05,245.37 C146.172479,245.5205 145.42486,246.092428 145.05,246.9 C144.366977,247.987897 143.82275,249.156976 143.43,250.38 L143.23,250.38 C142.56,250.38 142.1,250.44 141.84,250.44 C141.599654,250.459522 141.357874,250.428874 141.13,250.35 L140.97,250.26 C140.904674,250.192639 140.813761,250.156274 140.72,250.16 L140.66,250.16 C140.285977,250.222928 139.992928,250.515977 139.93,250.89 L139.93,250.89 C139.919641,250.993074 139.919641,251.096926 139.93,251.2 C139.949949,251.536964 140.075958,251.858986 140.29,252.12 C140.69159,252.542726 141.257658,252.769154 141.84,252.74 L142.5,252.74 L142.7,252.74 C142.070849,255.006332 141.589832,257.311201 141.26,259.64 C140.874623,262.093724 140.707302,264.576756 140.76,267.06 C140.722832,269.169104 141.178235,271.257794 142.09,273.16 L142.09,273.16 C142.861043,274.651855 144.410905,275.577898 146.09,275.55 L146.09,275.55 C146.950942,275.525035 147.768487,275.166463 148.37,274.55 C149.206893,273.674587 149.883809,272.659214 150.37,271.55 L150.37,271.55 C150.379706,271.500471 150.379706,271.449529 150.37,271.4 C150.36634,271.217852 150.27272,271.049337 150.12,270.95 C149.994945,270.877674 149.854317,270.836515 149.71,270.83 L149.58,270.83 C149.274986,270.83542 148.999603,271.013837 148.87,271.29 L148.87,271.29 C148.615226,271.832088 148.27788,272.331361 147.87,272.77 C147.434426,273.253785 146.829136,273.551058 146.18,273.6 C145.45,273.6 144.92,273.07 144.58,272.12 L144.58,272.12 C144.140059,270.832118 143.913738,269.480946 143.91,268.12 C143.86592,266.311557 143.966239,264.502481 144.21,262.71 C144.47,260.71 144.803333,258.83 145.21,257.07 C145.47,255.95 145.86,254.4 146.4,252.44 L146.4,252.44 L146.4,252.25 L147.4,252.07 L147.4,252.07 L149.2,251.74 L149.2,251.74 L149.76,251.65 L149.76,251.65 C150.207544,251.532963 150.661689,251.442802 151.12,251.38 L151.09,251.38 Z M152.04,266.13 C152.026306,267.007423 152.151176,267.881509 152.41,268.72 C152.64,269.44 153.03,269.79 153.57,269.79 C153.808064,269.813391 154.042751,269.720261 154.2,269.54 C154.398419,269.384787 154.507035,269.141339 154.49,268.89 C154.440842,266.301617 154.655281,263.714953 155.13,261.17 C155.507484,259.041167 156.001561,256.934663 156.61,254.86 L156.61,254.86 C157.04,253.4 157.31,252.53 157.41,252.26 C157.420333,252.213905 157.420333,252.166095 157.41,252.12 C157.418551,251.778125 157.297036,251.445746 157.07,251.19 C156.832661,250.886062 156.452391,250.730152 156.07,250.78 L156.07,250.78 C155.07,250.78 154.24,251.64 153.6,253.24 C152.918205,255.066009 152.471289,256.971279 152.27,258.91 L152.27,258.91 C152.029365,261.308698 151.962524,263.721659 152.07,266.13 L152.04,266.13 Z M291.33,260.55 C291.238067,260.54996 291.150036,260.587151 291.085978,260.653093 C291.02192,260.719035 290.987296,260.808107 290.99,260.9 C291.061001,261.151177 291.211964,261.372355 291.42,261.53 C291.86778,261.881804 292.432738,262.049861 293,262 L293,262 C294.724207,261.969487 296.376475,261.303595 297.64,260.13 L297.64,260.13 C298.808752,259.005912 299.663633,257.596048 300.12,256.04 C300.351407,255.278565 300.462742,254.48572 300.45,253.69 C300.4312,253.084797 300.312954,252.486811 300.1,251.92 L300.1,251.92 C299.596033,250.66283 298.353134,249.86096 297,249.92 L297,249.92 C295.022621,249.951958 293.134226,250.747448 291.73,252.14 C290.182206,253.580984 288.961426,255.337134 288.15,257.29 L288.15,257.29 C287.326733,259.238613 286.878885,261.325178 286.83,263.44 C286.83,263.68 286.83,263.91 286.83,264.14 C286.837003,265.763147 287.327925,267.347326 288.24,268.69 C289.322698,270.228682 291.121313,271.101539 293,271 L293,271 C294.2518,270.964946 295.457219,270.518625 296.43,269.73 C297.241216,269.071064 297.943207,268.288074 298.51,267.41 C298.72,267.08 298.89,266.79 299.02,266.55 C299.129642,266.399164 299.201642,266.224306 299.23,266.04 L299.23,265.88 C299.228653,265.81991 299.2114,265.761251 299.18,265.71 C298.997263,265.456774 298.689135,265.32582 298.38,265.37 C298.108107,265.361417 297.839888,265.434567 297.61,265.58 C297.49187,265.65359 297.395278,265.757082 297.33,265.88 L297.33,265.88 C297.33,265.93 297.21,266.08 297.04,266.33 L297.04,266.33 L296.84,266.63 L296.84,266.63 C296.457455,267.202367 295.984657,267.708937 295.44,268.13 C294.812553,268.60013 294.053837,268.862359 293.27,268.88 C292.189375,268.882131 291.219189,268.21811 290.83,267.21 C290.440144,266.257159 290.233205,265.239426 290.22,264.21 C290.22,263.81 290.22,263.4 290.22,262.97 C290.36843,261.190159 290.74139,259.436239 291.33,257.75 C291.870494,256.169089 292.664159,254.686454 293.68,253.36 C294.384654,252.378713 295.477732,251.748372 296.68,251.63 C296.938868,251.633703 297.186211,251.737659 297.37,251.92 C297.561719,252.165949 297.667145,252.468169 297.67,252.78 C297.64169,253.873001 297.37911,254.947194 296.9,255.93 C296.344315,257.141264 295.552131,258.229242 294.57,259.13 C293.703707,259.971182 292.565156,260.47484 291.36,260.55 L291.33,260.55 Z M311.33,271.12 C311.33,271.12 311.33,271.12 311.33,271.12 C311.080487,271.665061 310.7426,272.165133 310.33,272.6 C309.954369,273.068389 309.407114,273.367219 308.81,273.43 C308.21,273.43 307.74,272.89 307.41,271.95 L307.41,271.95 C306.960203,270.663733 306.723751,269.312575 306.71,267.95 C306.634502,264.650205 306.855389,261.350295 307.37,258.09 C307.963333,254.576667 308.596667,251.556667 309.27,249.03 C310.116667,245.95 310.783333,243.74 311.27,242.4 L311.9,240.63 L311.9,240.63 C312.06,240.19 312.15,239.94 312.18,239.87 C312.199887,239.808228 312.199887,239.741772 312.18,239.68 C312.187988,239.389857 312.100122,239.105171 311.93,238.87 L311.93,238.87 C311.723254,238.671875 311.446288,238.563967 311.16,238.56976 L311.16,238.56976 C310.29,238.56976 309.4,239.57 308.47,241.39 C307.458604,243.553048 306.642039,245.801948 306.03,248.11 L306.03,248.11 C305.247791,251.036885 304.646652,254.009182 304.23,257.01 C303.787179,260.092673 303.596547,263.206331 303.66,266.32 L303.66,266.32 C303.655715,268.528323 304.083764,270.716127 304.92,272.76 C305.499887,274.383017 307.026676,275.47529 308.75,275.5 L308.75,275.5 C309.596528,275.467449 310.392274,275.087661 310.95,274.45 C311.505576,273.910752 311.971446,273.286216 312.33,272.6 L312.33,272.6 C312.534312,272.225123 312.714674,271.837681 312.87,271.44 C312.880026,271.407421 312.880026,271.372579 312.87,271.34 C312.87,271 312.65,270.79 312.25,270.71 L312.09,270.71 C311.775375,270.684979 311.474868,270.844989 311.32,271.12 L311.33,271.12 Z" id="Shape" fill="#000000"></path>
            <rect id="Rectangle" fill="#FFC72C" x="25" y="213" width="280" height="3"></rect>
            <path d="M228.71,47 L228.07,47.47 C227.122518,48.3411973 225.919991,48.8846129 224.64,49.02 C223.465614,48.947436 222.355693,48.4580776 221.51,47.64 L221.51,47.64 L221.51,14.87 L214,14.87 L214,47.56 L212.31,47.87 C211.719326,47.9779888 211.120443,48.0348659 210.52,48.04 C208.369159,47.9912267 206.293432,47.2396098 204.61,45.9 C203.247199,44.9703023 201.749761,44.2553093 200.17,43.78 L200.17,35.78 C200.17,35.56 200.28,34.78 200.51,33.42 C201.176667,29.48 202.626667,26.5066667 204.86,24.5 C205.931171,23.5653392 207.17439,22.8486202 208.52,22.39 L210.05,21.88 L210.05,14.17 L207.2,14.98 C204.622359,15.6664764 202.230732,16.9203727 200.2,18.65 L200.2,18.65 L200.2,18.65 L200.2,14.85 L192.68,14.85 L192.68,40.6 L191.6,40.14 C189.883604,39.44856 188.118887,38.8837167 186.32,38.45 C184.72,38.01 183.08,37.57 181.51,36.97 L189.15,36.97 L189.23,34.82 C189.23,34.45 189.23,34.08 189.23,33.72 C189.289351,29.6133264 188.149459,25.578526 185.95,22.11 C183.579887,18.0908153 179.552564,15.326607 174.95,14.56 C174.124651,14.414101 173.288146,14.3404886 172.45,14.34 C168.333911,14.3407906 164.367114,15.8818484 161.33,18.66 C157.241987,22.1320975 154.719868,27.1006716 154.33,32.45 C154.268672,32.8200462 154.24189,33.1949939 154.25,33.57 L154.25,36.44 C154.547657,39.3121923 155.314507,42.1160954 156.52,44.74 C155.792171,45.9742926 155.399212,47.377225 155.38,48.81 C155.372128,51.1813741 154.588995,53.4851203 153.15,55.37 C152.182695,56.7894514 151.412343,58.3335195 150.86,59.96 C150.1,62.31 149.29,64.67 148.48,66.96 L148.13,67.96 C147.29,70.41 143.88,72.75 141.9,72.75 C141.49539,72.7902848 141.09458,72.6432716 140.811976,72.350923 C140.529373,72.0585744 140.396027,71.6530129 140.45,71.25 C140.45,70.25 140.96,68.76 142.23,66.57 C142.34,66.38 142.49,66.14 142.67,65.85 C143.67,64.2 145.54,61.14 145.54,59.58 C145.595639,59.3013879 145.508398,59.0133993 145.307499,58.8125008 C145.106601,58.6116023 144.818612,58.5243611 144.54,58.58 C143.480095,58.6954232 142.457178,59.0363957 141.54,59.58 C138.250258,61.3057786 134.83766,62.7864652 131.33,64.01 C127.83,65.29 126.76,66.55 126.56,67.85 L126.56,55 C129.333333,55.2266667 131.536667,55.34 133.17,55.34 C138.503333,55.34 142.836667,53.8633333 146.17,50.91 C150.17,47.39 152.48,42.5566667 153.1,36.41 C153.156474,35.9120359 153.183188,35.411146 153.18,34.91 C153.18,34.5 153.24,34.05 153.24,33.57 L153.24,33.3 L153.18,33.09 L153.18,32.44 C152.9,26.4866667 150.766667,21.7566667 146.78,18.25 C143.507125,15.4542465 139.301206,13.9939572 135,14.16 C134.18,14.16 133.54,14.16 133.07,14.22 C131.736667,14.22 127.736667,14.5066667 121.07,15.08 L119.02,15.25 L119.02,75.25 L125.4,75.25 C123.937499,77.0807342 122.770082,79.1287764 121.94,81.32 C121.340159,82.7479955 120.652167,84.1373391 119.88,85.48 C119.558412,86.0230685 119.267944,86.5839726 119.01,87.16 C118.209265,87.759751 117.463036,88.4290151 116.78,89.16 C115.364461,90.7058638 113.593295,91.8832086 111.62,92.59 C110.061938,93.1830421 108.609903,94.0238718 107.32,95.08 C105.418678,96.7712796 103.168974,98.02415 100.73,98.75 C99.388884,99.1957001 98.0764125,99.7233604 96.8,100.33 C92.491101,102.579131 87.8903773,104.21816 83.13,105.2 C78.9148415,106.036417 74.7820329,107.244469 70.78,108.81 C62.38,112.02 51.6,119.23 45.71,126.09 C38.41,134.6 31.5,141.93 21.71,147.67 C18.6740573,149.466196 15.7334316,151.418825 12.9,153.52 C12.31,153.95 11.43,154.52 10.42,155.1 C6.68,157.4 1.1091698,160.82 1.1091698,164.02 C1.10119885,164.362119 1.16245372,164.702424 1.29,165.02 C2.53,168.26 5.52,169.29 8.64,169.29 C10.5994903,169.249536 12.5415359,168.912375 14.4,168.29 L16.4,167.65 C20.1330282,166.309858 23.9783099,165.305868 27.89,164.65 C29.976211,164.265684 31.9816167,163.528453 33.82,162.47 C35.8527695,161.224673 38.1684494,160.515862 40.55,160.41 C43.55,160.34 45.44,158.86 47.25,157.41 C49.06,155.96 50.68,154.72 53.25,154.71 L53.25,154.71 C56.12,154.71 57.09,155.99 57.09,157.71 C57.09,160.35 54.79,164.04 53.54,165.71 C52.1796981,168.043604 51.4042989,170.671727 51.28,173.37 C51.28,174.94 51.76,176.11 53.08,176.11 C53.7848497,176.063962 54.4694336,175.855164 55.08,175.5 L56.54,174.74 C58.43,173.74 59.3,173.31 59.95,173.31 C60.6,173.31 60.89,173.62 61.62,174.2 C62.6839909,175.063876 63.8141259,175.842933 65,176.53 C67.91,178.21 69.35,178.84 70.62,178.84 C71.6851159,178.755775 72.7240397,178.467185 73.68,177.99 C74.48,177.68 75.43,177.3 76.68,176.89 C78.2,176.38 79.77,176.02 81.32,175.66 C85.52,174.66 89.66,173.72 92.69,170.14 C96.9,165.19 99.88,164.14 102.83,164.14 C103.87761,164.163683 104.92284,164.250507 105.96,164.4 C107.215544,164.581609 108.48152,164.681818 109.75,164.7 C111.799569,164.703721 113.832701,164.334369 115.75,163.61 C118.240008,162.598054 120.562877,161.215795 122.64,159.51 C125.08,157.68 127.44,155.92 130.64,155.31 C135.42,154.38 136,153.31 136.78,151.79 C137.402059,150.456803 138.372978,149.316578 139.59,148.49 C140.49,147.83 141.25,147.35 141.95,146.91 C143.535295,145.988406 144.974428,144.835751 146.22,143.49 C147.729975,142.006196 149.521897,140.839917 151.49,140.06 C153.33,139.2 155.04,138.4 156.17,136.81 L156.86,135.81 C159.86,131.57 159.86,131.57 165.45,129.3 L165.61,129.23 C168.755857,127.836566 172.170195,127.153698 175.61,127.23 L177.42,127.23 C178.12,127.23 178.86,127.23 179.66,127.23 C180.46,127.23 181.37,127.23 182.35,127.18 L182.81,127.18 C186,127.18 188.81,128.51 188.81,129.74 C188.81,130.51 187.68,131.24 184.81,131.58 C179.93,132.15 179.33,133.26 178.63,134.58 C178.044681,135.788284 177.038339,136.741286 175.8,137.26 C173.145128,138.590844 170.76915,140.416953 168.8,142.64 C168.35,143.09 167.88,143.56 167.36,144.05 C166.657818,144.769693 166.015677,145.545613 165.44,146.37 C164.935491,147.087099 164.366455,147.756554 163.74,148.37 C162.031497,149.898523 160.694233,151.796685 159.83,153.92 C159.296796,155.127553 158.675104,156.294061 157.97,157.41 C156.870628,159.658446 156.296185,162.127183 156.29,164.63 C156.29,166.2 156.61,167.38 157.4,167.38 C157.84,167.38 158.4,167.01 159.19,166.15 C161.410556,163.552124 163.943,161.237994 166.73,159.26 C167.053391,158.966153 167.440019,158.750599 167.86,158.63 C167.94,158.63 167.97,158.63 167.97,158.75 C167.731875,159.407397 167.394646,160.024526 166.97,160.58 C166.475315,161.241291 166.096592,161.98183 165.85,162.77 C165.85,162.9 165.91,162.97 166.04,162.97 C166.161164,162.961505 166.279767,162.931007 166.39,162.88 L168.56,161.96 C169.744951,161.296976 171.064566,160.910664 172.42,160.83 C173.991028,160.92663 175.552298,161.143938 177.09,161.48 L178.36,161.7 C183.82,162.7 183.9,162.7 189.15,166.32 C192.66,168.76 193.15,169.75 194.05,171.69 C194.58647,172.862762 195.194275,174.001561 195.87,175.1 C196.48,176.1 197.32,177.2 198.19,178.37 C199.552365,180.040465 200.72302,181.858502 201.68,183.79 C202.88,186.79 204.93,187.88 207.32,187.88 C209.356328,187.771262 211.351145,187.261513 213.19,186.38 C214.411825,185.784395 215.742249,185.444133 217.1,185.38 C219.16,185.38 220.02,186.65 220.83,187.83 C221.64,189.01 222.23,189.9 223.69,189.9 C224.398673,189.871364 225.094978,189.70493 225.74,189.41 C226.515881,189.065438 227.351426,188.875233 228.2,188.85 C229.309004,188.898135 230.367936,189.325238 231.2,190.06 C231.744054,190.581547 232.44937,190.902466 233.2,190.97 C234.32,190.97 235.82,189.97 238.47,186.79 C239.463984,185.656051 240.631887,184.687299 241.93,183.92 C242.854492,183.371689 243.699089,182.698704 244.44,181.92 C244.71,181.75 244.99,181.59 245.29,181.42 C246.263534,180.816259 247.195613,180.148102 248.08,179.42 C250.08,177.87 252.38,176.16 254.17,176.16 C254.286443,176.149772 254.403557,176.149772 254.52,176.16 C255.717683,176.357622 256.926854,176.477871 258.14,176.52 C259.158531,176.506649 260.161876,176.27117 261.08,175.83 C261.81,175.55 262.75,175.18 264.19,174.74 C265.609293,174.304458 267.085383,174.082034 268.57,174.08 C270.415805,174.130549 272.250328,174.385437 274.04,174.84 C275.729389,175.263394 277.45924,175.504768 279.2,175.56 C281.972123,175.51928 284.67226,174.67136 286.97,173.12 C288.5,172.18 296.75,168.66 301.15,168.66 C302.81,168.66 303.92,169.15 303.92,170.48 C303.882901,171.113801 303.716127,171.733245 303.43,172.3 C302.43,174.51 300.27,179.4 300.27,182.97 C300.200715,184.064111 300.519395,185.147621 301.17,186.03 C301.98,186.98 310.27,188.77 312.22,188.77 L312.42,188.77 C316.31,188.35 320.36,187.59 321.53,183.43 C322.114151,181.425154 323.218145,179.610464 324.73,178.17 C325.716464,177.255279 326.485317,176.131046 326.98,174.88 C327.17085,174.367014 327.278867,173.82693 327.3,173.28 C327.322243,172.912398 327.177243,172.554419 326.905446,172.305919 C326.633649,172.057418 326.264143,171.944992 325.9,172 C324.949884,172.077588 324.033206,172.386581 323.23,172.9 C322.955538,173.083172 322.63889,173.19331 322.31,173.22 C321.83,173.22 321.6,172.82 321.6,172.22 C321.6,170.58 323.3,167.42 325.89,166.91 C328.08,166.48 329.23,165.79 329.23,164.81 C329.23,164 328.44,162.98 326.8,161.73 C325.868506,160.898567 324.685869,160.402282 323.44,160.32 C322.59447,160.365639 321.773385,160.619866 321.05,161.06 C320.401323,161.444949 319.672239,161.674285 318.92,161.73 C317.76,161.73 316.34,161 314.23,158.5 C313.385207,157.598175 312.904286,156.415465 312.88,155.18 C312.996848,153.742477 313.423266,152.34724 314.13,151.09 C314.878681,149.756492 315.325848,148.275036 315.44,146.75 C315.43938,146.095585 315.313798,145.447308 315.07,144.84 C315.35,144.52 315.62,144.19 315.89,143.84 C318.19,140.78 319.12,138.84 319.12,137.34 C319.12,135.84 318.01,134.4 316.35,132.49 C315.5,131.49 314.51,130.4 313.45,128.97 C312.087353,127.160143 310.311173,125.702853 308.27,124.72 C306.8683,124.027779 305.588309,123.112535 304.48,122.01 C302.912823,120.169263 302.076513,117.816919 302.13,115.4 C302.023477,113.563106 302.661508,111.760759 303.9,110.4 C304.888903,109.349604 305.507009,108.004522 305.66,106.57 C305.898597,104.969344 306.519461,103.449772 307.47,102.14 C308.215919,101.304584 308.678022,100.254349 308.79,99.14 C308.79,97.3 306.42,96.79 303.79,96.79 C301.807589,96.8174226 299.83218,97.0317042 297.89,97.43 C296.371888,97.7258233 294.826233,97.8565837 293.28,97.82 L292.23,97.82 C289.867361,97.7354367 287.510687,98.1089729 285.29,98.92 C282.727635,99.8649264 280.020963,100.358894 277.29,100.38 C273.119892,100.516713 269.074627,98.9455604 266.09,96.03 C265.493071,95.4127524 264.932145,94.7616768 264.41,94.08 L268.41,82.79 L260.5,82.79 L258.83,87.54 L258.5,87.05 C256.79725,84.3737063 255.420803,81.5033093 254.4,78.5 C253.78,76.86 253.15,75.36 252.54,73.91 C250.707474,70.0363009 249.43475,65.9218328 248.76,61.69 C248.446488,59.8267106 247.606832,58.0918825 246.34,56.69 C246,56.25 245.66,55.8 245.34,55.32 C250.053776,55.272526 254.531019,53.2479707 257.68,49.74 C260.893333,46.1333333 262.5,41.1333333 262.5,34.74 C262.572415,29.4198077 260.604252,24.2739565 257,20.36 C253.32,16.26 248.986667,14.21 244,14.21 C239.013333,14.21 234.72,16.2566667 231.12,20.35 C227.494608,24.2661702 225.526975,29.4343424 225.63,34.77 C225.50607,39.0530361 226.572236,43.2865484 228.71,47 Z M71,52.41 C73.96,50.59 75.7966667,47.66 76.51,43.62 L76.51,43.62 L76.51,43.62 L76.51,43.62 C76.7040358,42.4997634 76.8143411,41.3666273 76.84,40.23 C76.7852872,37.2549526 75.5685275,34.4194358 73.45,32.33 C70.083039,29.1004713 66.4723633,26.1350366 62.65,23.46 L62.65,23.46 C60.3173227,21.8513597 58.144068,20.0230129 56.16,18 C55.4759218,17.2992124 55.0645575,16.3771891 55,15.4 C55.0040442,14.9475861 55.0645111,14.4974437 55.18,14.06 L55.18,13.94 C55.4663868,11.9592132 56.5502565,10.1816669 58.18,9.02 C59.298242,8.32781122 60.5954686,7.98002931 61.91,8.02 C62.8153014,8.03363433 63.7167648,8.14087161 64.6,8.34 L64.6,8.34 C66.9428696,8.81354361 69.1194023,9.89663595 70.91,11.48 L74.63,14.68 L74.63,5.48 L73.73,4.81 C71.4504967,3.06265565 68.8095664,1.84639275 66,1.25 L66,1.25 C64.6613037,0.997078662 63.3023635,0.86654007 61.94,0.86 C58.9455832,0.779251769 55.996668,1.60536632 53.48,3.23 L53.48,3.23 C50.3975698,5.3974882 48.3149924,8.7123172 47.7,12.43 C47.4971264,13.3223481 47.3964786,14.2348878 47.4,15.15 C47.4638008,18.7634787 49.0640848,22.1786303 51.8,24.54 L51.8,24.54 L51.8,24.54 L51.8,24.54 C52.61,25.26 55.23,27.26 59.68,30.54 C62.0501147,32.2188634 64.3144143,34.0423259 66.46,36 C68.24,37.78 69.13,39.4 69.13,40.84 C69.1197851,41.1545165 69.0930817,41.4682807 69.05,41.78 C68.7492523,43.5434984 67.8779954,45.1595395 66.57,46.38 C65.2101303,47.4326187 63.5172341,47.961427 61.8,47.87 C60.9640259,47.8557851 60.130878,47.7687897 59.31,47.61 C56.1757323,46.9465413 53.2004673,45.6796762 50.55,43.88 L47.06,41.57 L47.06,50.1 L47.91,50.78 C50.6683897,52.8631655 53.896325,54.236755 57.31,54.78 L57.37,54.78 C58.5923789,54.9898841 59.8297716,55.1002462 61.07,55.11 C64.5712342,55.1874066 68.020025,54.249669 71,52.41 Z M105.05,15 L105.05,42 C104.561378,43.2341145 103.790852,44.3368231 102.8,45.22 C101.03978,46.934688 98.7143154,47.9480786 96.26,48.07 C93.06,48.07 90.91,46.9033333 89.81,44.57 C88.7313854,41.9243828 88.20396,39.0864943 88.26,36.23 L88.26,15 L80.62,15 L80.62,36.23 C80.62,41.3766667 81.4066667,45.4966667 82.98,48.59 L82.98,48.59 L82.98,48.59 L82.98,48.59 C84.98,52.39 88.71,54.6766667 94.17,55.45 L94.28,55.45 C95.28,55.54 95.97,55.59 96.48,55.59 C99.5119636,55.6124389 102.484179,54.7468463 105.03,53.1 L105.03,54.44 L112.49,54.44 L112.49,15 L105.05,15 Z M145.6,34.8 C145.6,34.22 145.66,33.64 145.66,33.07 C145.386667,29.01 144.23,26.0366667 142.19,24.15 C140.246427,22.4153579 137.702659,21.5076381 135.1,21.62 L134.1,21.62 L134,21.62 C131.64,21.68 129.19,21.83 126.61,22.07 L126.61,47.5 C130.35,47.79 132.79,47.93 133.95,47.93 L134.63,47.93 C137.217902,47.870021 139.691235,46.8507513 141.57,45.07 C143.47,43.4166667 144.776667,40.47 145.49,36.23 L145.49,36.11 C145.55,35.5 145.58,35.11 145.58,34.88 L145.58,34.75 L145.6,34.8 Z M165.88,24.74 C164.418302,26.0263014 163.298237,27.6548624 162.62,29.48 L181,29.48 C180.771541,28.64657 180.435374,27.8464908 180,27.1 L180,27.1 L180,27.1 C178.08,23.7 175.66,22 172.74,22 C170.194711,22.0412504 167.753323,23.0163819 165.88,24.74 L165.88,24.74 Z M221.49,6 L214,6 L214,13.5 L221.53,13.5 L221.49,6 Z M244.19,47.87 C247.140812,47.9589899 249.972745,46.7048481 251.89,44.46 L251.89,44.46 C253.89,42.16 254.96,38.95 254.96,34.86 C255.019142,31.4413915 253.811667,28.1217264 251.57,25.54 C249.830457,23.1994624 247.086183,21.8198545 244.17,21.8198545 C241.253817,21.8198545 238.509543,23.1994624 236.77,25.54 C234.528333,28.1217264 233.320858,31.4413915 233.38,34.86 C233.38,38.9866667 234.38,42.2133333 236.38,44.54 C238.341104,46.7772851 241.218822,47.9932224 244.19,47.84 L244.19,47.87 Z M273.5,18.67 L273.5,18.67 L273.5,14.87 L266,14.87 L266,54.46 L273.52,54.46 L273.52,35.72 C273.52,35.5 273.63,34.72 273.85,33.36 C274.516667,29.4333333 275.966667,26.46 278.2,24.44 C279.271566,23.5082815 280.514859,22.7949167 281.86,22.34 L283.4,21.83 L283.4,14.15 L280.55,14.95 C277.976121,15.6461027 275.586509,16.8989421 273.55,18.62 L273.55,18.62 L273.55,18.62 L273.5,18.67 Z M163.88,52.87 C166.03038,54.1151128 168.412377,54.9079774 170.88,55.2 L170.82,55.28 C170.388172,56.0946304 169.551644,56.6141182 168.63,56.64 C168.372224,56.6311186 168.115152,56.6077484 167.86,56.57 C167.561425,56.5309997 167.261015,56.5076345 166.96,56.5 C166.12,56.5 165.39,55.94 164.14,57.09 L163,58.75 C160.54,61.02 159,61.4 157,64.75 C156.13,66.18 155.44,67.37 154.72,67.37 C154,67.37 153.55,66.7 153.55,65.46 C153.55,63.96 155.34,62.29 157.55,59.85 C158.39,58.93 159.72,57.8 160.75,56.85 C162.030711,55.7285276 163.092036,54.3789842 163.88,52.87 L163.88,52.87 Z M167.88,37 C167.88,37.1 167.88,37.21 167.88,37.31 C167.909289,38.2972632 168.098408,39.2732522 168.44,40.2 C169.014631,41.7273128 169.762873,43.1835319 170.67,44.54 C171.319639,45.5221787 171.881798,46.5594942 172.35,47.64 L172.48,47.98 L172.35,47.98 C169.962831,47.752385 167.708742,46.7758466 165.91,45.19 C164.136667,43.65 162.89,40.9233333 162.17,37.01 L167.88,37 Z" id="Shape" fill="#FFFFFF"></path>
            <path d="M146.48,35 L146.48,35 C146.48,35.24 146.48,35.69 146.39,36.32 L146.39,36.48 C145.643333,40.98 144.22,44.1466667 142.12,45.98 C140.053277,47.932842 137.332875,49.0452473 134.49,49.1 L133.88,49.1 L133.81,49.1 C132.53,49.1 129.736667,48.9266667 125.43,48.58 L125.43,21.26 C128.37,20.9466667 131.173333,20.7633333 133.84,20.71 L133.84,20.71 L134.91,20.71 C137.779013,20.5881368 140.581939,21.5930271 142.72,23.51 C144.973333,25.59 146.24,28.81 146.52,33.17 C146.53,33.74 146.51,34.35 146.48,35 Z M70.32,51.63 C72.9866667,49.9766667 74.6533333,47.2833333 75.32,43.55 L75.32,43.55 C75.5052428,42.4859331 75.6121963,41.409713 75.64,40.33 C75.5822197,37.6191245 74.4659713,35.038473 72.53,33.14 C69.2020216,29.9591195 65.6385536,27.034134 61.87,24.39 L61.87,24.39 C59.4754112,22.7529703 57.2479801,20.8839379 55.22,18.81 C54.3489585,17.9307614 53.8266213,16.7652745 53.75,15.53 C53.7648362,14.9849136 53.8488417,14.4439184 54,13.92 L54,13.85 C54.3251858,11.5939858 55.565991,9.57179894 57.43,8.26 C58.7187971,7.4490609 60.2176959,7.03521181 61.74,7.07 C62.7159846,7.08023486 63.6881151,7.19420878 64.64,7.41 L64.64,7.41 C67.1625674,7.91876976 69.5073802,9.08083138 71.44,10.78 L73.44,12.48 L73.44,6.12 L73,5.76 C70.8379583,4.10508446 68.3337117,2.95374599 65.67,2.39 L65.67,2.39 C64.3790019,2.13366049 63.0661979,2.00304989 61.75,2 C58.9623388,1.92807035 56.2172523,2.69446505 53.87,4.2 L53.87,4.2 C51.006453,6.21621765 49.0775178,9.30251408 48.52,12.76 C48.336442,13.5805563 48.2458713,14.4191736 48.25,15.26 C48.3225342,18.5834182 49.8017771,21.7199947 52.32,23.89 L52.32,23.89 C53.0933333,24.5566667 55.69,26.5233333 60.11,29.79 C62.5557026,31.4792346 64.8935813,33.3194791 67.11,35.3 C69.11,37.3 70.11,39.15 70.11,40.88 C70.0935743,41.255045 70.0568539,41.6289256 70,42 C68.9666667,46.6666667 66.2066667,49 61.72,49 C60.8169577,48.9840668 59.9169653,48.8903873 59.03,48.72 C55.76031,48.0323792 52.6558462,46.7145106 49.89,44.84 L48,43.6 L48,49.67 L48.45,50.03 C51.0877684,52.0283019 54.1801678,53.3408536 57.45,53.85 L57.45,53.85 C58.6160878,54.0518685 59.79662,54.1588856 60.98,54.17 C64.273684,54.246257 67.5185631,53.3638166 70.32,51.63 Z M244,15.38 C239.4,15.38 235.363333,17.31 231.89,21.17 C228.439335,24.8950376 226.568091,29.8133269 226.67,34.89 C226.67,40.89 228.25,45.6233333 231.41,49.09 C234.616982,52.6307405 239.22624,54.5710953 244,54.39 C249.413333,54.39 253.673333,52.64 256.78,49.14 C259.886667,45.64 261.403333,40.89 261.33,34.89 C261.425463,29.8254834 259.579203,24.9164355 256.17,21.17 C252.676667,17.31 248.62,15.38 244,15.38 Z M152.15,33.67 L152.15,33.52 L152.15,33.38 C152.15,33.31 152.15,33.06 152.15,32.64 L152.15,32.64 C151.89,26.98 149.873333,22.4933333 146.1,19.18 C143.011124,16.5577 139.048463,15.1939734 135,15.36 C134.19,15.36 133.57,15.36 133.13,15.42 C131.856667,15.42 127.88,15.7066667 121.2,16.28 L120.1,16.37 L120.1,74.37 L125.53,74.37 L125.53,54 C128.81,54.2866667 131.363333,54.43 133.19,54.43 C138.23,54.43 142.333333,53.04 145.5,50.26 C149.3,46.9266667 151.493333,42.3133333 152.08,36.42 C152.133726,35.9453074 152.157106,35.4676704 152.15,34.99 C152.159658,34.5496037 152.146307,34.1090034 152.11,33.67 L152.15,33.67 Z M219.15,83.39 C218.7,83.39 218.24,83.39 217.8,83.39 C213.630092,83.3153046 209.587474,84.8272652 206.49,87.62 C202.725348,90.9319051 200.282375,95.4911742 199.61,100.46 L199.61,100.46 C199.411943,101.703872 199.304992,102.960548 199.29,104.22 C199.188077,108.74327 200.622851,113.167449 203.36,116.77 C206.043759,120.516988 210.391477,122.713258 215,122.65 C218.854225,122.666118 222.574935,121.239192 225.43,118.65 C225.89,118.25 226.32,117.84 226.72,117.44 L226.72,121.37 L232.15,121.37 L232.15,84.37 L231.09,84.24 C226.736667,83.74 222.75,83.4566667 219.13,83.39 L219.15,83.39 Z M226.76,103.69 C226.7,108.083333 225.236667,111.546667 222.37,114.08 C220.311883,116.006186 217.617987,117.109367 214.8,117.18 C211.54,117.18 208.81,115.336667 206.61,111.65 C205.390566,109.399337 204.780412,106.869092 204.84,104.31 C204.832969,101.969323 205.25669,99.6473303 206.09,97.46 L206.09,97.46 C206.812129,95.314564 208.048037,93.3783076 209.69,91.82 C211.819705,89.8388741 214.611491,88.7228728 217.52,88.69 L218.34,88.69 L218.42,88.69 C219.68,88.69 222.456667,88.8633333 226.75,89.21 L226.76,103.69 Z M261.12,84 L251.21,112.08 L241,84 L235.24,84 L248.35,120.19 L243.71,133.47 C243.369565,134.271955 242.865482,134.994021 242.23,135.59 C241.136691,136.619155 239.726425,137.246724 238.23,137.37 L237.13,137.5 L237.36,142.65 L238.66,142.47 C241.48838,142.212213 244.161017,141.059792 246.29,139.18 C247.132502,138.354867 247.811124,137.377651 248.29,136.3 L248.42,136.3 L248.69,135.48 L248.78,135.18 C248.812266,135.033551 248.855727,134.889795 248.91,134.75 L248.91,134.75 L266.81,84 L261.12,84 Z M220.32,7.12 L214.9,7.12 L214.9,12.55 L220.32,12.55 L220.32,7.12 Z M274.08,19.6 C273.448151,20.1501983 272.85663,20.7450616 272.31,21.38 L272.31,16.1 L266.88,16.1 L266.88,53.6 L272.31,53.6 L272.31,35.91 C272.380587,35.0614716 272.494065,34.2170586 272.65,33.38 C273.34,29.19 274.91,26.02 277.35,23.84 C278.519811,22.8163447 279.878696,22.0315885 281.35,21.53 L282.17,21.26 L282.17,15.72 L280.65,16.15 C278.228153,16.7983023 275.980644,17.9767076 274.07,19.6 L274.08,19.6 Z M244.08,48.98 C240.811036,49.1089438 237.660963,47.7436668 235.52,45.27 C233.333333,42.75 232.24,39.2933333 232.24,34.9 C232.178092,31.229977 233.478495,27.6672272 235.89,24.9 C237.831535,22.3381497 240.860559,20.8331182 244.075,20.8331182 C247.289441,20.8331182 250.318465,22.3381497 252.26,24.9 C254.67429,27.666247 255.978193,31.2288243 255.92,34.9 C255.92,39.26 254.806667,42.6933333 252.58,45.2 L252.58,45.2 C250.475557,47.6924201 247.350759,49.0910342 244.09,49 L244.08,48.98 Z M214.9,16 L214.9,53.6 L220.32,53.6 L220.32,16 L214.9,16 Z M168.32,119.45 C170.986667,117.803333 172.653333,115.11 173.32,111.37 L173.32,111.37 C173.505243,110.305933 173.612196,109.229713 173.64,108.15 C173.581161,105.439355 172.465078,102.859086 170.53,100.96 C167.20379,97.7811307 163.643802,94.8562575 159.88,92.21 L159.88,92.21 C157.485411,90.5729703 155.25798,88.7039379 153.23,86.63 C152.357427,85.7518125 151.834817,84.5857184 151.76,83.35 C151.763474,82.8133201 151.83402,82.2791791 151.97,81.76 L151.97,81.69 C152.29746,79.4348081 153.537754,77.4134536 155.4,76.1 C156.688797,75.2890609 158.187696,74.8752118 159.71,74.91 C160.689255,74.9207282 161.664648,75.0346916 162.62,75.25 L162.62,75.25 C165.138874,75.7608633 167.479938,76.922776 169.41,78.62 L171.41,80.32 L171.41,73.96 L170.93,73.6 C168.769187,71.9430457 166.264459,70.7914861 163.6,70.23 L163.6,70.23 C162.328744,69.9770042 161.03617,69.8464074 159.74,69.84 C156.952339,69.7680704 154.207252,70.5344651 151.86,72.04 L151.86,72.04 C149.002306,74.0617518 147.075057,77.1453502 146.51,80.6 C146.326442,81.4205563 146.235871,82.2591736 146.24,83.1 C146.312534,86.4234182 147.791777,89.5599947 150.31,91.73 L150.31,91.73 C151.076667,92.3966667 153.673333,94.3633333 158.1,97.63 C160.547715,99.3165057 162.885761,101.156882 165.1,103.14 C167.1,105.14 168.1,107 168.1,108.72 C168.091957,109.098478 168.058548,109.475991 168,109.85 C166.973333,114.476667 164.213333,116.793333 159.72,116.8 C158.816988,116.783575 157.917037,116.6899 157.03,116.52 C153.76031,115.832379 150.655846,114.514511 147.89,112.64 L146,111.42 L146,117.49 L146.45,117.85 C149.077508,119.835451 152.149611,121.150105 155.4,121.68 L155.4,121.68 C156.589192,121.885222 157.793254,121.99225 159,122 C162.286998,122.061956 165.522397,121.176734 168.32,119.45 Z M188,34.89 C188,34.54 188,34.19 188,33.89 C188.049228,29.9996905 186.968909,26.1786272 184.89,22.89 C182.680179,19.1273823 178.921613,16.5326178 174.62,15.8 C173.850633,15.6656605 173.071007,15.5987398 172.29,15.5999542 C168.437015,15.5906423 164.718663,17.016664 161.86,19.6 C157.973735,22.9162842 155.581503,27.6539124 155.22,32.75 C155.164884,33.0803447 155.141444,33.4151983 155.15,33.75 L155.15,36.49 C155.816667,42.49 158.01,47.11 161.73,50.35 C165.06447,53.1975128 169.348286,54.6861386 173.73,54.52 L174.18,54.52 C175.54,54.44 176.59,54.36 177.32,54.27 C180.061768,53.960056 182.769616,53.4010812 185.41,52.6 L186.26,52.34 L186.26,46.9 L184.74,47.33 C182.993333,47.8166667 181.326667,48.2566667 179.74,48.65 L179.74,48.65 C178.130519,49.0675991 176.472662,49.2693667 174.81,49.25 C174.37,49.25 173.91,49.25 173.44,49.25 L173.38,49.25 C170.321872,49.2803392 167.361084,48.1758337 165.07,46.15 C163.01,44.35 161.61,41.15 160.86,36.67 L160.86,36.67 C160.82121,36.5016688 160.79117,36.3314405 160.77,36.16 L187.99,36.16 L188,34.89 Z M165,24.13 C167.023872,22.2191175 169.677898,21.1162382 172.46,21.03 C175.793333,21.03 178.52,22.91 180.64,26.67 L180.64,26.67 L180.64,26.67 C181.388243,27.8965817 181.897225,29.2538679 182.14,30.67 L161,30.67 C161.635648,28.1332863 163.031302,25.8513929 165,24.13 L165,24.13 Z M106,16.23 L106,42.42 C105.446207,43.8824459 104.547391,45.1895032 103.38,46.23 C101.431798,48.1090676 98.864136,49.2115262 96.16,49.33 C92.5066667,49.33 90.04,47.9633333 88.76,45.23 C87.6097897,42.4486184 87.047995,39.4591898 87.11,36.45 L87.11,16.23 L81.55,16.23 L81.55,36.4 C81.55,41.3866667 82.3,45.3466667 83.8,48.28 L83.8,48.28 C85.6466667,51.7666667 89.1166667,53.8733333 94.21,54.6 L94.27,54.6 C95.2,54.68 95.9,54.7202147 96.38,54.7202147 C99.8938419,54.7389625 103.29871,53.5011511 105.98,51.23 L105.98,53.57 L111.34,53.57 L111.34,16.23 L106,16.23 Z M200.73,19.6 L200.73,19.6 C200.103,20.155357 199.511816,20.7498812 198.96,21.38 L198.96,16.1 L193.53,16.1 L193.53,53.6 L198.96,53.6 L198.96,35.91 C198.96,35.64 199.08,34.79 199.31,33.38 C199.99,29.19 201.56,26.02 204.01,23.84 C205.179053,22.8152864 206.538158,22.030403 208.01,21.53 L208.83,21.26 L208.83,15.72 L207.31,16.15 C204.885587,16.7994246 202.635053,17.9776254 200.72,19.6 L200.73,19.6 Z M190.1,116.05 C189.23,115.26 188.65,113.68 188.38,111.32 C188.32,110.49 188.26,107.8 188.2,103.23 C188.2,100.756667 188.2,98.27 188.2,95.77 C188.2,93.6366667 188.2,91.4966667 188.2,89.35 L196,89.35 L196,83.92 L188.18,83.92 L188.18,78 L182.75,78 L182.75,83.89 L177.66,83.89 L177.66,89.32 L182.74,89.32 C182.74,91.49 182.74,93.66 182.74,95.81 C182.74,98.36 182.74,100.89 182.74,103.41 C182.81,108.41 182.91,111.57 183.06,112.98 L183.06,112.98 L183.06,112.98 C183.46,116.093333 184.503333,118.383333 186.19,119.85 C187.589878,120.922194 189.287941,121.533637 191.05,121.6 C191.93,121.68 193.51,121.72 195.77,121.72 L197,121.72 L197,116.72 L195,116.72 C192.3,116.79 190.67,116.54 190.09,116.05 L190.1,116.05 Z" id="Shape" fill="#151711"></path>
            <path d="M183.27,37 L167.12,37 C167.115147,37.0298037 167.115147,37.0601963 167.12,37.09 L167.12,37.43 C167.150726,38.4955197 167.353334,39.5490841 167.72,40.55 C168.314856,42.112303 169.079437,43.6045761 170,45 L170,45.08 C170.58038,45.9783306 171.095055,46.9174451 171.54,47.89 C172.201708,47.9923149 172.870433,48.0424693 173.54,48.04 L173.65,48.04 L174.97,48.04 C176.538103,48.0627726 178.102139,47.8744155 179.62,47.48 L179.67,47.48 C181.236667,47.0866667 182.903333,46.6466667 184.67,46.16 L187.52,45.36 L187.52,53 L185.92,53.48 C183.217904,54.3033703 180.44647,54.8790788 177.64,55.2 C176.9,55.28 175.83,55.36 174.45,55.45 L173.94,55.45 C172.670585,55.4539009 171.402993,55.3535638 170.15,55.15 C169.9328,55.4659887 169.653861,55.7347223 169.33,55.94 C169.10752,56.0547104 168.860293,56.1130834 168.61,56.11 L168,56 L167.92,56 C167.588498,55.9553854 167.254484,55.9320044 166.92,55.93 C166.755385,55.9224133 166.591582,55.9023558 166.43,55.87 C166.179811,55.8176787 165.925489,55.7875616 165.67,55.78 C164.890052,55.8167535 164.153415,56.1493131 163.61,56.71 L163.51,56.82 L162.41,58.41 C161.91,58.86 161.25,59.41 160.41,60.04 C159.687464,60.572165 159.002505,61.1535454 158.36,61.78 C157.56489,62.6016394 156.870037,63.5146834 156.29,64.5 L156.29,64.5 L156.2,64.64 L156.2,64.64 C155.36,66.02 154.84,66.73 154.61,66.78 C154.38,66.83 154.16,66.37 154.16,65.57 C154.241413,64.9628537 154.498641,64.3927802 154.9,63.93 C155.25,63.45 155.97,62.63 157.05,61.46 L157.05,61.46 L157.99,60.46 L157.99,60.46 C158.43,59.98 159.3,59.17 160.58,58.04 L160.58,58.04 L161.13,57.55 L161.13,57.55 C162.500893,56.3692565 163.637337,54.9410692 164.48,53.34 C164.483765,53.3101181 164.483765,53.2798819 164.48,53.25 C163.309823,52.6209431 162.215955,51.8592621 161.22,50.98 C159.092986,49.1169376 157.411603,46.7999098 156.3,44.2 C156.246583,44.2151745 156.195942,44.2388071 156.15,44.27 C156.042013,44.3315165 155.949629,44.4170568 155.88,44.52 C155.077491,45.8553531 154.649178,47.3820835 154.64,48.94 C154.648642,50.1356212 154.435015,51.3224369 154.01,52.44 C153.596013,53.3800343 153.097287,54.2804185 152.52,55.13 C151.98,55.99 151.57,56.68 151.29,57.2 C150.833912,58.0624822 150.452519,58.9624365 150.15,59.89 C149.65,61.43 148.866667,63.7633333 147.8,66.89 L147.8,66.89 L147.43,67.96 L147.43,67.96 C146.944889,69.1873373 146.09277,70.2350251 144.99,70.96 C144.116995,71.7239742 143.025131,72.1929155 141.87,72.3 C141.670135,72.3160591 141.471213,72.2592242 141.31,72.14 C141.16922,71.9619786 141.104519,71.7355246 141.13,71.51 C141.35168,69.9617694 141.93024,68.4862688 142.82,67.2 L143.24,66.48 C144.07,65.14 144.68,64.06 145.09,63.27 C145.711297,62.2251434 146.100124,61.0586637 146.23,59.85 C146.248163,59.4128089 146.101884,58.9846751 145.82,58.65 C145.484073,58.3158584 145.023305,58.1380818 144.55,58.16 C143.363318,58.2900647 142.219698,58.679237 141.2,59.3 C139.36,60.3 137.69,61.04 136.2,61.67 C134.9,62.24 133.2,62.9 131.05,63.67 C129.650308,64.1198657 128.34286,64.8176233 127.19,65.73 C126.969769,65.9197579 126.768796,66.1307798 126.59,66.36 L126.59,75.36 L124.59,75.36 C123.92934,76.1820005 123.349961,77.0661394 122.86,78 C122.47,78.71 121.96,79.79 121.3,81.27 C120.711495,82.6669408 120.043742,84.0291558 119.3,85.35 C118.995318,85.864898 118.71826,86.3956488 118.47,86.94 C117.69012,87.546234 116.961032,88.2151221 116.29,88.94 C115.563602,89.7486993 114.725083,90.4491496 113.8,91.02 C113.016437,91.4655968 112.204724,91.859762 111.37,92.2 C110.44,92.6 109.73,92.93 109.23,93.2 C108.396585,93.6506766 107.612357,94.1869007 106.89,94.8 C105.845492,95.7046374 104.705415,96.4926318 103.49,97.15 C102.542596,97.6046784 101.567304,97.998803 100.57,98.33 L100.57,98.33 C99.2081314,98.7928548 97.8727774,99.3303348 96.57,99.94 C93.92,101.23 91.73,102.18 89.99,102.82 C87.7065415,103.61357 85.3709796,104.248415 83,104.72 C80.53,105.24 78.43,105.72 76.7,106.26 C74.97,106.8 72.82,107.49 70.55,108.36 C65.737322,110.273813 61.1633177,112.740353 56.92,115.71 C52.588493,118.565343 48.6456063,121.970411 45.19,125.84 C41.7379474,129.958545 38.0659308,133.887603 34.19,137.61 C30.2830522,141.293755 25.9801591,144.533502 21.36,147.27 C18.9066667,148.69 15.9533333,150.653333 12.5,153.16 C12.15,153.41 11.4,153.88 10.28,154.57 L10.28,154.57 L10.05,154.71 L10.05,154.71 C7.91853947,155.969488 5.8709177,157.365745 3.92,158.89 C1.58,160.83 0.41,162.61 0.41,164.23 C0.41,164.647271 0.48976224,165.060709 0.64,165.45 C1.23918126,167.076409 2.44275559,168.408938 4,169.17 C5.46378867,169.875464 7.07580487,170.218446 8.7,170.17 C10.7407254,170.161053 12.7666823,169.823393 14.7,169.17 L14.7,169.17 L16.84,168.47 L16.84,168.47 C19.25,167.68 21.03,167.13 22.2,166.81 C24.1106761,166.289115 26.0464843,165.86524 28,165.54 C29.1725047,165.354822 30.3199686,165.036082 31.42,164.59 C32.08,164.32 32.98,163.89 34.14,163.3 L34.14,163.3 C35.0878721,162.789967 36.0664104,162.339105 37.07,161.95 C38.1930937,161.558267 39.3708257,161.345668 40.56,161.32 C41.9928404,161.293105 43.399835,160.933653 44.67,160.27 C45.7271444,159.670507 46.7308344,158.981307 47.67,158.21 L47.67,158.21 C48.4751976,157.545598 49.3349001,156.950162 50.24,156.43 C51.1618674,155.932742 52.1925734,155.67163 53.24,155.67 L53.24,155.67 C54.1328797,155.587365 55.0260584,155.824838 55.76,156.34 C56.1957416,156.757203 56.4198872,157.348801 56.37,157.95 C56.2581681,159.357376 55.8382544,160.722949 55.14,161.95 C54.5298952,163.202086 53.8139598,164.399772 53,165.53 C52.2930406,166.613785 51.7599323,167.80147 51.42,169.05 C50.9216496,170.520823 50.6452806,172.057704 50.6,173.61 C50.5641056,174.413487 50.7363337,175.212625 51.1,175.93 C51.4945093,176.659328 52.2717014,177.098441 53.1,177.06 C53.9305791,177.022355 54.7399581,176.785714 55.46,176.37 L56.91,175.62 L56.91,175.62 C57.99,175.06 58.7,174.7 59.05,174.55 C59.3620055,174.390992 59.7013323,174.292587 60.05,174.26 C60.5125598,174.40635 60.9340045,174.659902 61.28,175 L61.28,175 C62.3399719,175.838385 63.4558951,176.603494 64.62,177.29 C65.7499324,177.967819 66.9186008,178.578866 68.12,179.12 C68.8967266,179.475211 69.7363518,179.672369 70.59,179.7 C71.1372204,179.691801 71.6800428,179.600768 72.2,179.43 C72.54,179.33 73.12,179.12 73.92,178.8 L73.92,178.8 L73.92,178.8 L73.92,178.8 C75.06,178.35 76.03,177.99 76.84,177.72 C77.84,177.4 79.31,177 81.33,176.53 L81.33,176.53 L81.42,176.53 L81.42,176.53 C83.5416304,176.089447 85.6248643,175.480862 87.65,174.71 C89.7740188,173.863317 91.6636627,172.51896 93.16,170.79 C94.6411757,168.913341 96.4504597,167.3209 98.5,166.09 C99.8093719,165.38691 101.273819,165.022517 102.76,165.03 C103.763952,165.056008 104.765591,165.139478 105.76,165.28 L105.82,165.28 C107.099924,165.453236 108.38868,165.553398 109.68,165.58 C111.803935,165.575127 113.910071,165.192501 115.9,164.45 C117.237971,163.947627 118.518547,163.303987 119.72,162.53 C120.5,162.05 121.58,161.29 122.97,160.25 C124.13677,159.347741 125.35191,158.509828 126.61,157.74 C127.848947,157.00454 129.20026,156.477528 130.61,156.18 C132.312536,155.94563 133.9531,155.381792 135.44,154.52 C135.874446,154.225257 136.253573,153.856285 136.56,153.43 C136.81506,153.071165 137.042386,152.693404 137.24,152.3 L137.24,152.3 L137.24,152.3 L137.24,152.3 C137.491743,151.807443 137.78268,151.335924 138.11,150.89 C138.602282,150.263551 139.185384,149.714156 139.84,149.26 C140.44,148.82 141.21,148.26 142.16,147.71 C143.11,147.16 143.76,146.71 144.24,146.31 C145.075382,145.663361 145.854805,144.947497 146.57,144.17 C147.279432,143.413394 148.094531,142.763336 148.99,142.24 C149.57,141.89 150.44,141.44 151.62,140.89 L151.62,140.89 C152.534441,140.475208 153.425747,140.011196 154.29,139.5 C155.1778,138.961224 155.952208,138.254747 156.57,137.42 L157.25,136.42 L157.25,136.42 C158.12,135.19 158.72,134.42 159.05,133.97 C159.450401,133.451077 159.913982,132.984138 160.43,132.58 C161.008034,132.157641 161.632003,131.802046 162.29,131.52 C162.83,131.26 163.91,130.81 165.53,130.15 L165.69,130.09 L165.69,130.09 C167.417313,129.365424 169.212975,128.816005 171.05,128.45 C172.480091,128.20603 173.929357,128.09223 175.38,128.11 L177.19,128.11 L179.44,128.11 C180.44,128.11 181.44,128.11 182.16,128.11 L182.6,128.11 C183.948235,128.091396 185.285907,128.350081 186.53,128.87 C186.938854,129.036614 187.317304,129.269766 187.65,129.56 C187.83,129.73 187.93,129.87 187.93,129.96 C187.93,130.05 187.75,130.24 187.4,130.41 C186.490627,130.794286 185.524559,131.027358 184.54,131.1 C182.822618,131.203909 181.143202,131.649261 179.6,132.41 C179.162473,132.671403 178.776178,133.010258 178.46,133.41 C178.22287,133.727491 178.00898,134.061693 177.82,134.41 L177.82,134.41 C177.59706,134.831269 177.328805,135.226945 177.02,135.59 C176.520758,136.084307 175.938582,136.487092 175.3,136.78 C173.873554,137.462221 172.531218,138.307893 171.3,139.3 C170.56,139.913333 169.5,140.913333 168.12,142.3 L168.12,142.3 C167.58,142.83 167.12,143.3 166.69,143.7 C165.987969,144.422557 165.342722,145.198191 164.76,146.02 L164.76,146.02 L164.68,146.12 C164.197004,146.803454 163.662089,147.448695 163.08,148.05 C162.090061,148.944725 161.207472,149.95148 160.45,151.05 C159.916362,151.930681 159.435515,152.842287 159.01,153.78 C158.47647,154.95744 157.868575,156.099747 157.19,157.2 C156.574317,158.277896 156.141775,159.45049 155.91,160.67 C155.584963,162.023059 155.413878,163.408517 155.4,164.8 C155.375429,165.544993 155.476855,166.288786 155.7,167 C155.856965,167.717834 156.485366,168.234611 157.22,168.25 C158.160509,168.10123 158.998978,167.573572 159.54,166.79 C160.641317,165.525045 161.80615,164.316823 163.03,163.17 C163.95,162.33 164.95,161.5 166.03,160.67 C165.75,161.13 165.54,161.47 165.42,161.67 C165.186903,162.04653 165.040056,162.469996 164.99,162.91 C164.983199,163.143533 165.069542,163.370185 165.23,163.54 C165.401316,163.720168 165.641527,163.818437 165.89,163.81 C166.10345,163.801347 166.313542,163.753907 166.51,163.67 C167.04,163.45 167.71,163.17 168.51,162.81 L168.51,162.81 L168.68,162.74 C169.68,162.3 170.38,162.03 170.75,161.91 C171.231216,161.753219 171.733893,161.672251 172.24,161.67 C173.681393,161.777738 175.114356,161.978152 176.53,162.27 L176.53,162.27 L178.06,162.54 L178.06,162.54 C179.65,162.81 180.72,163.02 181.29,163.14 C182.004099,163.296022 182.70337,163.513499 183.38,163.79 C184.105143,164.108836 184.801111,164.49028 185.46,164.93 C186.04,165.3 187.08,166 188.57,167.04 C189.77549,167.81801 190.880487,168.74164 191.86,169.79 C192.414919,170.509984 192.878453,171.295976 193.24,172.13 L193.24,172.13 L193.24,172.2 L193.24,172.2 C193.781191,173.367184 194.388855,174.50238 195.06,175.6 C195.48,176.28 196.26,177.39 197.41,178.93 C198.723821,180.556277 199.863392,182.315909 200.81,184.18 C202.01,187.206667 204.11,188.72 207.11,188.72 C209.244189,188.619817 211.336095,188.089187 213.26,187.16 C214.395272,186.606402 215.629083,186.283504 216.89,186.21 C217.56999,186.189761 218.235452,186.409222 218.77,186.83 C219.254697,187.269147 219.675456,187.774058 220.02,188.33 L220.02,188.33 L220.02,188.33 L220.02,188.33 C220.384373,188.901176 220.813924,189.428047 221.3,189.9 C221.899302,190.426196 222.672555,190.711266 223.47,190.7 C224.270933,190.671393 225.058757,190.48802 225.79,190.16 C226.479907,189.849255 227.223788,189.676022 227.98,189.65 C228.475714,189.64846 228.96509,189.761393 229.41,189.98 C229.822314,190.193349 230.213986,190.444421 230.58,190.73 L230.58,190.73 C230.895103,190.985361 231.229427,191.216044 231.58,191.42 C231.997813,191.646325 232.464839,191.766515 232.94,191.77 C233.856211,191.714304 234.729766,191.363478 235.43,190.77 C236.661787,189.758993 237.778515,188.615436 238.76,187.36 C239.236499,186.781298 239.776558,186.258011 240.37,185.8 C240.913072,185.381517 241.477138,184.991009 242.06,184.63 C242.992542,184.062574 243.858025,183.391657 244.64,182.63 C244.81,182.52 245.06,182.38 245.38,182.2 C246.347326,181.587005 247.278843,180.919251 248.17,180.2 L248.25,180.14 L248.25,180.14 C249.236469,179.365874 250.261085,178.641633 251.32,177.97 C252.089416,177.440005 252.980372,177.113206 253.91,177.02 L254.16,177.02 C255.391507,177.215683 256.633823,177.335907 257.88,177.38 C258.439562,177.383759 258.997343,177.316557 259.54,177.18 C260.058531,177.028995 260.569171,176.852106 261.07,176.65 L261.07,176.65 L261.14,176.65 L261.14,176.65 C262.22,176.23 263.22,175.88 264.14,175.6 C265.491059,175.184337 266.896447,174.972012 268.31,174.97 C270.103329,175.041387 271.885266,175.289251 273.63,175.71 C275.370524,176.136642 277.1494,176.387896 278.94,176.46 C281.839668,176.395574 284.661841,175.511478 287.08,173.91 C287.78181,173.538705 288.502823,173.204903 289.24,172.91 C290.433333,172.39 291.673333,171.9 292.96,171.44 C295.489714,170.412168 298.166151,169.791153 300.89,169.6 C301.454172,169.561548 302.018788,169.668274 302.53,169.91 C302.810092,170.075717 302.972647,170.385345 302.95,170.71 C302.909453,171.242222 302.76686,171.761668 302.53,172.24 C300.376667,176.98 299.3,180.646667 299.3,183.24 C299.221955,184.500723 299.601937,185.747208 300.37,186.75 C300.85,187.31 302.67,187.97 305.85,188.75 C307.849425,189.280655 309.895727,189.615565 311.96,189.75 L312.24,189.75 C314.231433,189.615706 316.189023,189.16681 318.04,188.42 C319.973589,187.592923 321.419221,185.922334 321.96,183.89 C322.242619,182.854303 322.691818,181.871471 323.29,180.98 C323.803526,180.254288 324.371853,179.568953 324.99,178.93 C325.467348,178.430819 325.917977,177.906754 326.34,177.36 C326.790423,176.75108 327.144559,176.076535 327.39,175.36 C327.606813,174.769637 327.728331,174.148543 327.75,173.52 C327.784233,172.92894 327.566178,172.351093 327.15,171.93 C326.751104,171.578376 326.231185,171.395508 325.7,171.42 C324.630462,171.488871 323.596953,171.833374 322.7,172.42 C322.546127,172.524099 322.372559,172.595568 322.19,172.63 C322.169974,172.537741 322.169974,172.442259 322.19,172.35 C322.206635,171.933729 322.298094,171.523855 322.46,171.14 C322.648392,170.617162 322.907463,170.122572 323.23,169.67 C323.836935,168.699308 324.798304,168.003392 325.91,167.73 C328.51,167.21 329.82,166.28 329.82,164.94 C329.82,163.88 328.92,162.67 327.11,161.29 C325.399159,159.540932 322.699121,159.22426 320.63,160.53 L320.63,160.53 C320.078093,160.852645 319.465112,161.056972 318.83,161.13 C317.736667,161.13 316.353333,160.13 314.68,158.13 C313.954191,157.350449 313.535045,156.334552 313.5,155.27 C313.516596,154.648302 313.634826,154.03351 313.85,153.45 C314,153.02 314.28,152.37 314.69,151.45 L314.69,151.45 C315.13,150.45 315.44,149.76 315.61,149.25 C315.894617,148.463882 316.046686,147.635949 316.06,146.8 C316.059247,146.203076 315.968217,145.609699 315.79,145.04 C315.98,144.82 316.18,144.57 316.37,144.3 C317.32984,143.066711 318.179758,141.751681 318.91,140.37 C319.416608,139.448318 319.700831,138.421006 319.74,137.37 C319.716611,136.398702 319.414631,135.454577 318.87,134.65 C318.234907,133.738304 317.540049,132.869731 316.79,132.05 L316.79,132.05 L316.69,131.93 L316.69,131.93 C315.51,130.59 314.6,129.48 313.93,128.58 C313.151408,127.520421 312.225379,126.577555 311.18,125.78 C310.331529,125.175891 309.446506,124.624839 308.53,124.13 C307.69,123.67 307.07,123.3 306.67,123.03 C306.03127,122.601835 305.438163,122.109255 304.9,121.56 C304.192738,120.784146 303.657682,119.867394 303.33,118.87 C302.948367,117.763144 302.75239,116.600798 302.75,115.43 C302.629818,113.787214 303.190291,112.167265 304.3,110.95 C304.907432,110.368518 305.381647,109.662313 305.69,108.88 C305.942244,108.190785 306.136257,107.481635 306.27,106.76 L306.27,106.76 C306.400142,106.081865 306.577235,105.41359 306.8,104.76 C307.069479,103.99925 307.453941,103.284287 307.94,102.64 C308.77612,101.696761 309.293947,100.514156 309.42,99.26 C309.404756,98.0626457 308.582612,97.0267449 307.42,96.74 C306.219515,96.3360742 304.95575,96.1531162 303.69,96.2 C301.655924,96.2099734 299.628382,96.4311597 297.64,96.86 C296.169822,97.1357949 294.675644,97.2631016 293.18,97.24 L292.13,97.24 C291.034128,97.2249964 289.938449,97.2817846 288.85,97.41 C287.516079,97.5933121 286.207548,97.9288327 284.95,98.41 C282.466699,99.3350233 279.839952,99.815691 277.19,99.83 C273.207333,100.000121 269.333789,98.5036073 266.5,95.7 C265.919887,95.0991708 265.375614,94.4647421 264.87,93.8 C264.8035,93.7146549 264.717861,93.6461441 264.62,93.6 L264.57,93.6 L250.16,135 L250.16,135 C250.124126,135.101537 250.094077,135.205038 250.07,135.31 C250.07,135.46 249.99,135.58 249.97,135.67 L249.45,137.21 L249.22,137.21 C248.701462,138.178197 248.025584,139.05346 247.22,139.8 C244.938661,141.83611 242.064724,143.087324 239.02,143.37 L236.57,143.71 L236.25,136.44 L238.31,136.18 C239.564023,136.084122 240.748494,135.565916 241.67,134.71 C242.195933,134.221315 242.614759,133.628829 242.9,132.97 L247.42,120.06 L233.92,82.81 L241.92,82.81 L251.35,108.81 L259.09,86.81 C258.307837,85.6444729 257.615825,84.4209153 257.02,83.15 C256.47,81.99 255.8,80.39 255.02,78.33 C254.57,77.15 253.94,75.62 253.15,73.73 L253.15,73.73 C252.09,71.2233333 251.343333,69.3233333 250.91,68.03 C250.217875,65.9640099 249.719067,63.8382195 249.42,61.68 C249.269633,60.6058604 248.931121,59.56663 248.42,58.61 C247.95828,57.8148916 247.436777,57.056038 246.86,56.34 C246.51,55.89 246.24,55.51 246.03,55.22 C245.41,55.27 244.77,55.3 244.12,55.3 C239.047769,55.482837 234.15401,53.4147939 230.75,49.65 C229.857229,48.6584209 229.075892,47.5719266 228.42,46.41 L228.26,46.5 L227.61,46.97 L227.61,46.97 C227.136719,47.3369225 226.63889,47.6710359 226.12,47.97 C225.659364,48.223131 225.14535,48.3636281 224.62,48.38 C223.620985,48.3006445 222.680637,47.8764275 221.96,47.18 C221.843801,47.0735639 221.696659,47.0069997 221.54,46.99 L221.54,54.5 L214,54.5 L214,46.9 L214,46.9 L213.8,46.9 C212.739094,47.2426478 211.634496,47.4312376 210.52,47.46 C208.52347,47.3962322 206.599704,46.6954066 205.03,45.46 C203.60651,44.4948223 202.045634,43.7497822 200.4,43.25 C200.346974,43.2419033 200.293026,43.2419033 200.24,43.25 L200.24,54.54 L192.7,54.54 L192.7,40 C191.777734,39.5462695 190.821504,39.1651152 189.84,38.86 C189.12,38.62 188.02,38.3 186.53,37.86 L186.48,37.86 C185.2,37.58 184.14,37.27 183.27,37 Z M169,120.16 C171.946667,118.34 173.78,115.41 174.5,111.37 L174.5,111.37 L174.5,111.37 L174.5,111.37 C174.693983,110.253119 174.80429,109.12331 174.83,107.99 C174.78169,105.013579 173.563934,102.175742 171.44,100.09 C168.075968,96.8550959 164.468717,93.8830419 160.65,91.2 L160.65,91.2 C158.32257,89.6034929 156.152742,87.788606 154.17,85.78 C153.467534,85.0897419 153.034853,84.17118 152.95,83.19 C152.953413,82.7375413 153.01389,82.2873203 153.13,81.85 L153.13,81.73 C153.414138,79.7484041 154.498507,77.9700378 156.13,76.81 C157.248714,76.118904 158.545606,75.7712117 159.86,75.81 C160.76495,75.8204215 161.666401,75.9243063 162.55,76.12 L162.55,76.12 C164.88837,76.6008207 167.062312,77.6791784 168.86,79.25 L172.57,82.45 L172.57,73.28 L171.67,72.61 C169.384635,70.8599685 166.736589,69.6435759 163.92,69.05 L163.92,69.05 C162.582291,68.7890526 161.222913,68.6551237 159.86,68.65 C156.864618,68.5728486 153.915801,69.4024212 151.4,71.03 L151.4,71.03 C148.320887,73.2006358 146.239268,76.5139398 145.62,80.23 C144.630605,84.7148968 146.209557,89.3785828 149.72,92.34 L149.72,92.34 L149.72,92.34 L149.72,92.34 C150.52,93.0533333 153.146667,95.0533333 157.6,98.34 C159.98221,100.005927 162.262927,101.812468 164.43,103.75 C166.21,105.54 167.11,107.15 167.11,108.59 C167.095618,108.901313 167.06558,109.211706 167.02,109.52 C166.722036,111.287321 165.850505,112.907386 164.54,114.13 C163.178054,115.178632 161.486672,115.706967 159.77,115.62 C158.934339,115.600746 158.101613,115.513795 157.28,115.36 C154.145732,114.696541 151.170467,113.429676 148.52,111.63 L145.04,109.32 L145.04,117.85 L145.88,118.53 C148.639623,120.611033 151.867006,121.984388 155.28,122.53 L155.34,122.53 C156.565033,122.745299 157.806199,122.855699 159.05,122.86 C162.55751,122.937281 166.012675,121.999699 169,120.16 L169,120.16 Z M191,115.16 C190.33,114.54 189.87,113.16 189.63,111.16 C189.57,110.326667 189.51,107.66 189.45,103.16 C189.45,100.69 189.45,98.16 189.45,95.7 C189.45,93.93 189.45,92.14 189.45,90.33 L197.3,90.33 L197.3,82.81 L189.47,82.81 L189.47,76.92 L181.9,76.92 L181.9,82.81 L176.81,82.81 L176.81,90.33 L181.88,90.33 C181.88,92.15 181.88,93.97 181.88,95.77 C181.88,98.33 181.88,100.87 181.88,103.39 C181.94,108.39 182.046667,111.613333 182.2,113.06 L182.2,113.06 L182.2,113.06 L182.2,113.06 C182.62,116.44 183.78,118.95 185.68,120.59 C187.238745,121.810623 189.141806,122.510278 191.12,122.59 C192.04,122.68 193.65,122.72 195.95,122.72 L198.19,122.72 L198.19,115.6 L195.12,115.6 C192.77,115.63 191.38,115.46 191,115.15 L191,115.16 Z M225.89,103.52 L225.89,90 C222.18,89.71 219.75,89.56 218.62,89.56 L218.46,89.56 C218.213333,89.56 217.963333,89.56 217.71,89.56 C215.059331,89.597734 212.517624,90.6208336 210.58,92.43 C209.063494,93.8726351 207.923588,95.6648958 207.26,97.65 L207.26,97.65 L207.26,97.65 L207.26,97.65 C206.460448,99.712772 206.056739,101.907731 206.07,104.12 C206.015004,106.494009 206.580283,108.841297 207.71,110.93 C209.71,114.263333 212.133333,115.93 214.98,115.93 C217.547448,115.861329 219.999891,114.850453 221.87,113.09 C224.47,110.78 225.81,107.59 225.86,103.51 L225.89,103.52 Z M219.39,82.24 C218.92,82.24 218.45,82.24 217.99,82.24 C213.565716,82.1629231 209.277017,83.7676112 205.99,86.73 C202.043157,90.2025566 199.479906,94.9811371 198.77,100.19 L198.77,100.19 L198.77,100.19 L198.77,100.19 C198.563525,101.483387 198.453223,102.790302 198.44,104.1 C198.340692,108.853182 199.848765,113.500724 202.72,117.29 C205.596856,121.332347 210.2791,123.699648 215.24,123.62 C219.144224,123.642861 222.928218,122.27041 225.91,119.75 L225.91,122.36 L233.43,122.36 L233.43,83.36 L231.43,83.13 C227.03,82.5966667 223.006667,82.2966667 219.36,82.23 L219.39,82.24 Z" id="Shape" fill="#5291CE"></path>
        </g>
    </g>
</svg>