<svg xmlns="http://www.w3.org/2000/svg" width="60" height="69.954" viewBox="0 0 60 69.954">
  <g id="TC_logo-Header" data-name="TC logo-Header" transform="translate(-751.291 -190.74)">
    <path id="Path_11777" data-name="Path 11777" d="M1016.6,403.317a22.261,22.261,0,0,0-2.8-5.2,24.489,24.489,0,0,0-10.119-8.3.97.97,0,0,1-.683-1.074q.056-2.047,0-4.1c-.019-.65.179-.7.73-.483q15.227,5.915,19.165,21.761c.161.647.208,1.323.379,1.967.149.562-.021.685-.566.681-3.16-.021-6.32-.01-9.48-.01-2.892,0-5.785-.012-8.676.013a.883.883,0,0,1-.948-.621,11.109,11.109,0,1,0-.178,9.44,1.421,1.421,0,0,1,1.555-.944q8.8.049,17.594.007c.616,0,.815.078.683.782-2.17,11.528-8.738,19.383-19.643,23.652-.554.217-.618.031-.61-.463.023-1.419.029-2.839,0-4.257a.873.873,0,0,1,.628-.944,24.785,24.785,0,0,0,12.669-12.743c.354-.783.345-.791-.541-.791-2.651,0-5.3.021-7.953-.012a1.366,1.366,0,0,0-1.241.648c-4.255,5.585-9.9,7.99-16.777,6.581-6.772-1.389-11.078-5.732-12.73-12.452A16.459,16.459,0,0,1,990,396.571c6.758-1.339,12.333.81,16.631,6.213.194.244.322.54.729.539,3.05-.012,6.1-.006,9.242-.006Z" transform="translate(-212.028 -181.919)" fill="#f05a28"></path>
    <path id="Path_11778" data-name="Path 11778" d="M890.015,201.9a33.183,33.183,0,0,1,39.638,0l2.335-4.043a38.032,38.032,0,0,0-44.308,0l2.335,4.043Z" transform="translate(-128.37 0)" fill="#13406b"></path>
    <rect id="Rectangle_1134" data-name="Rectangle 1134" width="5.202" height="16.529" rx="0.54" transform="translate(778.865 194.967)" fill="#13406b"></rect>
    <rect id="Rectangle_1135" data-name="Rectangle 1135" width="5.202" height="11.042" rx="0.69" transform="translate(778.865 249.652)" fill="#13406b"></rect>
    <g id="Group_7342" data-name="Group 7342" transform="translate(751.291 203.613)">
      <path id="Path_11779" data-name="Path 11779" d="M1052.87,1272.239l.948.35-.209.564-2.579-.953.209-.564.948.35,1-2.706.684.253-1,2.706Z" transform="translate(-1033.408 -1218.715)" fill="#13406b"></path>
      <path id="Path_11780" data-name="Path 11780" d="M999.859,1239.969l-1.271-.677a1.534,1.534,0,0,1-.529-.434.971.971,0,0,1-.2-.539,1.147,1.147,0,0,1,.151-.6l0,0a1.11,1.11,0,0,1,.439-.46.941.941,0,0,1,.585-.119l0-1.557.731.39-.022,1.417.016.009.016.008.484.258.593-1.113.644.344-1.64,3.077Zm-.415-2.114a.6.6,0,0,0-.443-.072.524.524,0,0,0-.325.281l0,0a.515.515,0,0,0-.046.427.608.608,0,0,0,.309.331l.548.292.516-.968-.557-.3Z" transform="translate(-983.365 -1186.996)" fill="#13406b"></path>
      <path id="Path_11781" data-name="Path 11781" d="M935.908,1208.223a1.193,1.193,0,0,1,.14.665,1.274,1.274,0,0,1-.259.653l-1.338,1.815-.587-.433,1.3-1.763a.747.747,0,0,0,.166-.547.83.83,0,0,0-.871-.642.755.755,0,0,0-.471.322l-1.3,1.763-.587-.433,1.338-1.815a1.273,1.273,0,0,1,.545-.44,1.2,1.2,0,0,1,.675-.065,1.728,1.728,0,0,1,.721.331,1.749,1.749,0,0,1,.529.59Z" transform="translate(-921.47 -1160.361)" fill="#13406b"></path>
      <path id="Path_11782" data-name="Path 11782" d="M892.56,1165.146a1.123,1.123,0,0,1,.1.591.968.968,0,0,1-.246.53l-.025.029-.49-.484.015-.022a.43.43,0,0,0,.077-.252.653.653,0,0,0-.075-.287,1.066,1.066,0,0,0-.214-.288.991.991,0,0,0-.287-.206.5.5,0,0,0-.269-.049.363.363,0,0,0-.22.11l0,0a.32.32,0,0,0-.1.295,1.25,1.25,0,0,0,.213.443l.209.312a1.542,1.542,0,0,1,.307.794.843.843,0,0,1-.264.641l0,0a.939.939,0,0,1-.514.273,1.136,1.136,0,0,1-.595-.068,1.682,1.682,0,0,1-.582-.388,1.736,1.736,0,0,1-.407-.58,1.073,1.073,0,0,1-.076-.575.99.99,0,0,1,.247-.508l.029-.032.49.484-.017.024a.424.424,0,0,0-.092.239.563.563,0,0,0,.054.264.993.993,0,0,0,.456.45.462.462,0,0,0,.252.04.355.355,0,0,0,.2-.106l0,0a.313.313,0,0,0,.088-.289,1.176,1.176,0,0,0-.2-.423l-.211-.313a1.649,1.649,0,0,1-.33-.81.836.836,0,0,1,.273-.639l0,0a1,1,0,0,1,.528-.3,1.079,1.079,0,0,1,.61.069,1.92,1.92,0,0,1,.631.435,1.944,1.944,0,0,1,.427.593Z" transform="translate(-881.002 -1119.655)" fill="#13406b"></path>
      <path id="Path_11783" data-name="Path 11783" d="M842.774,1128.929l.621.8-.474.37-1.69-2.169.474-.37.621.8,2.276-1.773.449.576Z" transform="translate(-835.942 -1084.405)" fill="#13406b"></path>
      <path id="Path_11784" data-name="Path 11784" d="M810.975,1071.952l-1.175-1.99.518-.306.8,1.361.72-.425-.758-1.284.493-.291.758,1.284.753-.444-.8-1.361.518-.306,1.175,1.989-3,1.773Z" transform="translate(-806.36 -1029.448)" fill="#13406b"></path>
      <path id="Path_11785" data-name="Path 11785" d="M788.228,1019.709l-.512-1.229a1.85,1.85,0,0,1-.159-.9,1.351,1.351,0,0,1,.322-.751,2.032,2.032,0,0,1,.791-.544l0,0a2.1,2.1,0,0,1,.95-.182,1.379,1.379,0,0,1,.774.294,1.809,1.809,0,0,1,.536.748l.512,1.229-3.219,1.34Zm2.183-2.257a1.071,1.071,0,0,0-.332-.458.83.83,0,0,0-.487-.165,1.526,1.526,0,0,0-.629.136l0,0a1.436,1.436,0,0,0-.521.345.835.835,0,0,0-.219.463,1.076,1.076,0,0,0,.089.551l.2.475,2.1-.876-.2-.475Z" transform="translate(-785.419 -980.414)" fill="#13406b"></path>
      <path id="Path_11786" data-name="Path 11786" d="M762.276,925.829a1.456,1.456,0,0,1-.5.681,2.126,2.126,0,0,1-.912.378h0a2.114,2.114,0,0,1-.986-.021,1.451,1.451,0,0,1-.714-.452,1.741,1.741,0,0,1-.376-.828,1.677,1.677,0,0,1,.022-.771,1.393,1.393,0,0,1,.346-.606,1.343,1.343,0,0,1,.6-.352l.024-.007.132.7-.039.017a.852.852,0,0,0-.3.207.729.729,0,0,0-.168.307.865.865,0,0,0-.008.39.83.83,0,0,0,.231.451.925.925,0,0,0,.459.237,1.593,1.593,0,0,0,.638-.006h0a1.642,1.642,0,0,0,.6-.228.916.916,0,0,0,.344-.39.827.827,0,0,0,.052-.5.868.868,0,0,0-.145-.354.734.734,0,0,0-.27-.229.9.9,0,0,0-.377-.089H760.9l-.132-.7.027,0a1.331,1.331,0,0,1,.69.11,1.385,1.385,0,0,1,.541.44,1.688,1.688,0,0,1,.3.711,1.724,1.724,0,0,1-.05.908Z" transform="translate(-758.307 -893.408)" fill="#13406b"></path>
      <path id="Path_11787" data-name="Path 11787" d="M754.707,854.486a1.47,1.47,0,0,1-.606.6,2.1,2.1,0,0,1-.954.235h0a2.077,2.077,0,0,1-.965-.177,1.483,1.483,0,0,1-.64-.566,1.93,1.93,0,0,1-.053-1.786,1.483,1.483,0,0,1,.6-.6,2.085,2.085,0,0,1,.951-.235h0a2.1,2.1,0,0,1,.965.176,1.488,1.488,0,0,1,.641.562,1.936,1.936,0,0,1,.055,1.79Zm-.588-1.377a.934.934,0,0,0-.422-.31,1.594,1.594,0,0,0-.629-.095h0a1.582,1.582,0,0,0-.624.134.925.925,0,0,0-.4.337.855.855,0,0,0-.129.5.864.864,0,0,0,.159.492.92.92,0,0,0,.418.313,1.58,1.58,0,0,0,.633.1h0a1.582,1.582,0,0,0,.624-.134.932.932,0,0,0,.4-.337.926.926,0,0,0-.031-1Z" transform="translate(-751.291 -825.927)" fill="#13406b"></path>
      <path id="Path_11788" data-name="Path 11788" d="M752.49,770.777l.117-.835,2.619-.636,0-.014-2.346-1.324.116-.838,3.453.48-.09.646-2.333-.325-.047.333-.924-.865,3.171,1.807-.064.454-3.545.873,1.125-.58-.046.335,2.333.325-.089.644-3.453-.48Z" transform="translate(-752.419 -746.087)" fill="#13406b"></path>
      <path id="Path_11789" data-name="Path 11789" d="M767.061,685.6l.265-.8,2.69-.152,0-.013-2.068-1.726.266-.8,3.31,1.1-.205.619-2.236-.741-.106.319-.753-1.018,2.793,2.351-.145.436-3.644.218,1.211-.367-.106.321,2.237.741-.2.617-3.31-1.1Z" transform="translate(-766.133 -666.057)" fill="#13406b"></path>
      <path id="Path_11790" data-name="Path 11790" d="M800.644,618.411a1.194,1.194,0,0,1-.638.236,1.277,1.277,0,0,1-.684-.16l-1.992-1.055.342-.645,1.935,1.025a.748.748,0,0,0,.566.083.83.83,0,0,0,.506-.957.754.754,0,0,0-.388-.419l-1.935-1.025.342-.645,1.992,1.055a1.272,1.272,0,0,1,.516.474,1.193,1.193,0,0,1,.164.658,1.948,1.948,0,0,1-.725,1.373Z" transform="translate(-794.623 -602.76)" fill="#13406b"></path>
      <path id="Path_11791" data-name="Path 11791" d="M833.84,555.842l.38-.512,3.32.108-.735.215.183-.246-1.819-1.352.434-.584,2.8,2.081-.378.508-3.334-.112.735-.215-.183.246,1.831,1.361-.434.584-2.8-2.081Z" transform="translate(-828.987 -544.989)" fill="#13406b"></path>
      <path id="Path_11792" data-name="Path 11792" d="M879.29,527.994l.5-.534,2.553,2.375-.5.534Z" transform="translate(-871.765 -520.508)" fill="#13406b"></path>
      <path id="Path_11793" data-name="Path 11793" d="M902.216,483.981l-.758.668-.4-.452,2.063-1.818.4.452-.758.668,1.908,2.165-.547.483-1.908-2.165Z" transform="translate(-892.255 -478.079)" fill="#13406b"></path>
      <path id="Path_11794" data-name="Path 11794" d="M951.88,464.126l.593-.426,2.034,2.832-.593.426Z" transform="translate(-940.087 -460.497)" fill="#13406b"></path>
      <path id="Path_11795" data-name="Path 11795" d="M980.39,432.459l2-1.159.3.52-1.367.793.42.723,1.289-.748.288.5-1.289.748.439.757,1.367-.793.3.52-2,1.159-1.75-3.016Z" transform="translate(-966.921 -430.002)" fill="#13406b"></path>
      <path id="Path_11796" data-name="Path 11796" d="M1040.767,412.863a1.121,1.121,0,0,1-.583-.138.968.968,0,0,1-.393-.432l-.017-.035.636-.264.015.023a.43.43,0,0,0,.2.169.662.662,0,0,0,.294.043,1.085,1.085,0,0,0,.349-.086,1.014,1.014,0,0,0,.3-.184.506.506,0,0,0,.149-.229.363.363,0,0,0-.016-.246v0a.323.323,0,0,0-.234-.2,1.246,1.246,0,0,0-.491.025l-.368.072a1.54,1.54,0,0,1-.851-.025.843.843,0,0,1-.488-.492v0a.934.934,0,0,1-.052-.58,1.133,1.133,0,0,1,.293-.522,1.678,1.678,0,0,1,.583-.386,1.747,1.747,0,0,1,.693-.151,1.073,1.073,0,0,1,.559.152.99.99,0,0,1,.373.425l.019.039-.636.264-.016-.025a.419.419,0,0,0-.185-.177.558.558,0,0,0-.264-.052.993.993,0,0,0-.591.246.456.456,0,0,0-.133.216.353.353,0,0,0,.018.229v0a.313.313,0,0,0,.232.193,1.168,1.168,0,0,0,.468-.021l.37-.073a1.647,1.647,0,0,1,.874.01.837.837,0,0,1,.483.5v0a1,1,0,0,1,.069.6,1.076,1.076,0,0,1-.3.536,1.915,1.915,0,0,1-.646.413,1.948,1.948,0,0,1-.713.164Z" transform="translate(-1022.267 -409.218)" fill="#13406b"></path>
    </g>
  </g>
</svg>
