
<svg xmlns="http://www.w3.org/2000/svg" xmlns:xlink="http://www.w3.org/1999/xlink" id="Layer_1" data-name="Layer 1" viewBox="0 0 265.73 84.95">
  <defs>
    <style>
      .cls-1 {
        fill: #892b76;
      }

      .cls-1, .cls-2, .cls-3 {
        stroke-width: 0px;
      }

      .cls-3 {
        fill: none;
      }

      .cls-4 {
        clip-path: url(#clippath-1);
      }

      .cls-5 {
        clip-path: url(#clippath);
      }
    </style>
    <clipPath id="clippath">
      <rect class="cls-3" x="0" width="265.73" height="84.87"></rect>
    </clipPath>
    <clipPath id="clippath-1">
      <rect class="cls-3" y="0" width="265.73" height="84.87"></rect>
    </clipPath>
  </defs>
  <g class="cls-5">
    <g class="cls-4">
      <g>
        <path class="cls-2" d="M47.96,50.75c2.37-2.59,4.35-4.96,6.86-7.18,2.35-2.08,2.53-5.41,3.63-8.21.42-1.08.39-2.84,1.78-2.88,1.26-.04,2.24,1.31,3.04,2.35.89,1.16.03,2.02-.61,3.02-2.96,4.61-4.9,9.6-5.44,15.76,3.43-3.43,5.83-6.88,8.18-10.37,1.93-2.86,4.26-5.5,5.05-9.03.3-1.35,1.38-.73,2.13-.33,1.12.6,2.66,1.15,1.94,2.83-2.98,7.02-4.43,14.5-6.85,21.69-1.02,3.03-.94,3.05,2.2,3.25,1.08.07,2.16.16,3.77.27-1.86,1.41-3.48,1.5-4.98,1.35-2.02-.21-2.77.77-3.35,2.42-1.69,4.85-3.54,9.62-6.05,14.16-1.09,1.97-2.05,3.59-4.08,4.97-.86.34-1.23.05-2.22-.77-4.6-4.53-4.62-9.74-3.63-15.77.88-5.34,2.34-6.69,7.65-7.12,2.04-.16,4.64.95,5.97-.66,1.23-1.48,1.3-3.91,1.87-5.93.85-3.02,1.7-6.04,2.54-9.06.04-.15-.07-.33-.17-.81-2.05,1.79-2.85,4.24-4.24,6.24-1.24,1.78-2.28,3.7-3.36,5.59-1.1,1.9-2.25,2.14-3.86.46-1.71-1.78-2.48-3.73-1.97-6.16.19-.88.76-1.76.08-2.98-2.12,2.39-3.51,5.06-5.09,7.61-.54.87-.78,2.37-1.83,2.37-1.33,0-1.7-1.52-2.29-2.58-1.77-3.2-.55-6.32.35-9.38.74-2.49,1.82-4.89,2.84-7.29.3-.7.6-1.19-.19-1.77-1-.73-1.26.22-1.58.68-3.18,4.66-6.83,8.98-9.89,13.73-1.58,2.45-3.34,4.9-5.99,6.43-3,1.74-5.71.76-7.04-2.42-2.69-6.46-.73-12.23,2.33-17.99,1.67-3.15,4.5-4.74,7.36-6.36,2.09-1.19,5.15,1.31,5.45,4.34.39,4.03-2.67,9.27-6.64,11.41-1.52.82-2.93,2.39-4.84-.16-.24,2.38-.35,4.17.21,5.95.68,2.12,1.61,2.43,3.52,1.31,2.21-1.29,3.45-3.49,4.91-5.39,3.02-3.92,5.75-8.05,8.49-12.17.91-1.37,1.52-2.96,1.43-4.68-.09-1.95.91-3.54,1.79-5.12,1.16-2.09,2.75-1.24,4.18-.24,1.48,1.04,1.3,2.13.17,3.44-2.5,2.91-2.44,4.65.34,7.43,1.33,1.33,1.56,1.96-.07,3.45-2.81,2.56-3.44,6.35-4.35,9.89-.2.46-.17,1.76.09,1.28.35-.64.18-.37.43-.87ZM50.94,73.52c0,1.02-.04,1.46,0,1.9.17,1.59-.29,3.77,1.72,4.23,1.98.45,3.13-1.47,3.92-2.95,1.91-3.6,3.44-7.39,4.84-11.22.41-1.12.03-1.29-1.01-1.37-6.85-.55-8.79,1.06-9.38,7.91-.06.69-.08,1.39-.09,1.5ZM27.42,43.75c-.57,1.46.37,1.58,1.3,1.55,1.03-.04,1.91-.65,2.44-1.42,1.53-2.2,3.47-4.15,4.32-6.78.34-1.05,1.19-2.29.04-3.14-1.21-.9-2.52.05-3.31.84-2.48,2.51-4.15,5.52-4.79,8.94Z"></path>
        <path class="cls-2" d="M.56,53.29c.18-3.01.59-6.51,1.02-9.74,1.66-12.49,3.53-24.95,5.92-37.32.22-1.14.32-2.61,2.21-2.17,2.1.48,3.64,2.29,2.99,3.88-4.8,11.64-6.01,24.02-7.63,36.31-.38,2.92-.54,5.87-.58,8.88,2.11-3.09,3.67-6.45,5.53-9.64,3.66-6.31,7.56-12.46,11.51-18.59,4.05-6.29,8.52-12.27,12.89-18.33,1.26-1.75,2.75-3.38,4.3-4.89,1.78-1.73,4.32-.93,5.2,1.41.26.7.2,1.1-.32,1.6-6.67,6.3-12.2,13.57-17.49,20.98-7.08,9.92-13.79,20.09-18.61,31.35-.73,1.7-1.23,3.46-1.59,5.25-.24,1.21-.16,2.58-1.86,2.71-1.47.11-2.81-.14-3.43-1.76"></path>
        <path class="cls-1" d="M245.14,72.84c-1.56,4.49-3.83,8.53-7.53,11.65-.76.38-1.3.49-2.12,0-2.01-1.56-2.11-2.92-2.59-4.74-.7-2.62-1.2-5.25-1.12-7.97.74-.96,1.37.43,2.09.1-.02,1.56-.04,3.11-.06,4.67-.02,1.41.52,2.84,1.76,3.18.76.2,1.86-.91,2.62-1.73,1.51-1.62,2.1-3.74,3.13-5.62,1.28.09,2.62-.3,3.82.46Z"></path>
        <path class="cls-1" d="M139.19,16.22c-2.42,1.39-3.17,3.97-4.29,6.07-6.11,11.45-12.16,22.93-19.2,33.85-1.22,1.9-2.67,3.68-4.21,5.33-.99,1.06-2.24,2.15-3.95,1.44-1.63-.68-2.28-2.04-2.51-3.73-.66-4.68.02-9.29.74-13.87,1.55-9.78,4.28-19.28,6.97-28.79.29-1.04.48-2.1.71-3.16-.23-.07-.46-.14-.69-.21-.99,1.76-2.05,3.48-2.95,5.27-5.22,10.44-10.49,20.86-15.57,31.37-2.38,4.94-5.24,9.66-6.93,14.93-.63,1.98-2.26,1.21-3.57.8-1.69-.52-1.21-1.65-.6-2.69,8.36-14.34,15.12-29.47,22.18-44.44,2.27-4.81,4.53-9.63,6.69-14.48.64-1.43,1.26-1.85,2.53-.74.32.27.81.34,1.2.53,3.85,1.9,4.3,2.65,3.21,6.79-2.75,10.39-5.91,20.68-8.31,31.17-1.11,4.86-2.25,9.72-2.65,14.71-.08.92-.5,2.18.59,2.59,1.26.48,1.84-.81,2.33-1.67,3.4-5.99,6.82-11.97,10.07-18.04,4-7.45,7.86-14.97,11.73-22.49,2.03-3.95,3.99-7.94,5.92-11.95.82-1.71,1.55-2.44,3.78-1.64,6.06,2.17,6.48,2.61,3.77,8.06-4.34,8.76-6.86,18.13-9.46,27.47-1.67,5.99-3.09,12.04-3.85,18.23-.18,1.48-.22,2.97-.34,4.45-.11,1.33.8,3.26-1.77,3.21-2.13-.04-3.42-1.63-3.17-3.87.44-3.93,1.56-7.73,2.54-11.54,2.78-10.85,5.96-21.59,9.19-32.31.04-.13-.08-.31-.18-.66Z"></path>
        <path class="cls-1" d="M231.99,69.28c.08-.61.18-1.56.3-2.16.81-4.02,1.99-5.13,6.08-5.72.7-.1,1.4-.17,2.11-.21q5.55-.25,6.96-5.55c1-3.75,2.04-7.48,2.84-11.31-3,3.17-4.65,7.16-7.13,10.62-.88,1.23-1.13,3.12-3.06,3.07-1.5-.03-3.65-3.42-3.69-5.32-.04-2.12.92-4.06.77-6.33-1.98,3.2-3.94,6.41-5.97,9.57-.44.69-.59,1.89-1.64,1.85-.94-.03-1.36-1.04-1.76-1.8-1.09-2.05-1.53-4.14-1-6.54.82-3.7,2.14-7.2,3.67-10.64.27-.62,1.09-1.22.03-1.99-1.14-.83-1.45.2-1.81.72-4.23,6.17-9.27,11.79-12.79,18.46-.37.7-.56,1.9-1.67,1.76-.92-.12-1.34-1.1-1.73-1.86-.97-1.9-1.49-3.82-1.01-6.04.81-3.79,2.02-7.41,3.71-10.89.32-.66,1.17-1.53-.09-2.23-1.29-.71-1.5.59-1.92,1.14-4.38,5.74-8.29,11.82-12.8,17.47-2.91,3.65-7.66,4.1-9.4.64-.74-1.46-1.28-3.12-1.47-4.74-.74-6.46,2.34-16.65,10.88-20.38,2.22-.97,5.31,1.39,5.33,4.49.04,4.94-2.4,8.64-6.6,11.16-1.35.81-2.78,2.56-4.72-.12-.42,2.51-.49,4.43.17,6.34.6,1.75,1.67,2.02,3.28,1.11,2.24-1.27,3.51-3.44,4.97-5.35,3.06-4.01,5.87-8.22,8.67-12.42.86-1.29,1.5-2.79,1.39-4.44-.13-1.95.86-3.57,1.71-5.17,1.09-2.05,2.67-1.44,4.18-.38,1.5,1.05,1.45,2.13.21,3.41-2.31,2.38-2.63,4.31.35,7.46,1.28,1.35,1.49,1.92-.08,3.45-3.03,2.97-3.77,7.13-4.73,11.76,5.09-5.78,9.59-11.19,12.87-17.5,1.23-2.36.42-5.16,2.09-7.5,1.6-2.24,2.25-2.64,4.51-1.1,1.38.94,1.62,1.95.39,3.21-2.73,2.79-2.75,4.5.33,7.81,1.26,1.35,1.24,1.9-.2,3.25-3.12,2.96-3.67,7.13-4.82,11.74,2.95-3.02,4.92-5.87,7.54-8.18,2.57-2.27,2.8-5.71,4.01-8.66.41-1.01.37-2.64,1.62-2.72,1.33-.09,2.28,1.24,3.06,2.28.84,1.11.08,2.02-.57,3.03-2.92,4.59-5.02,9.48-5.28,15.68,3.38-3.42,5.79-6.81,8.08-10.25,1.91-2.87,4.33-5.48,5.03-9.06.21-1.07,1.22-.8,1.95-.42,1.14.6,2.76,1.17,2.09,2.8-2.82,6.81-4.33,14.02-6.58,21q-1.24,3.84,2.78,4.11c.77.05,1.53.16,2.78.29-1.7,1.23-3.25,1.41-4.71,1.24-2.09-.23-2.93.73-3.46,2.53-.5,1.67-1.25,3.26-1.89,4.88-1.28-.11-2.61.23-3.8-.52.21-.48.51-.94.63-1.44.38-1.57,1.92-3.15,1.14-4.55-.33-.58-2.79-.01-4.27.06-4.16.22-4.97,1.01-5.37,5.15-.8-.14-1.66.06-2.46-.08ZM203.54,35.23c.03-.66-.13-1.32-.81-1.49-1.24-.31-2.33.32-3.11,1.11-2.24,2.27-3.74,5.02-4.53,8.1-.17.66-.93,1.54.03,2.14.94.6,1.97.27,2.69-.41,1.71-1.62,3.2-3.47,4.26-5.56.62-1.22,1.43-2.43,1.49-3.88Z"></path>
        <path class="cls-1" d="M180.4,32.38c.24-.11.8-.37.99-.53,1.32-1.19,2.99-2.44,4.86-1.42,1.76.97,2.57,2.74,2.75,4.76.43,4.74-1.06,9.03-3.45,12.97-2.02,3.33-4,6.75-7.18,9.25-1.71,1.34-2.89,1.12-4.1-.64-2.12-3.07-3.36-6.3-2.53-10.15-2.46,3.23-4.93,6.38-6.73,9.99-.34.68-.54,1.75-1.41,1.74-.97-.01-1.37-1.07-1.68-1.85-.92-2.3-1.41-4.69-1.24-7.19.06-.9.42-1.86-.33-3.11-2.21,3.32-4.25,6.49-6.42,9.58-.62.88-.94,2.47-2.18,2.37-1.35-.11-2.03-1.54-2.69-2.68-1.31-2.25-.28-4.55.06-7.66-2.43,3.7-4.5,6.68-6.38,9.77-1.12,1.84-1.97,1.84-3.33.25-1.31-1.52-1.84-3.09-1.52-5.06,1.14-7.06,4.19-13.49,6.67-20.11.55-1.48,1.51-1.31,2.46-.54,1.23,1.01,3.15,1.97,1.45,3.95-3.46,4.04-5.03,8.93-6.5,13.87-.34,1.14-.58,2.3-.39,3.88,3.08-3.29,5.95-6.36,8.49-9.57,1.96-2.47,2.46-6.08,3.65-9.17.36-.92.34-2.4,1.65-2.36,1.37.04,2.3,1.25,3.06,2.31.64.9.14,1.74-.52,2.58-3.38,4.36-5.72,9.14-5.86,15.32,4.7-5.53,10.28-9.5,12.1-16.85,2.05-8.28,6.49-15.77,10.39-23.38.99-1.94,2.12-3.81,3.12-5.74.9-1.76,2.32-1.69,3.45-.64,1.63,1.51,2.75,3.34,1.7,5.82-3.94,9.22-7.79,18.48-13.62,26.75-.25.35-.52.74-.73,1.04-2.69,3.81-3.7,6.13-4.13,9.77-.09.73-.31,1.52.18,2.34,2.27-2.78,4.6-5.42,7.2-7.84,2.14-1.98,2.25-5.05,3.2-7.63,2.91-7.96,6.73-15.54,9.79-23.43.09-.24.24-.47.35-.71,1.83-4.1,2.1-4.1,4.84-.56.72.93.49,1.41-.14,2.23-4.1,5.4-6.7,11.82-9.26,18.02M174.82,49.81c0,.82-.06,1.27.01,1.7.13.74-.2,1.77.69,2.09.87.31,1.41-.61,1.91-1.15,1.06-1.15,2.08-2.35,2.93-3.65,2.54-3.88,4.98-7.82,4.92-12.7-.02-1.17-.16-2.37-1.46-2.83-1.32-.47-2.31.43-2.93,1.32-3.25,4.71-5.84,9.72-6.08,15.21ZM167.63,37.3c5.37-8.11,9.67-16.73,12.45-26.06-5.53,8.04-9.22,16.94-12.45,26.06Z"></path>
        <path class="cls-2" d="M227.57,71.64c-15.54-.55-30.77-1.5-46.26-.39-18.27,1.31-36.64,1.71-54.79,4.22-11.23,1.55-22.46,3.02-33.73,4.16-4.02.41-7.66,1.28-12.4,1.45,7.2-2.7,13.42-3.2,20.81-4.67,9.19-1.8,18.01-2.71,26.96-4.35,14.76-2.71,29.72-2.85,44.57-4.28,11.99-1.15,23.93-.92,35.88-.67,7.09.15,14.17,1.14,21.26,1.75.79.07,1.65.26,2.44.29.8.14,1.54.07,2.34.21,2.63.26,5.25.52,7.88.77,1.56.23,2.53.41,3.8.52,5.4.87,9.16,2.12,13.66,3.63-4.93,0-9.37-.65-14.69-1.12-1.59-.09-2.54-.37-3.82-.46-2.49-.17-4.97-.33-7.46-.5"></path>
        <path class="cls-1" d="M180.5,31.9c.15.12.29.24.44.36"></path>
      </g>
    </g>
  </g>
</svg>
